<?xml version="1.0" encoding="UTF-8"?>
<svg xmlns="http://www.w3.org/2000/svg" xmlns:xlink="http://www.w3.org/1999/xlink" width="800pt" height="300pt" viewBox="0 0 800 300" version="1.1">
<defs>
<clipPath id="clip1">
  <path d="M 282 263 L 356 263 L 356 300 L 282 300 Z M 282 263 "/>
</clipPath>
<clipPath id="clip2">
  <path d="M 371 263 L 446 263 L 446 300 L 371 300 Z M 371 263 "/>
</clipPath>
<clipPath id="clip3">
  <path d="M 29.269531 44 L 799.835938 44 L 799.835938 234.601562 L 29.269531 234.601562 Z M 29.269531 44 "/>
</clipPath>
<clipPath id="clip4">
  <path d="M 28.269531 43 L 800 43 L 800 235.601562 L 28.269531 235.601562 Z M 28.269531 43 "/>
</clipPath>
<clipPath id="clip5">
  <path d="M 29.269531 186 L 799.835938 186 L 799.835938 234.601562 L 29.269531 234.601562 Z M 29.269531 186 "/>
</clipPath>
<clipPath id="clip6">
  <path d="M 28.269531 158 L 800 158 L 800 235.601562 L 28.269531 235.601562 Z M 28.269531 158 "/>
</clipPath>
</defs>
<g id="surface3237771">
<rect x="0" y="0" width="800" height="300" style="fill:rgb(100%,100%,100%);fill-opacity:1;stroke:none;"/>
<path style="fill:none;stroke-width:1;stroke-linecap:butt;stroke-linejoin:miter;stroke:rgb(0%,0%,0%);stroke-opacity:0.0980392;stroke-miterlimit:10;" d="M 30 234.5 L 799.835938 234.5 "/>
<path style="fill:none;stroke-width:1;stroke-linecap:butt;stroke-linejoin:miter;stroke:rgb(0%,0%,0%);stroke-opacity:0.0980392;stroke-miterlimit:10;" d="M 21.269531 234.5 L 29 234.5 "/>
<path style="fill:none;stroke-width:1;stroke-linecap:butt;stroke-linejoin:miter;stroke:rgb(0%,0%,0%);stroke-opacity:0.0980392;stroke-miterlimit:10;" d="M 30 186.5 L 799.835938 186.5 "/>
<path style="fill:none;stroke-width:1;stroke-linecap:butt;stroke-linejoin:miter;stroke:rgb(0%,0%,0%);stroke-opacity:0.0980392;stroke-miterlimit:10;" d="M 21.269531 186.5 L 29 186.5 "/>
<path style="fill:none;stroke-width:1;stroke-linecap:butt;stroke-linejoin:miter;stroke:rgb(0%,0%,0%);stroke-opacity:0.0980392;stroke-miterlimit:10;" d="M 30 139.5 L 799.835938 139.5 "/>
<path style="fill:none;stroke-width:1;stroke-linecap:butt;stroke-linejoin:miter;stroke:rgb(0%,0%,0%);stroke-opacity:0.0980392;stroke-miterlimit:10;" d="M 21.269531 139.5 L 29 139.5 "/>
<path style="fill:none;stroke-width:1;stroke-linecap:butt;stroke-linejoin:miter;stroke:rgb(0%,0%,0%);stroke-opacity:0.0980392;stroke-miterlimit:10;" d="M 30 91.5 L 799.835938 91.5 "/>
<path style="fill:none;stroke-width:1;stroke-linecap:butt;stroke-linejoin:miter;stroke:rgb(0%,0%,0%);stroke-opacity:0.0980392;stroke-miterlimit:10;" d="M 21.269531 91.5 L 29 91.5 "/>
<path style="fill:none;stroke-width:1;stroke-linecap:butt;stroke-linejoin:miter;stroke:rgb(0%,0%,0%);stroke-opacity:0.0980392;stroke-miterlimit:10;" d="M 30 44.5 L 799.835938 44.5 "/>
<path style="fill:none;stroke-width:1;stroke-linecap:butt;stroke-linejoin:miter;stroke:rgb(0%,0%,0%);stroke-opacity:0.0980392;stroke-miterlimit:10;" d="M 21.269531 44.5 L 29 44.5 "/>
<path style=" stroke:none;fill-rule:nonzero;fill:rgb(9.019608%,58.823529%,95.294118%);fill-opacity:0.6;" d="M 327.304688 284 C 327.304688 288.6875 323.507812 292.484375 318.820312 292.484375 C 314.132812 292.484375 310.335938 288.6875 310.335938 284 C 310.335938 279.3125 314.132812 275.515625 318.820312 275.515625 C 323.507812 275.515625 327.304688 279.3125 327.304688 284 Z M 327.304688 284 "/>
<g clip-path="url(#clip1)" clip-rule="nonzero">
<path style="fill:none;stroke-width:2;stroke-linecap:butt;stroke-linejoin:miter;stroke:rgb(9.019608%,58.823529%,95.294118%);stroke-opacity:1;stroke-miterlimit:10;" d="M 327.304688 284 C 327.304688 288.6875 323.507812 292.484375 318.820312 292.484375 C 314.132812 292.484375 310.335938 288.6875 310.335938 284 C 310.335938 279.3125 314.132812 275.515625 318.820312 275.515625 C 323.507812 275.515625 327.304688 279.3125 327.304688 284 Z M 327.304688 284 "/>
</g>
<path style=" stroke:none;fill-rule:nonzero;fill:rgb(0%,0%,0%);fill-opacity:1;" d="M 333.617188 279.40625 L 339.242188 279.40625 L 339.242188 279.90625 L 336.070312 288.15625 L 334.835938 288.15625 L 337.820312 280.40625 L 333.617188 280.40625 Z M 350.507812 279.6875 L 350.507812 280.84375 C 350.058594 280.636719 349.632812 280.480469 349.226562 280.375 C 348.828125 280.261719 348.449219 280.203125 348.085938 280.203125 C 347.4375 280.203125 346.9375 280.328125 346.585938 280.578125 C 346.242188 280.828125 346.070312 281.1875 346.070312 281.65625 C 346.070312 282.042969 346.183594 282.335938 346.414062 282.53125 C 346.640625 282.730469 347.085938 282.886719 347.742188 283 L 348.445312 283.15625 C 349.328125 283.324219 349.980469 283.621094 350.398438 284.046875 C 350.824219 284.464844 351.039062 285.027344 351.039062 285.734375 C 351.039062 286.589844 350.75 287.234375 350.179688 287.671875 C 349.617188 288.109375 348.78125 288.328125 347.679688 288.328125 C 347.273438 288.328125 346.835938 288.28125 346.367188 288.1875 C 345.898438 288.09375 345.414062 287.953125 344.914062 287.765625 L 344.914062 286.546875 C 345.390625 286.820312 345.859375 287.023438 346.320312 287.15625 C 346.789062 287.292969 347.242188 287.359375 347.679688 287.359375 C 348.355469 287.359375 348.875 287.230469 349.242188 286.96875 C 349.617188 286.699219 349.804688 286.320312 349.804688 285.828125 C 349.804688 285.402344 349.667969 285.070312 349.398438 284.828125 C 349.136719 284.578125 348.703125 284.398438 348.101562 284.28125 L 347.382812 284.140625 C 346.496094 283.964844 345.855469 283.6875 345.460938 283.3125 C 345.074219 282.9375 344.882812 282.417969 344.882812 281.75 C 344.882812 280.96875 345.152344 280.359375 345.695312 279.921875 C 346.234375 279.476562 346.984375 279.25 347.945312 279.25 C 348.359375 279.25 348.777344 279.289062 349.195312 279.359375 C 349.621094 279.433594 350.058594 279.542969 350.507812 279.6875 Z M 358.453125 284.609375 L 358.453125 285.125 L 353.484375 285.125 C 353.535156 285.875 353.757812 286.445312 354.15625 286.828125 C 354.5625 287.214844 355.117188 287.40625 355.828125 287.40625 C 356.242188 287.40625 356.644531 287.359375 357.03125 287.265625 C 357.425781 287.164062 357.816406 287.007812 358.203125 286.796875 L 358.203125 287.828125 C 357.804688 287.984375 357.40625 288.105469 357 288.1875 C 356.59375 288.28125 356.179688 288.328125 355.765625 288.328125 C 354.722656 288.328125 353.894531 288.027344 353.28125 287.421875 C 352.664062 286.808594 352.359375 285.980469 352.359375 284.9375 C 352.359375 283.867188 352.648438 283.015625 353.234375 282.390625 C 353.816406 281.757812 354.597656 281.4375 355.578125 281.4375 C 356.460938 281.4375 357.160156 281.726562 357.671875 282.296875 C 358.191406 282.859375 358.453125 283.632812 358.453125 284.609375 Z M 357.375 284.28125 C 357.363281 283.699219 357.195312 283.230469 356.875 282.875 C 356.550781 282.523438 356.125 282.34375 355.59375 282.34375 C 354.988281 282.34375 354.503906 282.515625 354.140625 282.859375 C 353.785156 283.203125 353.582031 283.683594 353.53125 284.296875 Z M 364.023438 282.59375 C 363.898438 282.53125 363.761719 282.484375 363.617188 282.453125 C 363.480469 282.414062 363.324219 282.390625 363.148438 282.390625 C 362.542969 282.390625 362.074219 282.589844 361.742188 282.984375 C 361.417969 283.382812 361.257812 283.953125 361.257812 284.703125 L 361.257812 288.15625 L 360.179688 288.15625 L 360.179688 281.59375 L 361.257812 281.59375 L 361.257812 282.609375 C 361.484375 282.214844 361.78125 281.921875 362.148438 281.734375 C 362.511719 281.539062 362.953125 281.4375 363.476562 281.4375 C 363.546875 281.4375 363.625 281.445312 363.710938 281.453125 C 363.804688 281.464844 363.902344 281.480469 364.007812 281.5 Z M 364.375 281.59375 L 365.515625 281.59375 L 367.5625 287.09375 L 369.625 281.59375 L 370.765625 281.59375 L 368.296875 288.15625 L 366.828125 288.15625 Z M 377.867188 284.609375 L 377.867188 285.125 L 372.898438 285.125 C 372.949219 285.875 373.171875 286.445312 373.570312 286.828125 C 373.976562 287.214844 374.53125 287.40625 375.242188 287.40625 C 375.65625 287.40625 376.058594 287.359375 376.445312 287.265625 C 376.839844 287.164062 377.230469 287.007812 377.617188 286.796875 L 377.617188 287.828125 C 377.21875 287.984375 376.820312 288.105469 376.414062 288.1875 C 376.007812 288.28125 375.59375 288.328125 375.179688 288.328125 C 374.136719 288.328125 373.308594 288.027344 372.695312 287.421875 C 372.078125 286.808594 371.773438 285.980469 371.773438 284.9375 C 371.773438 283.867188 372.0625 283.015625 372.648438 282.390625 C 373.230469 281.757812 374.011719 281.4375 374.992188 281.4375 C 375.875 281.4375 376.574219 281.726562 377.085938 282.296875 C 377.605469 282.859375 377.867188 283.632812 377.867188 284.609375 Z M 376.789062 284.28125 C 376.777344 283.699219 376.609375 283.230469 376.289062 282.875 C 375.964844 282.523438 375.539062 282.34375 375.007812 282.34375 C 374.402344 282.34375 373.917969 282.515625 373.554688 282.859375 C 373.199219 283.203125 372.996094 283.683594 372.945312 284.296875 Z M 383.4375 282.59375 C 383.3125 282.53125 383.175781 282.484375 383.03125 282.453125 C 382.894531 282.414062 382.738281 282.390625 382.5625 282.390625 C 381.957031 282.390625 381.488281 282.589844 381.15625 282.984375 C 380.832031 283.382812 380.671875 283.953125 380.671875 284.703125 L 380.671875 288.15625 L 379.59375 288.15625 L 379.59375 281.59375 L 380.671875 281.59375 L 380.671875 282.609375 C 380.898438 282.214844 381.195312 281.921875 381.5625 281.734375 C 381.925781 281.539062 382.367188 281.4375 382.890625 281.4375 C 382.960938 281.4375 383.039062 281.445312 383.125 281.453125 C 383.21875 281.464844 383.316406 281.480469 383.421875 281.5 Z M 388.75 281.78125 L 388.75 282.8125 C 388.445312 282.65625 388.128906 282.542969 387.796875 282.46875 C 387.472656 282.386719 387.132812 282.34375 386.78125 282.34375 C 386.25 282.34375 385.847656 282.429688 385.578125 282.59375 C 385.304688 282.75 385.171875 282.996094 385.171875 283.328125 C 385.171875 283.578125 385.265625 283.777344 385.453125 283.921875 C 385.648438 284.058594 386.039062 284.1875 386.625 284.3125 L 386.984375 284.40625 C 387.753906 284.5625 388.300781 284.792969 388.625 285.09375 C 388.945312 285.398438 389.109375 285.8125 389.109375 286.34375 C 389.109375 286.960938 388.863281 287.445312 388.375 287.796875 C 387.894531 288.152344 387.234375 288.328125 386.390625 288.328125 C 386.035156 288.328125 385.664062 288.289062 385.28125 288.21875 C 384.90625 288.15625 384.507812 288.058594 384.09375 287.921875 L 384.09375 286.796875 C 384.488281 287.007812 384.878906 287.164062 385.265625 287.265625 C 385.648438 287.371094 386.035156 287.421875 386.421875 287.421875 C 386.921875 287.421875 387.304688 287.339844 387.578125 287.171875 C 387.859375 286.996094 388 286.746094 388 286.421875 C 388 286.132812 387.898438 285.90625 387.703125 285.75 C 387.503906 285.59375 387.070312 285.445312 386.40625 285.296875 L 386.03125 285.21875 C 385.363281 285.074219 384.878906 284.855469 384.578125 284.5625 C 384.285156 284.273438 384.140625 283.875 384.140625 283.375 C 384.140625 282.75 384.359375 282.273438 384.796875 281.9375 C 385.234375 281.605469 385.851562 281.4375 386.65625 281.4375 C 387.050781 281.4375 387.425781 281.46875 387.78125 281.53125 C 388.132812 281.585938 388.457031 281.667969 388.75 281.78125 Z M 328.820312 277.015625 "/>
<path style=" stroke:none;fill-rule:nonzero;fill:rgb(96.862745%,44.705882%,40.784314%);fill-opacity:1;" d="M 417.171875 284 C 417.171875 288.6875 413.375 292.484375 408.6875 292.484375 C 404 292.484375 400.203125 288.6875 400.203125 284 C 400.203125 279.3125 404 275.515625 408.6875 275.515625 C 413.375 275.515625 417.171875 279.3125 417.171875 284 Z M 417.171875 284 "/>
<g clip-path="url(#clip2)" clip-rule="nonzero">
<path style="fill:none;stroke-width:2;stroke-linecap:butt;stroke-linejoin:miter;stroke:rgb(100%,4.705882%,0%);stroke-opacity:0.247059;stroke-miterlimit:10;" d="M 417.171875 284 C 417.171875 288.6875 413.375 292.484375 408.6875 292.484375 C 404 292.484375 400.203125 288.6875 400.203125 284 C 400.203125 279.3125 404 275.515625 408.6875 275.515625 C 413.375 275.515625 417.171875 279.3125 417.171875 284 Z M 417.171875 284 "/>
</g>
<path style=" stroke:none;fill-rule:nonzero;fill:rgb(0%,0%,0%);fill-opacity:1;" d="M 423.984375 287.15625 L 425.921875 287.15625 L 425.921875 280.484375 L 423.8125 280.90625 L 423.8125 279.828125 L 425.90625 279.40625 L 427.09375 279.40625 L 427.09375 287.15625 L 429.03125 287.15625 L 429.03125 288.15625 L 423.984375 288.15625 Z M 434.667969 280.4375 L 431.683594 285.109375 L 434.667969 285.109375 Z M 434.355469 279.40625 L 435.855469 279.40625 L 435.855469 285.109375 L 437.105469 285.109375 L 437.105469 286.09375 L 435.855469 286.09375 L 435.855469 288.15625 L 434.667969 288.15625 L 434.667969 286.09375 L 430.730469 286.09375 L 430.730469 284.953125 Z M 443.945312 280.375 L 443.945312 283.671875 L 445.429688 283.671875 C 445.980469 283.671875 446.40625 283.53125 446.710938 283.25 C 447.011719 282.960938 447.164062 282.546875 447.164062 282.015625 C 447.164062 281.496094 447.011719 281.09375 446.710938 280.8125 C 446.40625 280.523438 445.980469 280.375 445.429688 280.375 Z M 442.757812 279.40625 L 445.429688 279.40625 C 446.417969 279.40625 447.164062 279.632812 447.664062 280.078125 C 448.164062 280.515625 448.414062 281.164062 448.414062 282.015625 C 448.414062 282.882812 448.164062 283.539062 447.664062 283.984375 C 447.164062 284.421875 446.417969 284.640625 445.429688 284.640625 L 443.945312 284.640625 L 443.945312 288.15625 L 442.757812 288.15625 Z M 449.945312 279.03125 L 451.023438 279.03125 L 451.023438 288.15625 L 449.945312 288.15625 Z M 456.265625 284.859375 C 455.398438 284.859375 454.796875 284.960938 454.453125 285.15625 C 454.117188 285.355469 453.953125 285.695312 453.953125 286.171875 C 453.953125 286.558594 454.078125 286.867188 454.328125 287.09375 C 454.585938 287.3125 454.929688 287.421875 455.359375 287.421875 C 455.960938 287.421875 456.441406 287.214844 456.796875 286.796875 C 457.160156 286.371094 457.34375 285.804688 457.34375 285.09375 L 457.34375 284.859375 Z M 458.421875 284.40625 L 458.421875 288.15625 L 457.34375 288.15625 L 457.34375 287.15625 C 457.09375 287.554688 456.785156 287.851562 456.421875 288.046875 C 456.054688 288.234375 455.609375 288.328125 455.078125 288.328125 C 454.398438 288.328125 453.863281 288.140625 453.46875 287.765625 C 453.070312 287.382812 452.875 286.875 452.875 286.25 C 452.875 285.511719 453.117188 284.953125 453.609375 284.578125 C 454.109375 284.203125 454.847656 284.015625 455.828125 284.015625 L 457.34375 284.015625 L 457.34375 283.90625 C 457.34375 283.40625 457.175781 283.023438 456.84375 282.75 C 456.519531 282.480469 456.066406 282.34375 455.484375 282.34375 C 455.109375 282.34375 454.738281 282.390625 454.375 282.484375 C 454.019531 282.578125 453.679688 282.714844 453.359375 282.890625 L 453.359375 281.890625 C 453.753906 281.734375 454.132812 281.621094 454.5 281.546875 C 454.875 281.476562 455.238281 281.4375 455.59375 281.4375 C 456.539062 281.4375 457.25 281.683594 457.71875 282.171875 C 458.1875 282.664062 458.421875 283.40625 458.421875 284.40625 Z M 463.367188 288.765625 C 463.0625 289.546875 462.765625 290.054688 462.476562 290.296875 C 462.183594 290.535156 461.796875 290.65625 461.320312 290.65625 L 460.460938 290.65625 L 460.460938 289.75 L 461.085938 289.75 C 461.386719 289.75 461.617188 289.675781 461.773438 289.53125 C 461.9375 289.394531 462.121094 289.066406 462.320312 288.546875 L 462.523438 288.046875 L 459.867188 281.59375 L 461.007812 281.59375 L 463.054688 286.71875 L 465.117188 281.59375 L 466.257812 281.59375 Z M 473.359375 284.609375 L 473.359375 285.125 L 468.390625 285.125 C 468.441406 285.875 468.664062 286.445312 469.0625 286.828125 C 469.46875 287.214844 470.023438 287.40625 470.734375 287.40625 C 471.148438 287.40625 471.550781 287.359375 471.9375 287.265625 C 472.332031 287.164062 472.722656 287.007812 473.109375 286.796875 L 473.109375 287.828125 C 472.710938 287.984375 472.3125 288.105469 471.90625 288.1875 C 471.5 288.28125 471.085938 288.328125 470.671875 288.328125 C 469.628906 288.328125 468.800781 288.027344 468.1875 287.421875 C 467.570312 286.808594 467.265625 285.980469 467.265625 284.9375 C 467.265625 283.867188 467.554688 283.015625 468.140625 282.390625 C 468.722656 281.757812 469.503906 281.4375 470.484375 281.4375 C 471.367188 281.4375 472.066406 281.726562 472.578125 282.296875 C 473.097656 282.859375 473.359375 283.632812 473.359375 284.609375 Z M 472.28125 284.28125 C 472.269531 283.699219 472.101562 283.230469 471.78125 282.875 C 471.457031 282.523438 471.03125 282.34375 470.5 282.34375 C 469.894531 282.34375 469.410156 282.515625 469.046875 282.859375 C 468.691406 283.203125 468.488281 283.683594 468.4375 284.296875 Z M 478.929688 282.59375 C 478.804688 282.53125 478.667969 282.484375 478.523438 282.453125 C 478.386719 282.414062 478.230469 282.390625 478.054688 282.390625 C 477.449219 282.390625 476.980469 282.589844 476.648438 282.984375 C 476.324219 283.382812 476.164062 283.953125 476.164062 284.703125 L 476.164062 288.15625 L 475.085938 288.15625 L 475.085938 281.59375 L 476.164062 281.59375 L 476.164062 282.609375 C 476.390625 282.214844 476.6875 281.921875 477.054688 281.734375 C 477.417969 281.539062 477.859375 281.4375 478.382812 281.4375 C 478.453125 281.4375 478.53125 281.445312 478.617188 281.453125 C 478.710938 281.464844 478.808594 281.480469 478.914062 281.5 Z M 484.242188 281.78125 L 484.242188 282.8125 C 483.9375 282.65625 483.621094 282.542969 483.289062 282.46875 C 482.964844 282.386719 482.625 282.34375 482.273438 282.34375 C 481.742188 282.34375 481.339844 282.429688 481.070312 282.59375 C 480.796875 282.75 480.664062 282.996094 480.664062 283.328125 C 480.664062 283.578125 480.757812 283.777344 480.945312 283.921875 C 481.140625 284.058594 481.53125 284.1875 482.117188 284.3125 L 482.476562 284.40625 C 483.246094 284.5625 483.792969 284.792969 484.117188 285.09375 C 484.4375 285.398438 484.601562 285.8125 484.601562 286.34375 C 484.601562 286.960938 484.355469 287.445312 483.867188 287.796875 C 483.386719 288.152344 482.726562 288.328125 481.882812 288.328125 C 481.527344 288.328125 481.15625 288.289062 480.773438 288.21875 C 480.398438 288.15625 480 288.058594 479.585938 287.921875 L 479.585938 286.796875 C 479.980469 287.007812 480.371094 287.164062 480.757812 287.265625 C 481.140625 287.371094 481.527344 287.421875 481.914062 287.421875 C 482.414062 287.421875 482.796875 287.339844 483.070312 287.171875 C 483.351562 286.996094 483.492188 286.746094 483.492188 286.421875 C 483.492188 286.132812 483.390625 285.90625 483.195312 285.75 C 482.996094 285.59375 482.5625 285.445312 481.898438 285.296875 L 481.523438 285.21875 C 480.855469 285.074219 480.371094 284.855469 480.070312 284.5625 C 479.777344 284.273438 479.632812 283.875 479.632812 283.375 C 479.632812 282.75 479.851562 282.273438 480.289062 281.9375 C 480.726562 281.605469 481.34375 281.4375 482.148438 281.4375 C 482.542969 281.4375 482.917969 281.46875 483.273438 281.53125 C 483.625 281.585938 483.949219 281.667969 484.242188 281.78125 Z M 418.6875 277.015625 "/>
<path style=" stroke:none;fill-rule:nonzero;fill:rgb(26.666667%,26.666667%,26.666667%);fill-opacity:1;" d="M 323.125 14.34375 L 335.375 14.34375 L 335.375 16.609375 L 327.5625 26.078125 L 335.609375 26.078125 L 335.609375 28.921875 L 322.90625 28.921875 L 322.90625 26.640625 L 330.71875 17.1875 L 323.125 17.1875 Z M 347.015625 18.328125 L 347.015625 21.171875 C 346.546875 20.851562 346.070312 20.609375 345.59375 20.453125 C 345.113281 20.296875 344.613281 20.21875 344.09375 20.21875 C 343.125 20.21875 342.363281 20.507812 341.8125 21.078125 C 341.269531 21.640625 341 22.4375 341 23.46875 C 341 24.492188 341.269531 25.289062 341.8125 25.859375 C 342.363281 26.421875 343.125 26.703125 344.09375 26.703125 C 344.644531 26.703125 345.164062 26.625 345.65625 26.46875 C 346.144531 26.304688 346.597656 26.058594 347.015625 25.734375 L 347.015625 28.59375 C 346.472656 28.804688 345.921875 28.953125 345.359375 29.046875 C 344.796875 29.148438 344.226562 29.203125 343.65625 29.203125 C 341.6875 29.203125 340.144531 28.699219 339.03125 27.6875 C 337.914062 26.679688 337.359375 25.273438 337.359375 23.46875 C 337.359375 21.65625 337.914062 20.246094 339.03125 19.234375 C 340.144531 18.226562 341.6875 17.71875 343.65625 17.71875 C 344.226562 17.71875 344.789062 17.773438 345.34375 17.875 C 345.90625 17.96875 346.460938 18.121094 347.015625 18.328125 Z M 358.875 18.328125 L 358.875 21.171875 C 358.40625 20.851562 357.929688 20.609375 357.453125 20.453125 C 356.972656 20.296875 356.472656 20.21875 355.953125 20.21875 C 354.984375 20.21875 354.222656 20.507812 353.671875 21.078125 C 353.128906 21.640625 352.859375 22.4375 352.859375 23.46875 C 352.859375 24.492188 353.128906 25.289062 353.671875 25.859375 C 354.222656 26.421875 354.984375 26.703125 355.953125 26.703125 C 356.503906 26.703125 357.023438 26.625 357.515625 26.46875 C 358.003906 26.304688 358.457031 26.058594 358.875 25.734375 L 358.875 28.59375 C 358.332031 28.804688 357.78125 28.953125 357.21875 29.046875 C 356.65625 29.148438 356.085938 29.203125 355.515625 29.203125 C 353.546875 29.203125 352.003906 28.699219 350.890625 27.6875 C 349.773438 26.679688 349.21875 25.273438 349.21875 23.46875 C 349.21875 21.65625 349.773438 20.246094 350.890625 19.234375 C 352.003906 18.226562 353.546875 17.71875 355.515625 17.71875 C 356.085938 17.71875 356.648438 17.773438 357.203125 17.875 C 357.765625 17.96875 358.320312 18.121094 358.875 18.328125 Z M 370.898438 26.265625 L 365.023438 26.265625 L 364.085938 28.921875 L 360.304688 28.921875 L 365.710938 14.34375 L 370.195312 14.34375 L 375.585938 28.921875 L 371.820312 28.921875 Z M 365.960938 23.5625 L 369.945312 23.5625 L 367.960938 17.765625 Z M 384.566406 13.71875 L 384.566406 16.015625 L 382.628906 16.015625 C 382.136719 16.015625 381.792969 16.109375 381.597656 16.296875 C 381.398438 16.476562 381.300781 16.78125 381.300781 17.21875 L 381.300781 17.984375 L 384.300781 17.984375 L 384.300781 20.484375 L 381.300781 20.484375 L 381.300781 28.921875 L 377.816406 28.921875 L 377.816406 20.484375 L 376.066406 20.484375 L 376.066406 17.984375 L 377.816406 17.984375 L 377.816406 17.21875 C 377.816406 16.03125 378.144531 15.152344 378.800781 14.578125 C 379.464844 14.007812 380.496094 13.71875 381.894531 13.71875 Z M 386.078125 13.71875 L 389.5625 13.71875 L 389.5625 22 L 393.59375 17.984375 L 397.65625 17.984375 L 392.3125 23 L 398.078125 28.921875 L 393.828125 28.921875 L 389.5625 24.359375 L 389.5625 28.921875 L 386.078125 28.921875 Z M 412.15625 26.671875 C 412.90625 26.671875 413.476562 26.402344 413.875 25.859375 C 414.269531 25.308594 414.46875 24.511719 414.46875 23.46875 C 414.46875 22.429688 414.269531 21.636719 413.875 21.09375 C 413.476562 20.542969 412.90625 20.265625 412.15625 20.265625 C 411.40625 20.265625 410.828125 20.542969 410.421875 21.09375 C 410.023438 21.636719 409.828125 22.429688 409.828125 23.46875 C 409.828125 24.5 410.023438 25.292969 410.421875 25.84375 C 410.828125 26.398438 411.40625 26.671875 412.15625 26.671875 Z M 409.828125 19.578125 C 410.316406 18.945312 410.851562 18.476562 411.4375 18.171875 C 412.019531 17.871094 412.691406 17.71875 413.453125 17.71875 C 414.804688 17.71875 415.914062 18.257812 416.78125 19.328125 C 417.644531 20.402344 418.078125 21.78125 418.078125 23.46875 C 418.078125 25.148438 417.644531 26.523438 416.78125 27.59375 C 415.914062 28.667969 414.804688 29.203125 413.453125 29.203125 C 412.691406 29.203125 412.019531 29.050781 411.4375 28.75 C 410.851562 28.449219 410.316406 27.980469 409.828125 27.34375 L 409.828125 28.921875 L 406.34375 28.921875 L 406.34375 13.71875 L 409.828125 13.71875 Z M 419.222656 17.984375 L 422.707031 17.984375 L 425.660156 25.40625 L 428.160156 17.984375 L 431.644531 17.984375 L 427.050781 29.953125 C 426.589844 31.171875 426.050781 32.019531 425.425781 32.5 C 424.808594 32.988281 424.003906 33.234375 423.003906 33.234375 L 420.972656 33.234375 L 420.972656 30.9375 L 422.066406 30.9375 C 422.660156 30.9375 423.089844 30.84375 423.363281 30.65625 C 423.632812 30.46875 423.839844 30.128906 423.988281 29.640625 L 424.097656 29.34375 Z M 440.097656 14.34375 L 452.347656 14.34375 L 452.347656 16.609375 L 444.535156 26.078125 L 452.582031 26.078125 L 452.582031 28.921875 L 439.878906 28.921875 L 439.878906 26.640625 L 447.691406 17.1875 L 440.097656 17.1875 Z M 463.992188 18.328125 L 463.992188 21.171875 C 463.523438 20.851562 463.046875 20.609375 462.570312 20.453125 C 462.089844 20.296875 461.589844 20.21875 461.070312 20.21875 C 460.101562 20.21875 459.339844 20.507812 458.789062 21.078125 C 458.246094 21.640625 457.976562 22.4375 457.976562 23.46875 C 457.976562 24.492188 458.246094 25.289062 458.789062 25.859375 C 459.339844 26.421875 460.101562 26.703125 461.070312 26.703125 C 461.621094 26.703125 462.140625 26.625 462.632812 26.46875 C 463.121094 26.304688 463.574219 26.058594 463.992188 25.734375 L 463.992188 28.59375 C 463.449219 28.804688 462.898438 28.953125 462.335938 29.046875 C 461.773438 29.148438 461.203125 29.203125 460.632812 29.203125 C 458.664062 29.203125 457.121094 28.699219 456.007812 27.6875 C 454.890625 26.679688 454.335938 25.273438 454.335938 23.46875 C 454.335938 21.65625 454.890625 20.246094 456.007812 19.234375 C 457.121094 18.226562 458.664062 17.71875 460.632812 17.71875 C 461.203125 17.71875 461.765625 17.773438 462.320312 17.875 C 462.882812 17.96875 463.4375 18.121094 463.992188 18.328125 Z M 475.84375 18.328125 L 475.84375 21.171875 C 475.375 20.851562 474.898438 20.609375 474.421875 20.453125 C 473.941406 20.296875 473.441406 20.21875 472.921875 20.21875 C 471.953125 20.21875 471.191406 20.507812 470.640625 21.078125 C 470.097656 21.640625 469.828125 22.4375 469.828125 23.46875 C 469.828125 24.492188 470.097656 25.289062 470.640625 25.859375 C 471.191406 26.421875 471.953125 26.703125 472.921875 26.703125 C 473.472656 26.703125 473.992188 26.625 474.484375 26.46875 C 474.972656 26.304688 475.425781 26.058594 475.84375 25.734375 L 475.84375 28.59375 C 475.300781 28.804688 474.75 28.953125 474.1875 29.046875 C 473.625 29.148438 473.054688 29.203125 472.484375 29.203125 C 470.515625 29.203125 468.972656 28.699219 467.859375 27.6875 C 466.742188 26.679688 466.1875 25.273438 466.1875 23.46875 C 466.1875 21.65625 466.742188 20.246094 467.859375 19.234375 C 468.972656 18.226562 470.515625 17.71875 472.484375 17.71875 C 473.054688 17.71875 473.617188 17.773438 474.171875 17.875 C 474.734375 17.96875 475.289062 18.121094 475.84375 18.328125 Z M 322 10.359375 "/>
<path style="fill:none;stroke-width:1;stroke-linecap:butt;stroke-linejoin:miter;stroke:rgb(0%,0%,0%);stroke-opacity:0.0980392;stroke-miterlimit:10;" d="M 29 234.5 L 800 234.5 "/>
<path style=" stroke:none;fill-rule:nonzero;fill:rgb(40%,40%,40%);fill-opacity:1;" d="M 95.550781 248.203125 L 100.582031 248.203125 L 100.582031 249.203125 L 96.738281 249.203125 L 96.738281 251.78125 L 100.207031 251.78125 L 100.207031 252.78125 L 96.738281 252.78125 L 96.738281 256.953125 L 95.550781 256.953125 Z M 107.375 253.40625 L 107.375 253.921875 L 102.40625 253.921875 C 102.457031 254.671875 102.679688 255.242188 103.078125 255.625 C 103.484375 256.011719 104.039062 256.203125 104.75 256.203125 C 105.164062 256.203125 105.566406 256.15625 105.953125 256.0625 C 106.347656 255.960938 106.738281 255.804688 107.125 255.59375 L 107.125 256.625 C 106.726562 256.78125 106.328125 256.902344 105.921875 256.984375 C 105.515625 257.078125 105.101562 257.125 104.6875 257.125 C 103.644531 257.125 102.816406 256.824219 102.203125 256.21875 C 101.585938 255.605469 101.28125 254.777344 101.28125 253.734375 C 101.28125 252.664062 101.570312 251.8125 102.15625 251.1875 C 102.738281 250.554688 103.519531 250.234375 104.5 250.234375 C 105.382812 250.234375 106.082031 250.523438 106.59375 251.09375 C 107.113281 251.65625 107.375 252.429688 107.375 253.40625 Z M 106.296875 253.078125 C 106.285156 252.496094 106.117188 252.027344 105.796875 251.671875 C 105.472656 251.320312 105.046875 251.140625 104.515625 251.140625 C 103.910156 251.140625 103.425781 251.3125 103.0625 251.65625 C 102.707031 252 102.503906 252.480469 102.453125 253.09375 Z M 113.851562 253.671875 C 113.851562 252.882812 113.683594 252.261719 113.351562 251.8125 C 113.027344 251.367188 112.585938 251.140625 112.023438 251.140625 C 111.449219 251.140625 110.996094 251.367188 110.664062 251.8125 C 110.339844 252.261719 110.179688 252.882812 110.179688 253.671875 C 110.179688 254.464844 110.339844 255.089844 110.664062 255.546875 C 110.996094 255.996094 111.449219 256.21875 112.023438 256.21875 C 112.585938 256.21875 113.027344 255.996094 113.351562 255.546875 C 113.683594 255.089844 113.851562 254.464844 113.851562 253.671875 Z M 110.179688 251.390625 C 110.40625 250.996094 110.695312 250.703125 111.039062 250.515625 C 111.382812 250.328125 111.792969 250.234375 112.273438 250.234375 C 113.074219 250.234375 113.726562 250.554688 114.226562 251.1875 C 114.726562 251.8125 114.976562 252.640625 114.976562 253.671875 C 114.976562 254.703125 114.726562 255.539062 114.226562 256.171875 C 113.726562 256.808594 113.074219 257.125 112.273438 257.125 C 111.792969 257.125 111.382812 257.03125 111.039062 256.84375 C 110.695312 256.648438 110.40625 256.355469 110.179688 255.96875 L 110.179688 256.953125 L 109.101562 256.953125 L 109.101562 247.828125 L 110.179688 247.828125 Z M 120.921875 255.953125 L 122.859375 255.953125 L 122.859375 249.28125 L 120.75 249.703125 L 120.75 248.625 L 122.84375 248.203125 L 124.03125 248.203125 L 124.03125 255.953125 L 125.96875 255.953125 L 125.96875 256.953125 L 120.921875 256.953125 Z M 128.386719 256.765625 L 128.386719 255.6875 C 128.6875 255.835938 128.988281 255.945312 129.292969 256.015625 C 129.59375 256.089844 129.894531 256.125 130.199219 256.125 C 130.980469 256.125 131.574219 255.867188 131.980469 255.34375 C 132.394531 254.8125 132.628906 254.011719 132.683594 252.9375 C 132.464844 253.28125 132.175781 253.542969 131.824219 253.71875 C 131.480469 253.898438 131.09375 253.984375 130.667969 253.984375 C 129.792969 253.984375 129.097656 253.726562 128.589844 253.203125 C 128.078125 252.671875 127.824219 251.945312 127.824219 251.015625 C 127.824219 250.121094 128.089844 249.402344 128.621094 248.859375 C 129.152344 248.320312 129.859375 248.046875 130.746094 248.046875 C 131.753906 248.046875 132.527344 248.4375 133.058594 249.21875 C 133.597656 249.992188 133.871094 251.117188 133.871094 252.59375 C 133.871094 253.96875 133.542969 255.070312 132.886719 255.890625 C 132.230469 256.714844 131.347656 257.125 130.246094 257.125 C 129.941406 257.125 129.640625 257.09375 129.339844 257.03125 C 129.035156 256.976562 128.71875 256.890625 128.386719 256.765625 Z M 130.746094 253.0625 C 131.277344 253.0625 131.699219 252.882812 132.011719 252.515625 C 132.324219 252.152344 132.480469 251.652344 132.480469 251.015625 C 132.480469 250.390625 132.324219 249.898438 132.011719 249.53125 C 131.699219 249.167969 131.277344 248.984375 130.746094 248.984375 C 130.214844 248.984375 129.792969 249.167969 129.480469 249.53125 C 129.175781 249.898438 129.027344 250.390625 129.027344 251.015625 C 129.027344 251.652344 129.175781 252.152344 129.480469 252.515625 C 129.792969 252.882812 130.214844 253.0625 130.746094 253.0625 Z M 94.378906 245.816406 "/>
<path style=" stroke:none;fill-rule:nonzero;fill:rgb(40%,40%,40%);fill-opacity:1;" d="M 205.957031 248.203125 L 210.988281 248.203125 L 210.988281 249.203125 L 207.144531 249.203125 L 207.144531 251.78125 L 210.613281 251.78125 L 210.613281 252.78125 L 207.144531 252.78125 L 207.144531 256.953125 L 205.957031 256.953125 Z M 217.78125 253.40625 L 217.78125 253.921875 L 212.8125 253.921875 C 212.863281 254.671875 213.085938 255.242188 213.484375 255.625 C 213.890625 256.011719 214.445312 256.203125 215.15625 256.203125 C 215.570312 256.203125 215.972656 256.15625 216.359375 256.0625 C 216.753906 255.960938 217.144531 255.804688 217.53125 255.59375 L 217.53125 256.625 C 217.132812 256.78125 216.734375 256.902344 216.328125 256.984375 C 215.921875 257.078125 215.507812 257.125 215.09375 257.125 C 214.050781 257.125 213.222656 256.824219 212.609375 256.21875 C 211.992188 255.605469 211.6875 254.777344 211.6875 253.734375 C 211.6875 252.664062 211.976562 251.8125 212.5625 251.1875 C 213.144531 250.554688 213.925781 250.234375 214.90625 250.234375 C 215.789062 250.234375 216.488281 250.523438 217 251.09375 C 217.519531 251.65625 217.78125 252.429688 217.78125 253.40625 Z M 216.703125 253.078125 C 216.691406 252.496094 216.523438 252.027344 216.203125 251.671875 C 215.878906 251.320312 215.453125 251.140625 214.921875 251.140625 C 214.316406 251.140625 213.832031 251.3125 213.46875 251.65625 C 213.113281 252 212.910156 252.480469 212.859375 253.09375 Z M 224.257812 253.671875 C 224.257812 252.882812 224.089844 252.261719 223.757812 251.8125 C 223.433594 251.367188 222.992188 251.140625 222.429688 251.140625 C 221.855469 251.140625 221.402344 251.367188 221.070312 251.8125 C 220.746094 252.261719 220.585938 252.882812 220.585938 253.671875 C 220.585938 254.464844 220.746094 255.089844 221.070312 255.546875 C 221.402344 255.996094 221.855469 256.21875 222.429688 256.21875 C 222.992188 256.21875 223.433594 255.996094 223.757812 255.546875 C 224.089844 255.089844 224.257812 254.464844 224.257812 253.671875 Z M 220.585938 251.390625 C 220.8125 250.996094 221.101562 250.703125 221.445312 250.515625 C 221.789062 250.328125 222.199219 250.234375 222.679688 250.234375 C 223.480469 250.234375 224.132812 250.554688 224.632812 251.1875 C 225.132812 251.8125 225.382812 252.640625 225.382812 253.671875 C 225.382812 254.703125 225.132812 255.539062 224.632812 256.171875 C 224.132812 256.808594 223.480469 257.125 222.679688 257.125 C 222.199219 257.125 221.789062 257.03125 221.445312 256.84375 C 221.101562 256.648438 220.8125 256.355469 220.585938 255.96875 L 220.585938 256.953125 L 219.507812 256.953125 L 219.507812 247.828125 L 220.585938 247.828125 Z M 232.140625 255.953125 L 236.28125 255.953125 L 236.28125 256.953125 L 230.71875 256.953125 L 230.71875 255.953125 C 231.164062 255.496094 231.773438 254.875 232.546875 254.09375 C 233.328125 253.304688 233.816406 252.792969 234.015625 252.5625 C 234.398438 252.148438 234.664062 251.792969 234.8125 251.5 C 234.96875 251.199219 235.046875 250.90625 235.046875 250.625 C 235.046875 250.15625 234.878906 249.777344 234.546875 249.484375 C 234.222656 249.195312 233.800781 249.046875 233.28125 249.046875 C 232.90625 249.046875 232.507812 249.109375 232.09375 249.234375 C 231.6875 249.359375 231.25 249.558594 230.78125 249.828125 L 230.78125 248.625 C 231.257812 248.4375 231.703125 248.296875 232.109375 248.203125 C 232.523438 248.101562 232.90625 248.046875 233.25 248.046875 C 234.15625 248.046875 234.878906 248.277344 235.421875 248.734375 C 235.960938 249.183594 236.234375 249.789062 236.234375 250.546875 C 236.234375 250.902344 236.164062 251.242188 236.03125 251.5625 C 235.894531 251.886719 235.648438 252.265625 235.296875 252.703125 C 235.191406 252.820312 234.878906 253.148438 234.359375 253.6875 C 233.835938 254.230469 233.097656 254.984375 232.140625 255.953125 Z M 241.292969 248.984375 C 240.6875 248.984375 240.230469 249.289062 239.917969 249.890625 C 239.613281 250.484375 239.464844 251.386719 239.464844 252.59375 C 239.464844 253.792969 239.613281 254.695312 239.917969 255.296875 C 240.230469 255.890625 240.6875 256.1875 241.292969 256.1875 C 241.90625 256.1875 242.363281 255.890625 242.667969 255.296875 C 242.980469 254.695312 243.136719 253.792969 243.136719 252.59375 C 243.136719 251.386719 242.980469 250.484375 242.667969 249.890625 C 242.363281 249.289062 241.90625 248.984375 241.292969 248.984375 Z M 241.292969 248.046875 C 242.269531 248.046875 243.019531 248.4375 243.542969 249.21875 C 244.0625 249.992188 244.324219 251.117188 244.324219 252.59375 C 244.324219 254.0625 244.0625 255.1875 243.542969 255.96875 C 243.019531 256.742188 242.269531 257.125 241.292969 257.125 C 240.3125 257.125 239.5625 256.742188 239.042969 255.96875 C 238.53125 255.1875 238.277344 254.0625 238.277344 252.59375 C 238.277344 251.117188 238.53125 249.992188 239.042969 249.21875 C 239.5625 248.4375 240.3125 248.046875 241.292969 248.046875 Z M 204.785156 245.816406 "/>
<path style=" stroke:none;fill-rule:nonzero;fill:rgb(40%,40%,40%);fill-opacity:1;" d="M 316.367188 248.203125 L 321.398438 248.203125 L 321.398438 249.203125 L 317.554688 249.203125 L 317.554688 251.78125 L 321.023438 251.78125 L 321.023438 252.78125 L 317.554688 252.78125 L 317.554688 256.953125 L 316.367188 256.953125 Z M 328.191406 253.40625 L 328.191406 253.921875 L 323.222656 253.921875 C 323.273438 254.671875 323.496094 255.242188 323.894531 255.625 C 324.300781 256.011719 324.855469 256.203125 325.566406 256.203125 C 325.980469 256.203125 326.382812 256.15625 326.769531 256.0625 C 327.164062 255.960938 327.554688 255.804688 327.941406 255.59375 L 327.941406 256.625 C 327.542969 256.78125 327.144531 256.902344 326.738281 256.984375 C 326.332031 257.078125 325.917969 257.125 325.503906 257.125 C 324.460938 257.125 323.632812 256.824219 323.019531 256.21875 C 322.402344 255.605469 322.097656 254.777344 322.097656 253.734375 C 322.097656 252.664062 322.386719 251.8125 322.972656 251.1875 C 323.554688 250.554688 324.335938 250.234375 325.316406 250.234375 C 326.199219 250.234375 326.898438 250.523438 327.410156 251.09375 C 327.929688 251.65625 328.191406 252.429688 328.191406 253.40625 Z M 327.113281 253.078125 C 327.101562 252.496094 326.933594 252.027344 326.613281 251.671875 C 326.289062 251.320312 325.863281 251.140625 325.332031 251.140625 C 324.726562 251.140625 324.242188 251.3125 323.878906 251.65625 C 323.523438 252 323.320312 252.480469 323.269531 253.09375 Z M 334.667969 253.671875 C 334.667969 252.882812 334.5 252.261719 334.167969 251.8125 C 333.84375 251.367188 333.402344 251.140625 332.839844 251.140625 C 332.265625 251.140625 331.8125 251.367188 331.480469 251.8125 C 331.15625 252.261719 330.996094 252.882812 330.996094 253.671875 C 330.996094 254.464844 331.15625 255.089844 331.480469 255.546875 C 331.8125 255.996094 332.265625 256.21875 332.839844 256.21875 C 333.402344 256.21875 333.84375 255.996094 334.167969 255.546875 C 334.5 255.089844 334.667969 254.464844 334.667969 253.671875 Z M 330.996094 251.390625 C 331.222656 250.996094 331.511719 250.703125 331.855469 250.515625 C 332.199219 250.328125 332.609375 250.234375 333.089844 250.234375 C 333.890625 250.234375 334.542969 250.554688 335.042969 251.1875 C 335.542969 251.8125 335.792969 252.640625 335.792969 253.671875 C 335.792969 254.703125 335.542969 255.539062 335.042969 256.171875 C 334.542969 256.808594 333.890625 257.125 333.089844 257.125 C 332.609375 257.125 332.199219 257.03125 331.855469 256.84375 C 331.511719 256.648438 331.222656 256.355469 330.996094 255.96875 L 330.996094 256.953125 L 329.917969 256.953125 L 329.917969 247.828125 L 330.996094 247.828125 Z M 342.554688 255.953125 L 346.695312 255.953125 L 346.695312 256.953125 L 341.132812 256.953125 L 341.132812 255.953125 C 341.578125 255.496094 342.1875 254.875 342.960938 254.09375 C 343.742188 253.304688 344.230469 252.792969 344.429688 252.5625 C 344.8125 252.148438 345.078125 251.792969 345.226562 251.5 C 345.382812 251.199219 345.460938 250.90625 345.460938 250.625 C 345.460938 250.15625 345.292969 249.777344 344.960938 249.484375 C 344.636719 249.195312 344.214844 249.046875 343.695312 249.046875 C 343.320312 249.046875 342.921875 249.109375 342.507812 249.234375 C 342.101562 249.359375 341.664062 249.558594 341.195312 249.828125 L 341.195312 248.625 C 341.671875 248.4375 342.117188 248.296875 342.523438 248.203125 C 342.9375 248.101562 343.320312 248.046875 343.664062 248.046875 C 344.570312 248.046875 345.292969 248.277344 345.835938 248.734375 C 346.375 249.183594 346.648438 249.789062 346.648438 250.546875 C 346.648438 250.902344 346.578125 251.242188 346.445312 251.5625 C 346.308594 251.886719 346.0625 252.265625 345.710938 252.703125 C 345.605469 252.820312 345.292969 253.148438 344.773438 253.6875 C 344.25 254.230469 343.511719 254.984375 342.554688 255.953125 Z M 349.375 255.953125 L 351.3125 255.953125 L 351.3125 249.28125 L 349.203125 249.703125 L 349.203125 248.625 L 351.296875 248.203125 L 352.484375 248.203125 L 352.484375 255.953125 L 354.421875 255.953125 L 354.421875 256.953125 L 349.375 256.953125 Z M 315.195312 245.816406 "/>
<path style=" stroke:none;fill-rule:nonzero;fill:rgb(40%,40%,40%);fill-opacity:1;" d="M 426.777344 248.203125 L 431.808594 248.203125 L 431.808594 249.203125 L 427.964844 249.203125 L 427.964844 251.78125 L 431.433594 251.78125 L 431.433594 252.78125 L 427.964844 252.78125 L 427.964844 256.953125 L 426.777344 256.953125 Z M 438.601562 253.40625 L 438.601562 253.921875 L 433.632812 253.921875 C 433.683594 254.671875 433.90625 255.242188 434.304688 255.625 C 434.710938 256.011719 435.265625 256.203125 435.976562 256.203125 C 436.390625 256.203125 436.792969 256.15625 437.179688 256.0625 C 437.574219 255.960938 437.964844 255.804688 438.351562 255.59375 L 438.351562 256.625 C 437.953125 256.78125 437.554688 256.902344 437.148438 256.984375 C 436.742188 257.078125 436.328125 257.125 435.914062 257.125 C 434.871094 257.125 434.042969 256.824219 433.429688 256.21875 C 432.8125 255.605469 432.507812 254.777344 432.507812 253.734375 C 432.507812 252.664062 432.796875 251.8125 433.382812 251.1875 C 433.964844 250.554688 434.746094 250.234375 435.726562 250.234375 C 436.609375 250.234375 437.308594 250.523438 437.820312 251.09375 C 438.339844 251.65625 438.601562 252.429688 438.601562 253.40625 Z M 437.523438 253.078125 C 437.511719 252.496094 437.34375 252.027344 437.023438 251.671875 C 436.699219 251.320312 436.273438 251.140625 435.742188 251.140625 C 435.136719 251.140625 434.652344 251.3125 434.289062 251.65625 C 433.933594 252 433.730469 252.480469 433.679688 253.09375 Z M 445.078125 253.671875 C 445.078125 252.882812 444.910156 252.261719 444.578125 251.8125 C 444.253906 251.367188 443.8125 251.140625 443.25 251.140625 C 442.675781 251.140625 442.222656 251.367188 441.890625 251.8125 C 441.566406 252.261719 441.40625 252.882812 441.40625 253.671875 C 441.40625 254.464844 441.566406 255.089844 441.890625 255.546875 C 442.222656 255.996094 442.675781 256.21875 443.25 256.21875 C 443.8125 256.21875 444.253906 255.996094 444.578125 255.546875 C 444.910156 255.089844 445.078125 254.464844 445.078125 253.671875 Z M 441.40625 251.390625 C 441.632812 250.996094 441.921875 250.703125 442.265625 250.515625 C 442.609375 250.328125 443.019531 250.234375 443.5 250.234375 C 444.300781 250.234375 444.953125 250.554688 445.453125 251.1875 C 445.953125 251.8125 446.203125 252.640625 446.203125 253.671875 C 446.203125 254.703125 445.953125 255.539062 445.453125 256.171875 C 444.953125 256.808594 444.300781 257.125 443.5 257.125 C 443.019531 257.125 442.609375 257.03125 442.265625 256.84375 C 441.921875 256.648438 441.632812 256.355469 441.40625 255.96875 L 441.40625 256.953125 L 440.328125 256.953125 L 440.328125 247.828125 L 441.40625 247.828125 Z M 452.960938 255.953125 L 457.101562 255.953125 L 457.101562 256.953125 L 451.539062 256.953125 L 451.539062 255.953125 C 451.984375 255.496094 452.59375 254.875 453.367188 254.09375 C 454.148438 253.304688 454.636719 252.792969 454.835938 252.5625 C 455.21875 252.148438 455.484375 251.792969 455.632812 251.5 C 455.789062 251.199219 455.867188 250.90625 455.867188 250.625 C 455.867188 250.15625 455.699219 249.777344 455.367188 249.484375 C 455.042969 249.195312 454.621094 249.046875 454.101562 249.046875 C 453.726562 249.046875 453.328125 249.109375 452.914062 249.234375 C 452.507812 249.359375 452.070312 249.558594 451.601562 249.828125 L 451.601562 248.625 C 452.078125 248.4375 452.523438 248.296875 452.929688 248.203125 C 453.34375 248.101562 453.726562 248.046875 454.070312 248.046875 C 454.976562 248.046875 455.699219 248.277344 456.242188 248.734375 C 456.78125 249.183594 457.054688 249.789062 457.054688 250.546875 C 457.054688 250.902344 456.984375 251.242188 456.851562 251.5625 C 456.714844 251.886719 456.46875 252.265625 456.117188 252.703125 C 456.011719 252.820312 455.699219 253.148438 455.179688 253.6875 C 454.65625 254.230469 453.917969 254.984375 452.960938 255.953125 Z M 460.597656 255.953125 L 464.738281 255.953125 L 464.738281 256.953125 L 459.175781 256.953125 L 459.175781 255.953125 C 459.621094 255.496094 460.230469 254.875 461.003906 254.09375 C 461.785156 253.304688 462.273438 252.792969 462.472656 252.5625 C 462.855469 252.148438 463.121094 251.792969 463.269531 251.5 C 463.425781 251.199219 463.503906 250.90625 463.503906 250.625 C 463.503906 250.15625 463.335938 249.777344 463.003906 249.484375 C 462.679688 249.195312 462.257812 249.046875 461.738281 249.046875 C 461.363281 249.046875 460.964844 249.109375 460.550781 249.234375 C 460.144531 249.359375 459.707031 249.558594 459.238281 249.828125 L 459.238281 248.625 C 459.714844 248.4375 460.160156 248.296875 460.566406 248.203125 C 460.980469 248.101562 461.363281 248.046875 461.707031 248.046875 C 462.613281 248.046875 463.335938 248.277344 463.878906 248.734375 C 464.417969 249.183594 464.691406 249.789062 464.691406 250.546875 C 464.691406 250.902344 464.621094 251.242188 464.488281 251.5625 C 464.351562 251.886719 464.105469 252.265625 463.753906 252.703125 C 463.648438 252.820312 463.335938 253.148438 462.816406 253.6875 C 462.292969 254.230469 461.554688 254.984375 460.597656 255.953125 Z M 425.605469 245.816406 "/>
<path style=" stroke:none;fill-rule:nonzero;fill:rgb(40%,40%,40%);fill-opacity:1;" d="M 537.1875 248.203125 L 542.21875 248.203125 L 542.21875 249.203125 L 538.375 249.203125 L 538.375 251.78125 L 541.84375 251.78125 L 541.84375 252.78125 L 538.375 252.78125 L 538.375 256.953125 L 537.1875 256.953125 Z M 549.011719 253.40625 L 549.011719 253.921875 L 544.042969 253.921875 C 544.09375 254.671875 544.316406 255.242188 544.714844 255.625 C 545.121094 256.011719 545.675781 256.203125 546.386719 256.203125 C 546.800781 256.203125 547.203125 256.15625 547.589844 256.0625 C 547.984375 255.960938 548.375 255.804688 548.761719 255.59375 L 548.761719 256.625 C 548.363281 256.78125 547.964844 256.902344 547.558594 256.984375 C 547.152344 257.078125 546.738281 257.125 546.324219 257.125 C 545.28125 257.125 544.453125 256.824219 543.839844 256.21875 C 543.222656 255.605469 542.917969 254.777344 542.917969 253.734375 C 542.917969 252.664062 543.207031 251.8125 543.792969 251.1875 C 544.375 250.554688 545.15625 250.234375 546.136719 250.234375 C 547.019531 250.234375 547.71875 250.523438 548.230469 251.09375 C 548.75 251.65625 549.011719 252.429688 549.011719 253.40625 Z M 547.933594 253.078125 C 547.921875 252.496094 547.753906 252.027344 547.433594 251.671875 C 547.109375 251.320312 546.683594 251.140625 546.152344 251.140625 C 545.546875 251.140625 545.0625 251.3125 544.699219 251.65625 C 544.34375 252 544.140625 252.480469 544.089844 253.09375 Z M 555.488281 253.671875 C 555.488281 252.882812 555.320312 252.261719 554.988281 251.8125 C 554.664062 251.367188 554.222656 251.140625 553.660156 251.140625 C 553.085938 251.140625 552.632812 251.367188 552.300781 251.8125 C 551.976562 252.261719 551.816406 252.882812 551.816406 253.671875 C 551.816406 254.464844 551.976562 255.089844 552.300781 255.546875 C 552.632812 255.996094 553.085938 256.21875 553.660156 256.21875 C 554.222656 256.21875 554.664062 255.996094 554.988281 255.546875 C 555.320312 255.089844 555.488281 254.464844 555.488281 253.671875 Z M 551.816406 251.390625 C 552.042969 250.996094 552.332031 250.703125 552.675781 250.515625 C 553.019531 250.328125 553.429688 250.234375 553.910156 250.234375 C 554.710938 250.234375 555.363281 250.554688 555.863281 251.1875 C 556.363281 251.8125 556.613281 252.640625 556.613281 253.671875 C 556.613281 254.703125 556.363281 255.539062 555.863281 256.171875 C 555.363281 256.808594 554.710938 257.125 553.910156 257.125 C 553.429688 257.125 553.019531 257.03125 552.675781 256.84375 C 552.332031 256.648438 552.042969 256.355469 551.816406 255.96875 L 551.816406 256.953125 L 550.738281 256.953125 L 550.738281 247.828125 L 551.816406 247.828125 Z M 563.375 255.953125 L 567.515625 255.953125 L 567.515625 256.953125 L 561.953125 256.953125 L 561.953125 255.953125 C 562.398438 255.496094 563.007812 254.875 563.78125 254.09375 C 564.5625 253.304688 565.050781 252.792969 565.25 252.5625 C 565.632812 252.148438 565.898438 251.792969 566.046875 251.5 C 566.203125 251.199219 566.28125 250.90625 566.28125 250.625 C 566.28125 250.15625 566.113281 249.777344 565.78125 249.484375 C 565.457031 249.195312 565.035156 249.046875 564.515625 249.046875 C 564.140625 249.046875 563.742188 249.109375 563.328125 249.234375 C 562.921875 249.359375 562.484375 249.558594 562.015625 249.828125 L 562.015625 248.625 C 562.492188 248.4375 562.9375 248.296875 563.34375 248.203125 C 563.757812 248.101562 564.140625 248.046875 564.484375 248.046875 C 565.390625 248.046875 566.113281 248.277344 566.65625 248.734375 C 567.195312 249.183594 567.46875 249.789062 567.46875 250.546875 C 567.46875 250.902344 567.398438 251.242188 567.265625 251.5625 C 567.128906 251.886719 566.882812 252.265625 566.53125 252.703125 C 566.425781 252.820312 566.113281 253.148438 565.59375 253.6875 C 565.070312 254.230469 564.332031 254.984375 563.375 255.953125 Z M 573.585938 252.234375 C 574.148438 252.359375 574.585938 252.617188 574.898438 253 C 575.21875 253.375 575.382812 253.84375 575.382812 254.40625 C 575.382812 255.273438 575.085938 255.945312 574.492188 256.421875 C 573.898438 256.890625 573.054688 257.125 571.960938 257.125 C 571.59375 257.125 571.214844 257.085938 570.820312 257.015625 C 570.433594 256.945312 570.039062 256.835938 569.632812 256.6875 L 569.632812 255.546875 C 569.953125 255.734375 570.308594 255.882812 570.695312 255.984375 C 571.089844 256.078125 571.5 256.125 571.929688 256.125 C 572.667969 256.125 573.230469 255.980469 573.617188 255.6875 C 574.011719 255.398438 574.210938 254.96875 574.210938 254.40625 C 574.210938 253.898438 574.027344 253.496094 573.664062 253.203125 C 573.296875 252.914062 572.796875 252.765625 572.164062 252.765625 L 571.132812 252.765625 L 571.132812 251.796875 L 572.210938 251.796875 C 572.78125 251.796875 573.226562 251.683594 573.539062 251.453125 C 573.851562 251.214844 574.007812 250.875 574.007812 250.4375 C 574.007812 249.992188 573.84375 249.648438 573.523438 249.40625 C 573.210938 249.167969 572.757812 249.046875 572.164062 249.046875 C 571.828125 249.046875 571.476562 249.085938 571.101562 249.15625 C 570.734375 249.21875 570.328125 249.324219 569.882812 249.46875 L 569.882812 248.421875 C 570.339844 248.296875 570.761719 248.203125 571.148438 248.140625 C 571.542969 248.078125 571.914062 248.046875 572.257812 248.046875 C 573.164062 248.046875 573.875 248.25 574.398438 248.65625 C 574.917969 249.0625 575.179688 249.617188 575.179688 250.3125 C 575.179688 250.804688 575.039062 251.214844 574.757812 251.546875 C 574.484375 251.882812 574.09375 252.109375 573.585938 252.234375 Z M 536.015625 245.816406 "/>
<path style=" stroke:none;fill-rule:nonzero;fill:rgb(40%,40%,40%);fill-opacity:1;" d="M 647.597656 248.203125 L 652.628906 248.203125 L 652.628906 249.203125 L 648.785156 249.203125 L 648.785156 251.78125 L 652.253906 251.78125 L 652.253906 252.78125 L 648.785156 252.78125 L 648.785156 256.953125 L 647.597656 256.953125 Z M 659.421875 253.40625 L 659.421875 253.921875 L 654.453125 253.921875 C 654.503906 254.671875 654.726562 255.242188 655.125 255.625 C 655.53125 256.011719 656.085938 256.203125 656.796875 256.203125 C 657.210938 256.203125 657.613281 256.15625 658 256.0625 C 658.394531 255.960938 658.785156 255.804688 659.171875 255.59375 L 659.171875 256.625 C 658.773438 256.78125 658.375 256.902344 657.96875 256.984375 C 657.5625 257.078125 657.148438 257.125 656.734375 257.125 C 655.691406 257.125 654.863281 256.824219 654.25 256.21875 C 653.632812 255.605469 653.328125 254.777344 653.328125 253.734375 C 653.328125 252.664062 653.617188 251.8125 654.203125 251.1875 C 654.785156 250.554688 655.566406 250.234375 656.546875 250.234375 C 657.429688 250.234375 658.128906 250.523438 658.640625 251.09375 C 659.160156 251.65625 659.421875 252.429688 659.421875 253.40625 Z M 658.34375 253.078125 C 658.332031 252.496094 658.164062 252.027344 657.84375 251.671875 C 657.519531 251.320312 657.09375 251.140625 656.5625 251.140625 C 655.957031 251.140625 655.472656 251.3125 655.109375 251.65625 C 654.753906 252 654.550781 252.480469 654.5 253.09375 Z M 665.898438 253.671875 C 665.898438 252.882812 665.730469 252.261719 665.398438 251.8125 C 665.074219 251.367188 664.632812 251.140625 664.070312 251.140625 C 663.496094 251.140625 663.042969 251.367188 662.710938 251.8125 C 662.386719 252.261719 662.226562 252.882812 662.226562 253.671875 C 662.226562 254.464844 662.386719 255.089844 662.710938 255.546875 C 663.042969 255.996094 663.496094 256.21875 664.070312 256.21875 C 664.632812 256.21875 665.074219 255.996094 665.398438 255.546875 C 665.730469 255.089844 665.898438 254.464844 665.898438 253.671875 Z M 662.226562 251.390625 C 662.453125 250.996094 662.742188 250.703125 663.085938 250.515625 C 663.429688 250.328125 663.839844 250.234375 664.320312 250.234375 C 665.121094 250.234375 665.773438 250.554688 666.273438 251.1875 C 666.773438 251.8125 667.023438 252.640625 667.023438 253.671875 C 667.023438 254.703125 666.773438 255.539062 666.273438 256.171875 C 665.773438 256.808594 665.121094 257.125 664.320312 257.125 C 663.839844 257.125 663.429688 257.03125 663.085938 256.84375 C 662.742188 256.648438 662.453125 256.355469 662.226562 255.96875 L 662.226562 256.953125 L 661.148438 256.953125 L 661.148438 247.828125 L 662.226562 247.828125 Z M 673.78125 255.953125 L 677.921875 255.953125 L 677.921875 256.953125 L 672.359375 256.953125 L 672.359375 255.953125 C 672.804688 255.496094 673.414062 254.875 674.1875 254.09375 C 674.96875 253.304688 675.457031 252.792969 675.65625 252.5625 C 676.039062 252.148438 676.304688 251.792969 676.453125 251.5 C 676.609375 251.199219 676.6875 250.90625 676.6875 250.625 C 676.6875 250.15625 676.519531 249.777344 676.1875 249.484375 C 675.863281 249.195312 675.441406 249.046875 674.921875 249.046875 C 674.546875 249.046875 674.148438 249.109375 673.734375 249.234375 C 673.328125 249.359375 672.890625 249.558594 672.421875 249.828125 L 672.421875 248.625 C 672.898438 248.4375 673.34375 248.296875 673.75 248.203125 C 674.164062 248.101562 674.546875 248.046875 674.890625 248.046875 C 675.796875 248.046875 676.519531 248.277344 677.0625 248.734375 C 677.601562 249.183594 677.875 249.789062 677.875 250.546875 C 677.875 250.902344 677.804688 251.242188 677.671875 251.5625 C 677.535156 251.886719 677.289062 252.265625 676.9375 252.703125 C 676.832031 252.820312 676.519531 253.148438 676 253.6875 C 675.476562 254.230469 674.738281 254.984375 673.78125 255.953125 Z M 683.652344 249.234375 L 680.667969 253.90625 L 683.652344 253.90625 Z M 683.339844 248.203125 L 684.839844 248.203125 L 684.839844 253.90625 L 686.089844 253.90625 L 686.089844 254.890625 L 684.839844 254.890625 L 684.839844 256.953125 L 683.652344 256.953125 L 683.652344 254.890625 L 679.714844 254.890625 L 679.714844 253.75 Z M 646.425781 245.816406 "/>
<path style=" stroke:none;fill-rule:nonzero;fill:rgb(40%,40%,40%);fill-opacity:1;" d="M 758.007812 248.203125 L 763.039062 248.203125 L 763.039062 249.203125 L 759.195312 249.203125 L 759.195312 251.78125 L 762.664062 251.78125 L 762.664062 252.78125 L 759.195312 252.78125 L 759.195312 256.953125 L 758.007812 256.953125 Z M 769.832031 253.40625 L 769.832031 253.921875 L 764.863281 253.921875 C 764.914062 254.671875 765.136719 255.242188 765.535156 255.625 C 765.941406 256.011719 766.496094 256.203125 767.207031 256.203125 C 767.621094 256.203125 768.023438 256.15625 768.410156 256.0625 C 768.804688 255.960938 769.195312 255.804688 769.582031 255.59375 L 769.582031 256.625 C 769.183594 256.78125 768.785156 256.902344 768.378906 256.984375 C 767.972656 257.078125 767.558594 257.125 767.144531 257.125 C 766.101562 257.125 765.273438 256.824219 764.660156 256.21875 C 764.042969 255.605469 763.738281 254.777344 763.738281 253.734375 C 763.738281 252.664062 764.027344 251.8125 764.613281 251.1875 C 765.195312 250.554688 765.976562 250.234375 766.957031 250.234375 C 767.839844 250.234375 768.539062 250.523438 769.050781 251.09375 C 769.570312 251.65625 769.832031 252.429688 769.832031 253.40625 Z M 768.753906 253.078125 C 768.742188 252.496094 768.574219 252.027344 768.253906 251.671875 C 767.929688 251.320312 767.503906 251.140625 766.972656 251.140625 C 766.367188 251.140625 765.882812 251.3125 765.519531 251.65625 C 765.164062 252 764.960938 252.480469 764.910156 253.09375 Z M 776.308594 253.671875 C 776.308594 252.882812 776.140625 252.261719 775.808594 251.8125 C 775.484375 251.367188 775.042969 251.140625 774.480469 251.140625 C 773.90625 251.140625 773.453125 251.367188 773.121094 251.8125 C 772.796875 252.261719 772.636719 252.882812 772.636719 253.671875 C 772.636719 254.464844 772.796875 255.089844 773.121094 255.546875 C 773.453125 255.996094 773.90625 256.21875 774.480469 256.21875 C 775.042969 256.21875 775.484375 255.996094 775.808594 255.546875 C 776.140625 255.089844 776.308594 254.464844 776.308594 253.671875 Z M 772.636719 251.390625 C 772.863281 250.996094 773.152344 250.703125 773.496094 250.515625 C 773.839844 250.328125 774.25 250.234375 774.730469 250.234375 C 775.53125 250.234375 776.183594 250.554688 776.683594 251.1875 C 777.183594 251.8125 777.433594 252.640625 777.433594 253.671875 C 777.433594 254.703125 777.183594 255.539062 776.683594 256.171875 C 776.183594 256.808594 775.53125 257.125 774.730469 257.125 C 774.25 257.125 773.839844 257.03125 773.496094 256.84375 C 773.152344 256.648438 772.863281 256.355469 772.636719 255.96875 L 772.636719 256.953125 L 771.558594 256.953125 L 771.558594 247.828125 L 772.636719 247.828125 Z M 784.195312 255.953125 L 788.335938 255.953125 L 788.335938 256.953125 L 782.773438 256.953125 L 782.773438 255.953125 C 783.21875 255.496094 783.828125 254.875 784.601562 254.09375 C 785.382812 253.304688 785.871094 252.792969 786.070312 252.5625 C 786.453125 252.148438 786.71875 251.792969 786.867188 251.5 C 787.023438 251.199219 787.101562 250.90625 787.101562 250.625 C 787.101562 250.15625 786.933594 249.777344 786.601562 249.484375 C 786.277344 249.195312 785.855469 249.046875 785.335938 249.046875 C 784.960938 249.046875 784.5625 249.109375 784.148438 249.234375 C 783.742188 249.359375 783.304688 249.558594 782.835938 249.828125 L 782.835938 248.625 C 783.3125 248.4375 783.757812 248.296875 784.164062 248.203125 C 784.578125 248.101562 784.960938 248.046875 785.304688 248.046875 C 786.210938 248.046875 786.933594 248.277344 787.476562 248.734375 C 788.015625 249.183594 788.289062 249.789062 788.289062 250.546875 C 788.289062 250.902344 788.21875 251.242188 788.085938 251.5625 C 787.949219 251.886719 787.703125 252.265625 787.351562 252.703125 C 787.246094 252.820312 786.933594 253.148438 786.414062 253.6875 C 785.890625 254.230469 785.152344 254.984375 784.195312 255.953125 Z M 790.828125 248.203125 L 795.46875 248.203125 L 795.46875 249.203125 L 791.90625 249.203125 L 791.90625 251.34375 C 792.082031 251.28125 792.253906 251.242188 792.421875 251.21875 C 792.597656 251.1875 792.769531 251.171875 792.9375 251.171875 C 793.914062 251.171875 794.691406 251.445312 795.265625 251.984375 C 795.835938 252.515625 796.125 253.234375 796.125 254.140625 C 796.125 255.089844 795.828125 255.824219 795.234375 256.34375 C 794.648438 256.867188 793.828125 257.125 792.765625 257.125 C 792.390625 257.125 792.007812 257.09375 791.625 257.03125 C 791.25 256.96875 790.859375 256.875 790.453125 256.75 L 790.453125 255.5625 C 790.804688 255.75 791.171875 255.890625 791.546875 255.984375 C 791.921875 256.078125 792.316406 256.125 792.734375 256.125 C 793.410156 256.125 793.945312 255.949219 794.34375 255.59375 C 794.738281 255.242188 794.9375 254.757812 794.9375 254.140625 C 794.9375 253.539062 794.738281 253.058594 794.34375 252.703125 C 793.945312 252.351562 793.410156 252.171875 792.734375 252.171875 C 792.421875 252.171875 792.101562 252.210938 791.78125 252.28125 C 791.46875 252.34375 791.148438 252.449219 790.828125 252.59375 Z M 756.835938 245.816406 "/>
<path style="fill:none;stroke-width:1;stroke-linecap:butt;stroke-linejoin:miter;stroke:rgb(0%,0%,0%);stroke-opacity:0.0980392;stroke-miterlimit:10;" d="M 29.5 44 L 29.5 235 "/>
<path style=" stroke:none;fill-rule:nonzero;fill:rgb(40%,40%,40%);fill-opacity:1;" d="M 14.082031 230.789062 C 13.476562 230.789062 13.019531 231.09375 12.707031 231.695312 C 12.402344 232.289062 12.253906 233.191406 12.253906 234.398438 C 12.253906 235.597656 12.402344 236.5 12.707031 237.101562 C 13.019531 237.695312 13.476562 237.992188 14.082031 237.992188 C 14.695312 237.992188 15.152344 237.695312 15.457031 237.101562 C 15.769531 236.5 15.925781 235.597656 15.925781 234.398438 C 15.925781 233.191406 15.769531 232.289062 15.457031 231.695312 C 15.152344 231.09375 14.695312 230.789062 14.082031 230.789062 Z M 14.082031 229.851562 C 15.058594 229.851562 15.808594 230.242188 16.332031 231.023438 C 16.851562 231.796875 17.113281 232.921875 17.113281 234.398438 C 17.113281 235.867188 16.851562 236.992188 16.332031 237.773438 C 15.808594 238.546875 15.058594 238.929688 14.082031 238.929688 C 13.101562 238.929688 12.351562 238.546875 11.832031 237.773438 C 11.320312 236.992188 11.066406 235.867188 11.066406 234.398438 C 11.066406 232.921875 11.320312 231.796875 11.832031 231.023438 C 12.351562 230.242188 13.101562 229.851562 14.082031 229.851562 Z M 10.269531 227.617188 "/>
<path style=" stroke:none;fill-rule:nonzero;fill:rgb(40%,40%,40%);fill-opacity:1;" d="M 3.753906 190.101562 L 5.691406 190.101562 L 5.691406 183.429688 L 3.582031 183.851562 L 3.582031 182.773438 L 5.675781 182.351562 L 6.863281 182.351562 L 6.863281 190.101562 L 8.800781 190.101562 L 8.800781 191.101562 L 3.753906 191.101562 Z M 13.71875 183.132812 C 13.113281 183.132812 12.65625 183.4375 12.34375 184.039062 C 12.039062 184.632812 11.890625 185.535156 11.890625 186.742188 C 11.890625 187.941406 12.039062 188.84375 12.34375 189.445312 C 12.65625 190.039062 13.113281 190.335938 13.71875 190.335938 C 14.332031 190.335938 14.789062 190.039062 15.09375 189.445312 C 15.40625 188.84375 15.5625 187.941406 15.5625 186.742188 C 15.5625 185.535156 15.40625 184.632812 15.09375 184.039062 C 14.789062 183.4375 14.332031 183.132812 13.71875 183.132812 Z M 13.71875 182.195312 C 14.695312 182.195312 15.445312 182.585938 15.96875 183.367188 C 16.488281 184.140625 16.75 185.265625 16.75 186.742188 C 16.75 188.210938 16.488281 189.335938 15.96875 190.117188 C 15.445312 190.890625 14.695312 191.273438 13.71875 191.273438 C 12.738281 191.273438 11.988281 190.890625 11.46875 190.117188 C 10.957031 189.335938 10.703125 188.210938 10.703125 186.742188 C 10.703125 185.265625 10.957031 184.140625 11.46875 183.367188 C 11.988281 182.585938 12.738281 182.195312 13.71875 182.195312 Z M 2.269531 179.964844 "/>
<path style=" stroke:none;fill-rule:nonzero;fill:rgb(40%,40%,40%);fill-opacity:1;" d="M 4.566406 142.453125 L 8.707031 142.453125 L 8.707031 143.453125 L 3.144531 143.453125 L 3.144531 142.453125 C 3.589844 141.996094 4.199219 141.375 4.972656 140.59375 C 5.753906 139.804688 6.242188 139.292969 6.441406 139.0625 C 6.824219 138.648438 7.089844 138.292969 7.238281 138 C 7.394531 137.699219 7.472656 137.40625 7.472656 137.125 C 7.472656 136.65625 7.304688 136.277344 6.972656 135.984375 C 6.648438 135.695312 6.226562 135.546875 5.707031 135.546875 C 5.332031 135.546875 4.933594 135.609375 4.519531 135.734375 C 4.113281 135.859375 3.675781 136.058594 3.207031 136.328125 L 3.207031 135.125 C 3.683594 134.9375 4.128906 134.796875 4.535156 134.703125 C 4.949219 134.601562 5.332031 134.546875 5.675781 134.546875 C 6.582031 134.546875 7.304688 134.777344 7.847656 135.234375 C 8.386719 135.683594 8.660156 136.289062 8.660156 137.046875 C 8.660156 137.402344 8.589844 137.742188 8.457031 138.0625 C 8.320312 138.386719 8.074219 138.765625 7.722656 139.203125 C 7.617188 139.320312 7.304688 139.648438 6.785156 140.1875 C 6.261719 140.730469 5.523438 141.484375 4.566406 142.453125 Z M 13.71875 135.484375 C 13.113281 135.484375 12.65625 135.789062 12.34375 136.390625 C 12.039062 136.984375 11.890625 137.886719 11.890625 139.09375 C 11.890625 140.292969 12.039062 141.195312 12.34375 141.796875 C 12.65625 142.390625 13.113281 142.6875 13.71875 142.6875 C 14.332031 142.6875 14.789062 142.390625 15.09375 141.796875 C 15.40625 141.195312 15.5625 140.292969 15.5625 139.09375 C 15.5625 137.886719 15.40625 136.984375 15.09375 136.390625 C 14.789062 135.789062 14.332031 135.484375 13.71875 135.484375 Z M 13.71875 134.546875 C 14.695312 134.546875 15.445312 134.9375 15.96875 135.71875 C 16.488281 136.492188 16.75 137.617188 16.75 139.09375 C 16.75 140.5625 16.488281 141.6875 15.96875 142.46875 C 15.445312 143.242188 14.695312 143.625 13.71875 143.625 C 12.738281 143.625 11.988281 143.242188 11.46875 142.46875 C 10.957031 141.6875 10.703125 140.5625 10.703125 139.09375 C 10.703125 137.617188 10.957031 136.492188 11.46875 135.71875 C 11.988281 134.9375 12.738281 134.546875 13.71875 134.546875 Z M 2.269531 132.316406 "/>
<path style=" stroke:none;fill-rule:nonzero;fill:rgb(40%,40%,40%);fill-opacity:1;" d="M 7.144531 91.085938 C 7.707031 91.210938 8.144531 91.46875 8.457031 91.851562 C 8.777344 92.226562 8.941406 92.695312 8.941406 93.257812 C 8.941406 94.125 8.644531 94.796875 8.050781 95.273438 C 7.457031 95.742188 6.613281 95.976562 5.519531 95.976562 C 5.152344 95.976562 4.773438 95.9375 4.378906 95.867188 C 3.992188 95.796875 3.597656 95.6875 3.191406 95.539062 L 3.191406 94.398438 C 3.511719 94.585938 3.867188 94.734375 4.253906 94.835938 C 4.648438 94.929688 5.058594 94.976562 5.488281 94.976562 C 6.226562 94.976562 6.789062 94.832031 7.175781 94.539062 C 7.570312 94.25 7.769531 93.820312 7.769531 93.257812 C 7.769531 92.75 7.585938 92.347656 7.222656 92.054688 C 6.855469 91.765625 6.355469 91.617188 5.722656 91.617188 L 4.691406 91.617188 L 4.691406 90.648438 L 5.769531 90.648438 C 6.339844 90.648438 6.785156 90.535156 7.097656 90.304688 C 7.410156 90.066406 7.566406 89.726562 7.566406 89.289062 C 7.566406 88.84375 7.402344 88.5 7.082031 88.257812 C 6.769531 88.019531 6.316406 87.898438 5.722656 87.898438 C 5.386719 87.898438 5.035156 87.9375 4.660156 88.007812 C 4.292969 88.070312 3.886719 88.175781 3.441406 88.320312 L 3.441406 87.273438 C 3.898438 87.148438 4.320312 87.054688 4.707031 86.992188 C 5.101562 86.929688 5.472656 86.898438 5.816406 86.898438 C 6.722656 86.898438 7.433594 87.101562 7.957031 87.507812 C 8.476562 87.914062 8.738281 88.46875 8.738281 89.164062 C 8.738281 89.65625 8.597656 90.066406 8.316406 90.398438 C 8.042969 90.734375 7.652344 90.960938 7.144531 91.085938 Z M 13.71875 87.835938 C 13.113281 87.835938 12.65625 88.140625 12.34375 88.742188 C 12.039062 89.335938 11.890625 90.238281 11.890625 91.445312 C 11.890625 92.644531 12.039062 93.546875 12.34375 94.148438 C 12.65625 94.742188 13.113281 95.039062 13.71875 95.039062 C 14.332031 95.039062 14.789062 94.742188 15.09375 94.148438 C 15.40625 93.546875 15.5625 92.644531 15.5625 91.445312 C 15.5625 90.238281 15.40625 89.335938 15.09375 88.742188 C 14.789062 88.140625 14.332031 87.835938 13.71875 87.835938 Z M 13.71875 86.898438 C 14.695312 86.898438 15.445312 87.289062 15.96875 88.070312 C 16.488281 88.84375 16.75 89.96875 16.75 91.445312 C 16.75 92.914062 16.488281 94.039062 15.96875 94.820312 C 15.445312 95.59375 14.695312 95.976562 13.71875 95.976562 C 12.738281 95.976562 11.988281 95.59375 11.46875 94.820312 C 10.957031 94.039062 10.703125 92.914062 10.703125 91.445312 C 10.703125 89.96875 10.957031 88.84375 11.46875 88.070312 C 11.988281 87.289062 12.738281 86.898438 13.71875 86.898438 Z M 2.269531 84.664062 "/>
<path style=" stroke:none;fill-rule:nonzero;fill:rgb(40%,40%,40%);fill-opacity:1;" d="M 6.800781 40.4375 L 3.816406 45.109375 L 6.800781 45.109375 Z M 6.488281 39.40625 L 7.988281 39.40625 L 7.988281 45.109375 L 9.238281 45.109375 L 9.238281 46.09375 L 7.988281 46.09375 L 7.988281 48.15625 L 6.800781 48.15625 L 6.800781 46.09375 L 2.863281 46.09375 L 2.863281 44.953125 Z M 13.71875 40.1875 C 13.113281 40.1875 12.65625 40.492188 12.34375 41.09375 C 12.039062 41.6875 11.890625 42.589844 11.890625 43.796875 C 11.890625 44.996094 12.039062 45.898438 12.34375 46.5 C 12.65625 47.09375 13.113281 47.390625 13.71875 47.390625 C 14.332031 47.390625 14.789062 47.09375 15.09375 46.5 C 15.40625 45.898438 15.5625 44.996094 15.5625 43.796875 C 15.5625 42.589844 15.40625 41.6875 15.09375 41.09375 C 14.789062 40.492188 14.332031 40.1875 13.71875 40.1875 Z M 13.71875 39.25 C 14.695312 39.25 15.445312 39.640625 15.96875 40.421875 C 16.488281 41.195312 16.75 42.320312 16.75 43.796875 C 16.75 45.265625 16.488281 46.390625 15.96875 47.171875 C 15.445312 47.945312 14.695312 48.328125 13.71875 48.328125 C 12.738281 48.328125 11.988281 47.945312 11.46875 47.171875 C 10.957031 46.390625 10.703125 45.265625 10.703125 43.796875 C 10.703125 42.320312 10.957031 41.195312 11.46875 40.421875 C 11.988281 39.640625 12.738281 39.25 13.71875 39.25 Z M 2.269531 37.015625 "/>
<g clip-path="url(#clip3)" clip-rule="nonzero">
<path style=" stroke:none;fill-rule:nonzero;fill:rgb(96.862745%,44.705882%,40.784314%);fill-opacity:1;" d="M 799.835938 167.890625 L 797.535156 163.125 L 795.238281 177.421875 L 792.9375 196.480469 L 790.636719 182.183594 L 788.335938 206.011719 L 783.734375 206.011719 L 781.433594 220.304688 L 779.136719 225.070312 L 776.835938 210.773438 L 774.535156 215.539062 L 772.234375 215.539062 L 769.933594 229.835938 L 767.632812 229.835938 L 765.332031 220.304688 L 760.734375 220.304688 L 758.433594 215.539062 L 756.132812 206.011719 L 753.832031 220.304688 L 751.53125 210.773438 L 749.234375 225.070312 L 746.933594 215.539062 L 744.632812 206.011719 L 742.332031 206.011719 L 740.03125 201.246094 L 737.730469 186.949219 L 735.429688 206.011719 L 733.132812 196.480469 L 730.832031 182.183594 L 728.53125 163.125 L 726.230469 172.65625 L 723.929688 206.011719 L 721.628906 153.59375 L 719.328125 144.066406 L 717.03125 153.59375 L 714.730469 172.65625 L 712.429688 134.535156 L 710.128906 158.359375 L 707.828125 110.710938 L 705.527344 115.476562 L 703.230469 96.414062 L 700.929688 105.945312 L 698.628906 110.710938 L 696.328125 129.769531 L 694.027344 120.238281 L 691.726562 139.300781 L 689.425781 115.476562 L 687.128906 144.066406 L 684.828125 182.183594 L 682.527344 191.714844 L 680.226562 220.304688 L 677.925781 148.828125 L 675.625 153.59375 L 673.324219 186.949219 L 671.027344 177.421875 L 668.726562 177.421875 L 666.425781 186.949219 L 664.125 186.949219 L 661.824219 206.011719 L 659.523438 196.480469 L 657.222656 206.011719 L 654.925781 201.246094 L 652.625 196.480469 L 650.324219 201.246094 L 645.722656 191.714844 L 643.421875 201.246094 L 638.824219 201.246094 L 636.523438 196.480469 L 634.222656 177.421875 L 631.921875 182.183594 L 629.621094 182.183594 L 627.320312 163.125 L 625.023438 177.421875 L 622.722656 120.238281 L 620.421875 144.066406 L 618.121094 144.066406 L 615.820312 115.476562 L 613.519531 125.003906 L 611.21875 125.003906 L 608.921875 82.121094 L 606.621094 110.710938 L 604.320312 158.359375 L 599.71875 91.648438 L 597.417969 67.824219 L 595.117188 77.355469 L 592.820312 91.648438 L 590.519531 91.648438 L 588.21875 53.53125 L 585.917969 86.886719 L 583.617188 96.414062 L 581.316406 105.945312 L 579.019531 86.886719 L 576.71875 163.125 L 574.417969 144.066406 L 572.117188 129.769531 L 569.816406 167.890625 L 567.515625 172.65625 L 565.214844 191.714844 L 562.917969 182.183594 L 560.617188 163.125 L 558.316406 210.773438 L 553.714844 210.773438 L 551.414062 191.714844 L 549.113281 206.011719 L 546.816406 191.714844 L 544.515625 210.773438 L 542.214844 196.480469 L 539.914062 201.246094 L 537.613281 196.480469 L 535.3125 201.246094 L 533.011719 201.246094 L 530.714844 182.183594 L 528.414062 196.480469 L 526.113281 172.65625 L 523.8125 148.828125 L 521.511719 134.535156 L 519.210938 163.125 L 516.914062 148.828125 L 514.613281 125.003906 L 512.3125 96.414062 L 510.011719 96.414062 L 507.710938 58.296875 L 505.410156 63.058594 L 503.109375 86.886719 L 500.8125 101.179688 L 498.511719 44 L 496.210938 115.476562 L 493.910156 67.824219 L 491.609375 134.535156 L 489.308594 105.945312 L 487.007812 148.828125 L 484.710938 134.535156 L 482.410156 153.59375 L 480.109375 153.59375 L 477.808594 125.003906 L 475.507812 144.066406 L 473.207031 148.828125 L 470.90625 134.535156 L 468.609375 153.59375 L 466.308594 153.59375 L 464.007812 148.828125 L 461.707031 167.890625 L 459.40625 186.949219 L 457.105469 182.183594 L 454.808594 201.246094 L 452.507812 191.714844 L 450.207031 201.246094 L 447.90625 186.949219 L 443.304688 196.480469 L 441.003906 206.011719 L 438.707031 201.246094 L 436.40625 201.246094 L 434.105469 196.480469 L 431.804688 206.011719 L 427.203125 206.011719 L 424.902344 196.480469 L 422.605469 191.714844 L 420.304688 191.714844 L 418.003906 182.183594 L 415.703125 182.183594 L 413.402344 172.65625 L 411.101562 158.359375 L 408.804688 177.421875 L 406.503906 191.714844 L 404.203125 177.421875 L 401.902344 134.535156 L 399.601562 144.066406 L 397.300781 144.066406 L 395 129.769531 L 392.703125 144.066406 L 390.402344 125.003906 L 388.101562 125.003906 L 385.800781 101.179688 L 383.5 158.359375 L 381.199219 167.890625 L 378.898438 144.066406 L 376.601562 148.828125 L 374.300781 110.710938 L 372 120.238281 L 369.699219 139.300781 L 367.398438 153.59375 L 365.097656 125.003906 L 362.796875 144.066406 L 360.5 148.828125 L 358.199219 134.535156 L 355.898438 144.066406 L 353.597656 129.769531 L 351.296875 163.125 L 348.996094 191.714844 L 346.699219 163.125 L 344.398438 182.183594 L 342.097656 201.246094 L 339.796875 201.246094 L 337.496094 210.773438 L 335.195312 201.246094 L 332.894531 215.539062 L 330.597656 225.070312 L 328.296875 220.304688 L 325.996094 220.304688 L 323.695312 206.011719 L 321.394531 196.480469 L 319.09375 215.539062 L 316.792969 206.011719 L 314.496094 186.949219 L 312.195312 182.183594 L 309.894531 182.183594 L 307.59375 201.246094 L 305.292969 196.480469 L 302.992188 167.890625 L 300.691406 158.359375 L 298.394531 172.65625 L 296.09375 177.421875 L 293.792969 158.359375 L 291.492188 129.769531 L 289.191406 120.238281 L 286.890625 139.300781 L 284.59375 153.59375 L 282.292969 158.359375 L 279.992188 177.421875 L 277.691406 167.890625 L 275.390625 134.535156 L 273.089844 158.359375 L 270.789062 163.125 L 268.492188 148.828125 L 266.191406 172.65625 L 263.890625 182.183594 L 261.589844 158.359375 L 259.289062 158.359375 L 256.988281 129.769531 L 254.6875 139.300781 L 252.390625 163.125 L 247.789062 172.65625 L 245.488281 148.828125 L 243.1875 206.011719 L 240.886719 215.539062 L 238.585938 225.070312 L 236.289062 220.304688 L 233.988281 177.421875 L 231.6875 167.890625 L 229.386719 191.714844 L 227.085938 186.949219 L 224.785156 196.480469 L 222.488281 206.011719 L 220.1875 206.011719 L 217.886719 215.539062 L 215.585938 215.539062 L 213.285156 210.773438 L 210.984375 210.773438 L 208.683594 215.539062 L 204.085938 215.539062 L 201.785156 196.480469 L 199.484375 191.714844 L 197.183594 201.246094 L 194.882812 196.480469 L 192.582031 201.246094 L 190.285156 210.773438 L 187.984375 186.949219 L 185.683594 182.183594 L 181.082031 134.535156 L 178.78125 144.066406 L 176.480469 120.238281 L 174.183594 139.300781 L 171.882812 125.003906 L 169.582031 144.066406 L 167.28125 129.769531 L 164.980469 110.710938 L 162.679688 105.945312 L 160.382812 91.648438 L 158.082031 91.648438 L 155.78125 53.53125 L 153.480469 72.589844 L 151.179688 72.589844 L 148.878906 86.886719 L 146.578125 101.179688 L 144.28125 110.710938 L 141.980469 129.769531 L 139.679688 139.300781 L 137.378906 144.066406 L 135.078125 134.535156 L 132.777344 148.828125 L 130.476562 158.359375 L 128.179688 148.828125 L 125.878906 186.949219 L 123.578125 158.359375 L 121.277344 144.066406 L 118.976562 177.421875 L 116.675781 186.949219 L 114.378906 220.304688 L 112.078125 220.304688 L 109.777344 229.835938 L 105.175781 229.835938 L 102.875 225.070312 L 100.574219 225.070312 L 98.277344 229.835938 L 93.675781 220.304688 L 91.375 225.070312 L 89.074219 186.949219 L 86.773438 144.066406 L 84.472656 134.535156 L 82.175781 144.066406 L 79.875 153.59375 L 77.574219 134.535156 L 75.273438 148.828125 L 72.972656 148.828125 L 70.671875 105.945312 L 68.371094 86.886719 L 66.074219 72.589844 L 63.773438 134.535156 L 61.472656 63.058594 L 59.171875 53.53125 L 56.871094 58.296875 L 54.570312 77.355469 L 52.273438 82.121094 L 49.972656 72.589844 L 47.671875 82.121094 L 45.371094 86.886719 L 43.070312 67.824219 L 40.769531 67.824219 L 38.46875 44 L 36.171875 77.355469 L 33.871094 63.058594 L 31.570312 58.296875 L 29.269531 82.121094 L 29.269531 234.601562 L 799.835938 234.601562 Z M 799.835938 167.890625 "/>
</g>
<g clip-path="url(#clip4)" clip-rule="nonzero">
<path style="fill:none;stroke-width:2;stroke-linecap:butt;stroke-linejoin:miter;stroke:rgb(100%,4.705882%,0%);stroke-opacity:0.247059;stroke-miterlimit:10;" d="M 799.835938 167.890625 L 797.535156 163.125 L 795.238281 177.421875 L 792.9375 196.480469 L 790.636719 182.183594 L 788.335938 206.011719 L 783.734375 206.011719 L 781.433594 220.304688 L 779.136719 225.070312 L 776.835938 210.773438 L 774.535156 215.539062 L 772.234375 215.539062 L 769.933594 229.835938 L 767.632812 229.835938 L 765.332031 220.304688 L 760.734375 220.304688 L 758.433594 215.539062 L 756.132812 206.011719 L 753.832031 220.304688 L 751.53125 210.773438 L 749.234375 225.070312 L 746.933594 215.539062 L 744.632812 206.011719 L 742.332031 206.011719 L 740.03125 201.246094 L 737.730469 186.949219 L 735.429688 206.011719 L 733.132812 196.480469 L 730.832031 182.183594 L 728.53125 163.125 L 726.230469 172.65625 L 723.929688 206.011719 L 721.628906 153.59375 L 719.328125 144.066406 L 717.03125 153.59375 L 714.730469 172.65625 L 712.429688 134.535156 L 710.128906 158.359375 L 707.828125 110.710938 L 705.527344 115.476562 L 703.230469 96.414062 L 700.929688 105.945312 L 698.628906 110.710938 L 696.328125 129.769531 L 694.027344 120.238281 L 691.726562 139.300781 L 689.425781 115.476562 L 687.128906 144.066406 L 684.828125 182.183594 L 682.527344 191.714844 L 680.226562 220.304688 L 677.925781 148.828125 L 675.625 153.59375 L 673.324219 186.949219 L 671.027344 177.421875 L 668.726562 177.421875 L 666.425781 186.949219 L 664.125 186.949219 L 661.824219 206.011719 L 659.523438 196.480469 L 657.222656 206.011719 L 654.925781 201.246094 L 652.625 196.480469 L 650.324219 201.246094 L 645.722656 191.714844 L 643.421875 201.246094 L 638.824219 201.246094 L 636.523438 196.480469 L 634.222656 177.421875 L 631.921875 182.183594 L 629.621094 182.183594 L 627.320312 163.125 L 625.023438 177.421875 L 622.722656 120.238281 L 620.421875 144.066406 L 618.121094 144.066406 L 615.820312 115.476562 L 613.519531 125.003906 L 611.21875 125.003906 L 608.921875 82.121094 L 606.621094 110.710938 L 604.320312 158.359375 L 599.71875 91.648438 L 597.417969 67.824219 L 595.117188 77.355469 L 592.820312 91.648438 L 590.519531 91.648438 L 588.21875 53.53125 L 585.917969 86.886719 L 583.617188 96.414062 L 581.316406 105.945312 L 579.019531 86.886719 L 576.71875 163.125 L 574.417969 144.066406 L 572.117188 129.769531 L 569.816406 167.890625 L 567.515625 172.65625 L 565.214844 191.714844 L 562.917969 182.183594 L 560.617188 163.125 L 558.316406 210.773438 L 553.714844 210.773438 L 551.414062 191.714844 L 549.113281 206.011719 L 546.816406 191.714844 L 544.515625 210.773438 L 542.214844 196.480469 L 539.914062 201.246094 L 537.613281 196.480469 L 535.3125 201.246094 L 533.011719 201.246094 L 530.714844 182.183594 L 528.414062 196.480469 L 526.113281 172.65625 L 523.8125 148.828125 L 521.511719 134.535156 L 519.210938 163.125 L 516.914062 148.828125 L 514.613281 125.003906 L 512.3125 96.414062 L 510.011719 96.414062 L 507.710938 58.296875 L 505.410156 63.058594 L 503.109375 86.886719 L 500.8125 101.179688 L 498.511719 44 L 496.210938 115.476562 L 493.910156 67.824219 L 491.609375 134.535156 L 489.308594 105.945312 L 487.007812 148.828125 L 484.710938 134.535156 L 482.410156 153.59375 L 480.109375 153.59375 L 477.808594 125.003906 L 475.507812 144.066406 L 473.207031 148.828125 L 470.90625 134.535156 L 468.609375 153.59375 L 466.308594 153.59375 L 464.007812 148.828125 L 461.707031 167.890625 L 459.40625 186.949219 L 457.105469 182.183594 L 454.808594 201.246094 L 452.507812 191.714844 L 450.207031 201.246094 L 447.90625 186.949219 L 443.304688 196.480469 L 441.003906 206.011719 L 438.707031 201.246094 L 436.40625 201.246094 L 434.105469 196.480469 L 431.804688 206.011719 L 427.203125 206.011719 L 424.902344 196.480469 L 422.605469 191.714844 L 420.304688 191.714844 L 418.003906 182.183594 L 415.703125 182.183594 L 413.402344 172.65625 L 411.101562 158.359375 L 408.804688 177.421875 L 406.503906 191.714844 L 404.203125 177.421875 L 401.902344 134.535156 L 399.601562 144.066406 L 397.300781 144.066406 L 395 129.769531 L 392.703125 144.066406 L 390.402344 125.003906 L 388.101562 125.003906 L 385.800781 101.179688 L 383.5 158.359375 L 381.199219 167.890625 L 378.898438 144.066406 L 376.601562 148.828125 L 374.300781 110.710938 L 372 120.238281 L 369.699219 139.300781 L 367.398438 153.59375 L 365.097656 125.003906 L 362.796875 144.066406 L 360.5 148.828125 L 358.199219 134.535156 L 355.898438 144.066406 L 353.597656 129.769531 L 351.296875 163.125 L 348.996094 191.714844 L 346.699219 163.125 L 344.398438 182.183594 L 342.097656 201.246094 L 339.796875 201.246094 L 337.496094 210.773438 L 335.195312 201.246094 L 332.894531 215.539062 L 330.597656 225.070312 L 328.296875 220.304688 L 325.996094 220.304688 L 323.695312 206.011719 L 321.394531 196.480469 L 319.09375 215.539062 L 316.792969 206.011719 L 314.496094 186.949219 L 312.195312 182.183594 L 309.894531 182.183594 L 307.59375 201.246094 L 305.292969 196.480469 L 302.992188 167.890625 L 300.691406 158.359375 L 298.394531 172.65625 L 296.09375 177.421875 L 293.792969 158.359375 L 291.492188 129.769531 L 289.191406 120.238281 L 286.890625 139.300781 L 284.59375 153.59375 L 282.292969 158.359375 L 279.992188 177.421875 L 277.691406 167.890625 L 275.390625 134.535156 L 273.089844 158.359375 L 270.789062 163.125 L 268.492188 148.828125 L 266.191406 172.65625 L 263.890625 182.183594 L 261.589844 158.359375 L 259.289062 158.359375 L 256.988281 129.769531 L 254.6875 139.300781 L 252.390625 163.125 L 247.789062 172.65625 L 245.488281 148.828125 L 243.1875 206.011719 L 240.886719 215.539062 L 238.585938 225.070312 L 236.289062 220.304688 L 233.988281 177.421875 L 231.6875 167.890625 L 229.386719 191.714844 L 227.085938 186.949219 L 224.785156 196.480469 L 222.488281 206.011719 L 220.1875 206.011719 L 217.886719 215.539062 L 215.585938 215.539062 L 213.285156 210.773438 L 210.984375 210.773438 L 208.683594 215.539062 L 204.085938 215.539062 L 201.785156 196.480469 L 199.484375 191.714844 L 197.183594 201.246094 L 194.882812 196.480469 L 192.582031 201.246094 L 190.285156 210.773438 L 187.984375 186.949219 L 185.683594 182.183594 L 181.082031 134.535156 L 178.78125 144.066406 L 176.480469 120.238281 L 174.183594 139.300781 L 171.882812 125.003906 L 169.582031 144.066406 L 167.28125 129.769531 L 164.980469 110.710938 L 162.679688 105.945312 L 160.382812 91.648438 L 158.082031 91.648438 L 155.78125 53.53125 L 153.480469 72.589844 L 151.179688 72.589844 L 148.878906 86.886719 L 146.578125 101.179688 L 144.28125 110.710938 L 141.980469 129.769531 L 139.679688 139.300781 L 137.378906 144.066406 L 135.078125 134.535156 L 132.777344 148.828125 L 130.476562 158.359375 L 128.179688 148.828125 L 125.878906 186.949219 L 123.578125 158.359375 L 121.277344 144.066406 L 118.976562 177.421875 L 116.675781 186.949219 L 114.378906 220.304688 L 112.078125 220.304688 L 109.777344 229.835938 L 105.175781 229.835938 L 102.875 225.070312 L 100.574219 225.070312 L 98.277344 229.835938 L 93.675781 220.304688 L 91.375 225.070312 L 89.074219 186.949219 L 86.773438 144.066406 L 84.472656 134.535156 L 82.175781 144.066406 L 79.875 153.59375 L 77.574219 134.535156 L 75.273438 148.828125 L 72.972656 148.828125 L 70.671875 105.945312 L 68.371094 86.886719 L 66.074219 72.589844 L 63.773438 134.535156 L 61.472656 63.058594 L 59.171875 53.53125 L 56.871094 58.296875 L 54.570312 77.355469 L 52.273438 82.121094 L 49.972656 72.589844 L 47.671875 82.121094 L 45.371094 86.886719 L 43.070312 67.824219 L 40.769531 67.824219 L 38.46875 44 L 36.171875 77.355469 L 33.871094 63.058594 L 31.570312 58.296875 L 29.269531 82.121094 "/>
</g>
<g clip-path="url(#clip5)" clip-rule="nonzero">
<path style=" stroke:none;fill-rule:nonzero;fill:rgb(9.019608%,58.823529%,95.294118%);fill-opacity:0.6;" d="M 799.835938 201.246094 L 797.535156 191.714844 L 795.238281 196.480469 L 792.9375 196.480469 L 790.636719 191.714844 L 788.335938 201.246094 L 786.035156 196.480469 L 783.734375 196.480469 L 781.433594 206.011719 L 779.136719 201.246094 L 776.835938 196.480469 L 774.535156 201.246094 L 772.234375 191.714844 L 767.632812 201.246094 L 765.332031 196.480469 L 763.035156 196.480469 L 760.734375 201.246094 L 756.132812 191.714844 L 753.832031 201.246094 L 751.53125 201.246094 L 749.234375 196.480469 L 746.933594 196.480469 L 744.632812 201.246094 L 742.332031 196.480469 L 737.730469 196.480469 L 735.429688 201.246094 L 733.132812 201.246094 L 730.832031 196.480469 L 728.53125 201.246094 L 726.230469 196.480469 L 723.929688 206.011719 L 721.628906 196.480469 L 717.03125 196.480469 L 714.730469 201.246094 L 712.429688 196.480469 L 710.128906 196.480469 L 707.828125 186.949219 L 705.527344 196.480469 L 703.230469 191.714844 L 696.328125 191.714844 L 691.726562 201.246094 L 689.425781 191.714844 L 687.128906 196.480469 L 684.828125 201.246094 L 682.527344 201.246094 L 680.226562 210.773438 L 677.925781 196.480469 L 675.625 201.246094 L 671.027344 201.246094 L 668.726562 191.714844 L 666.425781 196.480469 L 664.125 196.480469 L 661.824219 201.246094 L 659.523438 191.714844 L 657.222656 206.011719 L 654.925781 201.246094 L 648.023438 201.246094 L 645.722656 196.480469 L 643.421875 201.246094 L 641.125 206.011719 L 638.824219 206.011719 L 636.523438 201.246094 L 629.621094 201.246094 L 627.320312 191.714844 L 625.023438 196.480469 L 622.722656 191.714844 L 620.421875 201.246094 L 618.121094 201.246094 L 615.820312 196.480469 L 613.519531 196.480469 L 611.21875 201.246094 L 608.921875 191.714844 L 606.621094 196.480469 L 604.320312 206.011719 L 602.019531 196.480469 L 599.71875 201.246094 L 597.417969 201.246094 L 595.117188 196.480469 L 592.820312 206.011719 L 590.519531 206.011719 L 588.21875 196.480469 L 585.917969 201.246094 L 581.316406 201.246094 L 579.019531 191.714844 L 576.71875 201.246094 L 574.417969 206.011719 L 572.117188 201.246094 L 569.816406 210.773438 L 567.515625 201.246094 L 565.214844 201.246094 L 562.917969 206.011719 L 560.617188 201.246094 L 558.316406 210.773438 L 556.015625 210.773438 L 553.714844 215.539062 L 551.414062 201.246094 L 549.113281 210.773438 L 546.816406 201.246094 L 544.515625 210.773438 L 542.214844 206.011719 L 539.914062 201.246094 L 537.613281 201.246094 L 535.3125 206.011719 L 533.011719 210.773438 L 530.714844 196.480469 L 528.414062 206.011719 L 526.113281 201.246094 L 523.8125 191.714844 L 519.210938 201.246094 L 516.914062 201.246094 L 514.613281 196.480469 L 512.3125 196.480469 L 510.011719 201.246094 L 507.710938 196.480469 L 500.8125 196.480469 L 498.511719 191.714844 L 496.210938 206.011719 L 493.910156 191.714844 L 491.609375 196.480469 L 489.308594 196.480469 L 487.007812 201.246094 L 484.710938 201.246094 L 482.410156 206.011719 L 477.808594 196.480469 L 475.507812 201.246094 L 473.207031 201.246094 L 470.90625 196.480469 L 468.609375 201.246094 L 464.007812 201.246094 L 461.707031 206.011719 L 457.105469 206.011719 L 454.808594 210.773438 L 452.507812 206.011719 L 447.90625 206.011719 L 445.605469 201.246094 L 443.304688 201.246094 L 441.003906 210.773438 L 438.707031 201.246094 L 436.40625 201.246094 L 434.105469 206.011719 L 431.804688 210.773438 L 429.503906 206.011719 L 427.203125 206.011719 L 424.902344 201.246094 L 422.605469 201.246094 L 420.304688 196.480469 L 418.003906 196.480469 L 415.703125 201.246094 L 413.402344 196.480469 L 411.101562 196.480469 L 408.804688 206.011719 L 406.503906 206.011719 L 401.902344 196.480469 L 399.601562 196.480469 L 397.300781 206.011719 L 395 201.246094 L 390.402344 201.246094 L 388.101562 206.011719 L 385.800781 201.246094 L 381.199219 201.246094 L 378.898438 196.480469 L 376.601562 191.714844 L 374.300781 196.480469 L 372 196.480469 L 369.699219 201.246094 L 367.398438 201.246094 L 365.097656 191.714844 L 362.796875 196.480469 L 360.5 201.246094 L 358.199219 196.480469 L 355.898438 196.480469 L 353.597656 191.714844 L 351.296875 191.714844 L 348.996094 201.246094 L 346.699219 191.714844 L 344.398438 196.480469 L 337.496094 196.480469 L 335.195312 191.714844 L 332.894531 196.480469 L 330.597656 196.480469 L 328.296875 201.246094 L 325.996094 201.246094 L 323.695312 191.714844 L 321.394531 191.714844 L 319.09375 196.480469 L 314.496094 196.480469 L 312.195312 191.714844 L 309.894531 191.714844 L 307.59375 196.480469 L 302.992188 196.480469 L 300.691406 191.714844 L 298.394531 196.480469 L 296.09375 201.246094 L 293.792969 196.480469 L 289.191406 196.480469 L 286.890625 191.714844 L 284.59375 201.246094 L 282.292969 206.011719 L 279.992188 210.773438 L 277.691406 196.480469 L 273.089844 196.480469 L 270.789062 206.011719 L 268.492188 206.011719 L 266.191406 201.246094 L 263.890625 206.011719 L 254.6875 206.011719 L 252.390625 210.773438 L 250.089844 210.773438 L 247.789062 206.011719 L 245.488281 206.011719 L 243.1875 215.539062 L 240.886719 206.011719 L 236.289062 206.011719 L 231.6875 196.480469 L 229.386719 201.246094 L 227.085938 191.714844 L 224.785156 191.714844 L 222.488281 196.480469 L 220.1875 191.714844 L 217.886719 196.480469 L 215.585938 196.480469 L 213.285156 191.714844 L 208.683594 201.246094 L 206.386719 196.480469 L 204.085938 196.480469 L 201.785156 201.246094 L 199.484375 196.480469 L 197.183594 196.480469 L 194.882812 191.714844 L 192.582031 201.246094 L 190.285156 201.246094 L 187.984375 196.480469 L 185.683594 196.480469 L 183.382812 201.246094 L 181.082031 201.246094 L 178.78125 196.480469 L 176.480469 196.480469 L 174.183594 201.246094 L 169.582031 201.246094 L 167.28125 196.480469 L 162.679688 206.011719 L 160.382812 201.246094 L 158.082031 206.011719 L 155.78125 201.246094 L 153.480469 206.011719 L 151.179688 206.011719 L 148.878906 201.246094 L 144.28125 201.246094 L 141.980469 206.011719 L 139.679688 206.011719 L 137.378906 196.480469 L 135.078125 196.480469 L 132.777344 206.011719 L 130.476562 206.011719 L 128.179688 201.246094 L 125.878906 201.246094 L 123.578125 196.480469 L 121.277344 201.246094 L 118.976562 201.246094 L 116.675781 206.011719 L 114.378906 201.246094 L 109.777344 201.246094 L 107.476562 196.480469 L 105.175781 201.246094 L 102.875 196.480469 L 100.574219 201.246094 L 98.277344 206.011719 L 95.976562 196.480469 L 93.675781 196.480469 L 89.074219 206.011719 L 84.472656 196.480469 L 82.175781 201.246094 L 79.875 206.011719 L 77.574219 196.480469 L 75.273438 210.773438 L 72.972656 206.011719 L 70.671875 201.246094 L 68.371094 201.246094 L 66.074219 196.480469 L 63.773438 210.773438 L 61.472656 206.011719 L 59.171875 196.480469 L 54.570312 206.011719 L 52.273438 196.480469 L 49.972656 201.246094 L 47.671875 196.480469 L 45.371094 206.011719 L 43.070312 196.480469 L 40.769531 196.480469 L 38.46875 201.246094 L 36.171875 206.011719 L 33.871094 206.011719 L 31.570312 196.480469 L 29.269531 201.246094 L 29.269531 234.601562 L 799.835938 234.601562 Z M 799.835938 201.246094 "/>
</g>
<g clip-path="url(#clip6)" clip-rule="nonzero">
<path style="fill:none;stroke-width:2;stroke-linecap:butt;stroke-linejoin:miter;stroke:rgb(9.019608%,58.823529%,95.294118%);stroke-opacity:1;stroke-miterlimit:10;" d="M 799.835938 201.246094 L 797.535156 191.714844 L 795.238281 196.480469 L 792.9375 196.480469 L 790.636719 191.714844 L 788.335938 201.246094 L 786.035156 196.480469 L 783.734375 196.480469 L 781.433594 206.011719 L 779.136719 201.246094 L 776.835938 196.480469 L 774.535156 201.246094 L 772.234375 191.714844 L 767.632812 201.246094 L 765.332031 196.480469 L 763.035156 196.480469 L 760.734375 201.246094 L 756.132812 191.714844 L 753.832031 201.246094 L 751.53125 201.246094 L 749.234375 196.480469 L 746.933594 196.480469 L 744.632812 201.246094 L 742.332031 196.480469 L 737.730469 196.480469 L 735.429688 201.246094 L 733.132812 201.246094 L 730.832031 196.480469 L 728.53125 201.246094 L 726.230469 196.480469 L 723.929688 206.011719 L 721.628906 196.480469 L 717.03125 196.480469 L 714.730469 201.246094 L 712.429688 196.480469 L 710.128906 196.480469 L 707.828125 186.949219 L 705.527344 196.480469 L 703.230469 191.714844 L 696.328125 191.714844 L 691.726562 201.246094 L 689.425781 191.714844 L 687.128906 196.480469 L 684.828125 201.246094 L 682.527344 201.246094 L 680.226562 210.773438 L 677.925781 196.480469 L 675.625 201.246094 L 671.027344 201.246094 L 668.726562 191.714844 L 666.425781 196.480469 L 664.125 196.480469 L 661.824219 201.246094 L 659.523438 191.714844 L 657.222656 206.011719 L 654.925781 201.246094 L 648.023438 201.246094 L 645.722656 196.480469 L 643.421875 201.246094 L 641.125 206.011719 L 638.824219 206.011719 L 636.523438 201.246094 L 629.621094 201.246094 L 627.320312 191.714844 L 625.023438 196.480469 L 622.722656 191.714844 L 620.421875 201.246094 L 618.121094 201.246094 L 615.820312 196.480469 L 613.519531 196.480469 L 611.21875 201.246094 L 608.921875 191.714844 L 606.621094 196.480469 L 604.320312 206.011719 L 602.019531 196.480469 L 599.71875 201.246094 L 597.417969 201.246094 L 595.117188 196.480469 L 592.820312 206.011719 L 590.519531 206.011719 L 588.21875 196.480469 L 585.917969 201.246094 L 581.316406 201.246094 L 579.019531 191.714844 L 576.71875 201.246094 L 574.417969 206.011719 L 572.117188 201.246094 L 569.816406 210.773438 L 567.515625 201.246094 L 565.214844 201.246094 L 562.917969 206.011719 L 560.617188 201.246094 L 558.316406 210.773438 L 556.015625 210.773438 L 553.714844 215.539062 L 551.414062 201.246094 L 549.113281 210.773438 L 546.816406 201.246094 L 544.515625 210.773438 L 542.214844 206.011719 L 539.914062 201.246094 L 537.613281 201.246094 L 535.3125 206.011719 L 533.011719 210.773438 L 530.714844 196.480469 L 528.414062 206.011719 L 526.113281 201.246094 L 523.8125 191.714844 L 519.210938 201.246094 L 516.914062 201.246094 L 514.613281 196.480469 L 512.3125 196.480469 L 510.011719 201.246094 L 507.710938 196.480469 L 500.8125 196.480469 L 498.511719 191.714844 L 496.210938 206.011719 L 493.910156 191.714844 L 491.609375 196.480469 L 489.308594 196.480469 L 487.007812 201.246094 L 484.710938 201.246094 L 482.410156 206.011719 L 477.808594 196.480469 L 475.507812 201.246094 L 473.207031 201.246094 L 470.90625 196.480469 L 468.609375 201.246094 L 464.007812 201.246094 L 461.707031 206.011719 L 457.105469 206.011719 L 454.808594 210.773438 L 452.507812 206.011719 L 447.90625 206.011719 L 445.605469 201.246094 L 443.304688 201.246094 L 441.003906 210.773438 L 438.707031 201.246094 L 436.40625 201.246094 L 434.105469 206.011719 L 431.804688 210.773438 L 429.503906 206.011719 L 427.203125 206.011719 L 424.902344 201.246094 L 422.605469 201.246094 L 420.304688 196.480469 L 418.003906 196.480469 L 415.703125 201.246094 L 413.402344 196.480469 L 411.101562 196.480469 L 408.804688 206.011719 L 406.503906 206.011719 L 401.902344 196.480469 L 399.601562 196.480469 L 397.300781 206.011719 L 395 201.246094 L 390.402344 201.246094 L 388.101562 206.011719 L 385.800781 201.246094 L 381.199219 201.246094 L 378.898438 196.480469 L 376.601562 191.714844 L 374.300781 196.480469 L 372 196.480469 L 369.699219 201.246094 L 367.398438 201.246094 L 365.097656 191.714844 L 362.796875 196.480469 L 360.5 201.246094 L 358.199219 196.480469 L 355.898438 196.480469 L 353.597656 191.714844 L 351.296875 191.714844 L 348.996094 201.246094 L 346.699219 191.714844 L 344.398438 196.480469 L 337.496094 196.480469 L 335.195312 191.714844 L 332.894531 196.480469 L 330.597656 196.480469 L 328.296875 201.246094 L 325.996094 201.246094 L 323.695312 191.714844 L 321.394531 191.714844 L 319.09375 196.480469 L 314.496094 196.480469 L 312.195312 191.714844 L 309.894531 191.714844 L 307.59375 196.480469 L 302.992188 196.480469 L 300.691406 191.714844 L 298.394531 196.480469 L 296.09375 201.246094 L 293.792969 196.480469 L 289.191406 196.480469 L 286.890625 191.714844 L 284.59375 201.246094 L 282.292969 206.011719 L 279.992188 210.773438 L 277.691406 196.480469 L 273.089844 196.480469 L 270.789062 206.011719 L 268.492188 206.011719 L 266.191406 201.246094 L 263.890625 206.011719 L 254.6875 206.011719 L 252.390625 210.773438 L 250.089844 210.773438 L 247.789062 206.011719 L 245.488281 206.011719 L 243.1875 215.539062 L 240.886719 206.011719 L 236.289062 206.011719 L 231.6875 196.480469 L 229.386719 201.246094 L 227.085938 191.714844 L 224.785156 191.714844 L 222.488281 196.480469 L 220.1875 191.714844 L 217.886719 196.480469 L 215.585938 196.480469 L 213.285156 191.714844 L 208.683594 201.246094 L 206.386719 196.480469 L 204.085938 196.480469 L 201.785156 201.246094 L 199.484375 196.480469 L 197.183594 196.480469 L 194.882812 191.714844 L 192.582031 201.246094 L 190.285156 201.246094 L 187.984375 196.480469 L 185.683594 196.480469 L 183.382812 201.246094 L 181.082031 201.246094 L 178.78125 196.480469 L 176.480469 196.480469 L 174.183594 201.246094 L 169.582031 201.246094 L 167.28125 196.480469 L 162.679688 206.011719 L 160.382812 201.246094 L 158.082031 206.011719 L 155.78125 201.246094 L 153.480469 206.011719 L 151.179688 206.011719 L 148.878906 201.246094 L 144.28125 201.246094 L 141.980469 206.011719 L 139.679688 206.011719 L 137.378906 196.480469 L 135.078125 196.480469 L 132.777344 206.011719 L 130.476562 206.011719 L 128.179688 201.246094 L 125.878906 201.246094 L 123.578125 196.480469 L 121.277344 201.246094 L 118.976562 201.246094 L 116.675781 206.011719 L 114.378906 201.246094 L 109.777344 201.246094 L 107.476562 196.480469 L 105.175781 201.246094 L 102.875 196.480469 L 100.574219 201.246094 L 98.277344 206.011719 L 95.976562 196.480469 L 93.675781 196.480469 L 89.074219 206.011719 L 84.472656 196.480469 L 82.175781 201.246094 L 79.875 206.011719 L 77.574219 196.480469 L 75.273438 210.773438 L 72.972656 206.011719 L 70.671875 201.246094 L 68.371094 201.246094 L 66.074219 196.480469 L 63.773438 210.773438 L 61.472656 206.011719 L 59.171875 196.480469 L 54.570312 206.011719 L 52.273438 196.480469 L 49.972656 201.246094 L 47.671875 196.480469 L 45.371094 206.011719 L 43.070312 196.480469 L 40.769531 196.480469 L 38.46875 201.246094 L 36.171875 206.011719 L 33.871094 206.011719 L 31.570312 196.480469 L 29.269531 201.246094 "/>
</g>
</g>
</svg>
