<?xml version="1.0" encoding="UTF-8"?>
<svg xmlns="http://www.w3.org/2000/svg" xmlns:xlink="http://www.w3.org/1999/xlink" width="800pt" height="300pt" viewBox="0 0 800 300" version="1.1">
<defs>
<clipPath id="clip1">
  <path d="M 285 263 L 360 263 L 360 300 L 285 300 Z M 285 263 "/>
</clipPath>
<clipPath id="clip2">
  <path d="M 375 263 L 450 263 L 450 300 L 375 300 Z M 375 263 "/>
</clipPath>
<clipPath id="clip3">
  <path d="M 32.085938 233 L 796.03125 233 L 796.03125 235.601562 L 32.085938 235.601562 Z M 32.085938 233 "/>
</clipPath>
</defs>
<g id="surface3315271">
<rect x="0" y="0" width="800" height="300" style="fill:rgb(100%,100%,100%);fill-opacity:1;stroke:none;"/>
<path style="fill:none;stroke-width:1;stroke-linecap:butt;stroke-linejoin:miter;stroke:rgb(0%,0%,0%);stroke-opacity:0.0980392;stroke-miterlimit:10;" d="M 34 234.5 L 795.03125 234.5 "/>
<path style="fill:none;stroke-width:1;stroke-linecap:butt;stroke-linejoin:miter;stroke:rgb(0%,0%,0%);stroke-opacity:0.0980392;stroke-miterlimit:10;" d="M 25.085938 234.5 L 33 234.5 "/>
<path style="fill:none;stroke-width:1;stroke-linecap:butt;stroke-linejoin:miter;stroke:rgb(0%,0%,0%);stroke-opacity:0.0980392;stroke-miterlimit:10;" d="M 34 196.5 L 795.03125 196.5 "/>
<path style="fill:none;stroke-width:1;stroke-linecap:butt;stroke-linejoin:miter;stroke:rgb(0%,0%,0%);stroke-opacity:0.0980392;stroke-miterlimit:10;" d="M 25.085938 196.5 L 33 196.5 "/>
<path style="fill:none;stroke-width:1;stroke-linecap:butt;stroke-linejoin:miter;stroke:rgb(0%,0%,0%);stroke-opacity:0.0980392;stroke-miterlimit:10;" d="M 34 158.5 L 795.03125 158.5 "/>
<path style="fill:none;stroke-width:1;stroke-linecap:butt;stroke-linejoin:miter;stroke:rgb(0%,0%,0%);stroke-opacity:0.0980392;stroke-miterlimit:10;" d="M 25.085938 158.5 L 33 158.5 "/>
<path style="fill:none;stroke-width:1;stroke-linecap:butt;stroke-linejoin:miter;stroke:rgb(0%,0%,0%);stroke-opacity:0.0980392;stroke-miterlimit:10;" d="M 34 120.5 L 795.03125 120.5 "/>
<path style="fill:none;stroke-width:1;stroke-linecap:butt;stroke-linejoin:miter;stroke:rgb(0%,0%,0%);stroke-opacity:0.0980392;stroke-miterlimit:10;" d="M 25.085938 120.5 L 33 120.5 "/>
<path style="fill:none;stroke-width:1;stroke-linecap:butt;stroke-linejoin:miter;stroke:rgb(0%,0%,0%);stroke-opacity:0.0980392;stroke-miterlimit:10;" d="M 34 82.5 L 795.03125 82.5 "/>
<path style="fill:none;stroke-width:1;stroke-linecap:butt;stroke-linejoin:miter;stroke:rgb(0%,0%,0%);stroke-opacity:0.0980392;stroke-miterlimit:10;" d="M 25.085938 82.5 L 33 82.5 "/>
<path style="fill:none;stroke-width:1;stroke-linecap:butt;stroke-linejoin:miter;stroke:rgb(0%,0%,0%);stroke-opacity:0.0980392;stroke-miterlimit:10;" d="M 34 44.5 L 795.03125 44.5 "/>
<path style="fill:none;stroke-width:1;stroke-linecap:butt;stroke-linejoin:miter;stroke:rgb(0%,0%,0%);stroke-opacity:0.0980392;stroke-miterlimit:10;" d="M 25.085938 44.5 L 33 44.5 "/>
<path style=" stroke:none;fill-rule:nonzero;fill:rgb(9.019608%,58.823529%,95.294118%);fill-opacity:0.6;" d="M 331.121094 284 C 331.121094 288.6875 327.324219 292.484375 322.636719 292.484375 C 317.953125 292.484375 314.152344 288.6875 314.152344 284 C 314.152344 279.3125 317.953125 275.515625 322.636719 275.515625 C 327.324219 275.515625 331.121094 279.3125 331.121094 284 Z M 331.121094 284 "/>
<g clip-path="url(#clip1)" clip-rule="nonzero">
<path style="fill:none;stroke-width:2;stroke-linecap:butt;stroke-linejoin:miter;stroke:rgb(9.019608%,58.823529%,95.294118%);stroke-opacity:1;stroke-miterlimit:10;" d="M 331.121094 284 C 331.121094 288.6875 327.324219 292.484375 322.636719 292.484375 C 317.953125 292.484375 314.152344 288.6875 314.152344 284 C 314.152344 279.3125 317.953125 275.515625 322.636719 275.515625 C 327.324219 275.515625 331.121094 279.3125 331.121094 284 Z M 331.121094 284 "/>
</g>
<path style=" stroke:none;fill-rule:nonzero;fill:rgb(0%,0%,0%);fill-opacity:1;" d="M 340.265625 280.1875 C 339.660156 280.1875 339.203125 280.492188 338.890625 281.09375 C 338.585938 281.6875 338.4375 282.589844 338.4375 283.796875 C 338.4375 284.996094 338.585938 285.898438 338.890625 286.5 C 339.203125 287.09375 339.660156 287.390625 340.265625 287.390625 C 340.878906 287.390625 341.335938 287.09375 341.640625 286.5 C 341.953125 285.898438 342.109375 284.996094 342.109375 283.796875 C 342.109375 282.589844 341.953125 281.6875 341.640625 281.09375 C 341.335938 280.492188 340.878906 280.1875 340.265625 280.1875 Z M 340.265625 279.25 C 341.242188 279.25 341.992188 279.640625 342.515625 280.421875 C 343.035156 281.195312 343.296875 282.320312 343.296875 283.796875 C 343.296875 285.265625 343.035156 286.390625 342.515625 287.171875 C 341.992188 287.945312 341.242188 288.328125 340.265625 288.328125 C 339.285156 288.328125 338.535156 287.945312 338.015625 287.171875 C 337.503906 286.390625 337.25 285.265625 337.25 283.796875 C 337.25 282.320312 337.503906 281.195312 338.015625 280.421875 C 338.535156 279.640625 339.285156 279.25 340.265625 279.25 Z M 354.320312 279.6875 L 354.320312 280.84375 C 353.871094 280.636719 353.445312 280.480469 353.039062 280.375 C 352.640625 280.261719 352.261719 280.203125 351.898438 280.203125 C 351.25 280.203125 350.75 280.328125 350.398438 280.578125 C 350.054688 280.828125 349.882812 281.1875 349.882812 281.65625 C 349.882812 282.042969 349.996094 282.335938 350.226562 282.53125 C 350.453125 282.730469 350.898438 282.886719 351.554688 283 L 352.257812 283.15625 C 353.140625 283.324219 353.792969 283.621094 354.210938 284.046875 C 354.636719 284.464844 354.851562 285.027344 354.851562 285.734375 C 354.851562 286.589844 354.5625 287.234375 353.992188 287.671875 C 353.429688 288.109375 352.59375 288.328125 351.492188 288.328125 C 351.085938 288.328125 350.648438 288.28125 350.179688 288.1875 C 349.710938 288.09375 349.226562 287.953125 348.726562 287.765625 L 348.726562 286.546875 C 349.203125 286.820312 349.671875 287.023438 350.132812 287.15625 C 350.601562 287.292969 351.054688 287.359375 351.492188 287.359375 C 352.167969 287.359375 352.6875 287.230469 353.054688 286.96875 C 353.429688 286.699219 353.617188 286.320312 353.617188 285.828125 C 353.617188 285.402344 353.480469 285.070312 353.210938 284.828125 C 352.949219 284.578125 352.515625 284.398438 351.914062 284.28125 L 351.195312 284.140625 C 350.308594 283.964844 349.667969 283.6875 349.273438 283.3125 C 348.886719 282.9375 348.695312 282.417969 348.695312 281.75 C 348.695312 280.96875 348.964844 280.359375 349.507812 279.921875 C 350.046875 279.476562 350.796875 279.25 351.757812 279.25 C 352.171875 279.25 352.589844 279.289062 353.007812 279.359375 C 353.433594 279.433594 353.871094 279.542969 354.320312 279.6875 Z M 362.265625 284.609375 L 362.265625 285.125 L 357.296875 285.125 C 357.347656 285.875 357.570312 286.445312 357.96875 286.828125 C 358.375 287.214844 358.929688 287.40625 359.640625 287.40625 C 360.054688 287.40625 360.457031 287.359375 360.84375 287.265625 C 361.238281 287.164062 361.628906 287.007812 362.015625 286.796875 L 362.015625 287.828125 C 361.617188 287.984375 361.21875 288.105469 360.8125 288.1875 C 360.40625 288.28125 359.992188 288.328125 359.578125 288.328125 C 358.535156 288.328125 357.707031 288.027344 357.09375 287.421875 C 356.476562 286.808594 356.171875 285.980469 356.171875 284.9375 C 356.171875 283.867188 356.460938 283.015625 357.046875 282.390625 C 357.628906 281.757812 358.410156 281.4375 359.390625 281.4375 C 360.273438 281.4375 360.972656 281.726562 361.484375 282.296875 C 362.003906 282.859375 362.265625 283.632812 362.265625 284.609375 Z M 361.1875 284.28125 C 361.175781 283.699219 361.007812 283.230469 360.6875 282.875 C 360.363281 282.523438 359.9375 282.34375 359.40625 282.34375 C 358.800781 282.34375 358.316406 282.515625 357.953125 282.859375 C 357.597656 283.203125 357.394531 283.683594 357.34375 284.296875 Z M 367.835938 282.59375 C 367.710938 282.53125 367.574219 282.484375 367.429688 282.453125 C 367.292969 282.414062 367.136719 282.390625 366.960938 282.390625 C 366.355469 282.390625 365.886719 282.589844 365.554688 282.984375 C 365.230469 283.382812 365.070312 283.953125 365.070312 284.703125 L 365.070312 288.15625 L 363.992188 288.15625 L 363.992188 281.59375 L 365.070312 281.59375 L 365.070312 282.609375 C 365.296875 282.214844 365.59375 281.921875 365.960938 281.734375 C 366.324219 281.539062 366.765625 281.4375 367.289062 281.4375 C 367.359375 281.4375 367.4375 281.445312 367.523438 281.453125 C 367.617188 281.464844 367.714844 281.480469 367.820312 281.5 Z M 368.195312 281.59375 L 369.335938 281.59375 L 371.382812 287.09375 L 373.445312 281.59375 L 374.585938 281.59375 L 372.117188 288.15625 L 370.648438 288.15625 Z M 381.6875 284.609375 L 381.6875 285.125 L 376.71875 285.125 C 376.769531 285.875 376.992188 286.445312 377.390625 286.828125 C 377.796875 287.214844 378.351562 287.40625 379.0625 287.40625 C 379.476562 287.40625 379.878906 287.359375 380.265625 287.265625 C 380.660156 287.164062 381.050781 287.007812 381.4375 286.796875 L 381.4375 287.828125 C 381.039062 287.984375 380.640625 288.105469 380.234375 288.1875 C 379.828125 288.28125 379.414062 288.328125 379 288.328125 C 377.957031 288.328125 377.128906 288.027344 376.515625 287.421875 C 375.898438 286.808594 375.59375 285.980469 375.59375 284.9375 C 375.59375 283.867188 375.882812 283.015625 376.46875 282.390625 C 377.050781 281.757812 377.832031 281.4375 378.8125 281.4375 C 379.695312 281.4375 380.394531 281.726562 380.90625 282.296875 C 381.425781 282.859375 381.6875 283.632812 381.6875 284.609375 Z M 380.609375 284.28125 C 380.597656 283.699219 380.429688 283.230469 380.109375 282.875 C 379.785156 282.523438 379.359375 282.34375 378.828125 282.34375 C 378.222656 282.34375 377.738281 282.515625 377.375 282.859375 C 377.019531 283.203125 376.816406 283.683594 376.765625 284.296875 Z M 387.257812 282.59375 C 387.132812 282.53125 386.996094 282.484375 386.851562 282.453125 C 386.714844 282.414062 386.558594 282.390625 386.382812 282.390625 C 385.777344 282.390625 385.308594 282.589844 384.976562 282.984375 C 384.652344 283.382812 384.492188 283.953125 384.492188 284.703125 L 384.492188 288.15625 L 383.414062 288.15625 L 383.414062 281.59375 L 384.492188 281.59375 L 384.492188 282.609375 C 384.71875 282.214844 385.015625 281.921875 385.382812 281.734375 C 385.746094 281.539062 386.1875 281.4375 386.710938 281.4375 C 386.78125 281.4375 386.859375 281.445312 386.945312 281.453125 C 387.039062 281.464844 387.136719 281.480469 387.242188 281.5 Z M 392.5625 281.78125 L 392.5625 282.8125 C 392.257812 282.65625 391.941406 282.542969 391.609375 282.46875 C 391.285156 282.386719 390.945312 282.34375 390.59375 282.34375 C 390.0625 282.34375 389.660156 282.429688 389.390625 282.59375 C 389.117188 282.75 388.984375 282.996094 388.984375 283.328125 C 388.984375 283.578125 389.078125 283.777344 389.265625 283.921875 C 389.460938 284.058594 389.851562 284.1875 390.4375 284.3125 L 390.796875 284.40625 C 391.566406 284.5625 392.113281 284.792969 392.4375 285.09375 C 392.757812 285.398438 392.921875 285.8125 392.921875 286.34375 C 392.921875 286.960938 392.675781 287.445312 392.1875 287.796875 C 391.707031 288.152344 391.046875 288.328125 390.203125 288.328125 C 389.847656 288.328125 389.476562 288.289062 389.09375 288.21875 C 388.71875 288.15625 388.320312 288.058594 387.90625 287.921875 L 387.90625 286.796875 C 388.300781 287.007812 388.691406 287.164062 389.078125 287.265625 C 389.460938 287.371094 389.847656 287.421875 390.234375 287.421875 C 390.734375 287.421875 391.117188 287.339844 391.390625 287.171875 C 391.671875 286.996094 391.8125 286.746094 391.8125 286.421875 C 391.8125 286.132812 391.710938 285.90625 391.515625 285.75 C 391.316406 285.59375 390.882812 285.445312 390.21875 285.296875 L 389.84375 285.21875 C 389.175781 285.074219 388.691406 284.855469 388.390625 284.5625 C 388.097656 284.273438 387.953125 283.875 387.953125 283.375 C 387.953125 282.75 388.171875 282.273438 388.609375 281.9375 C 389.046875 281.605469 389.664062 281.4375 390.46875 281.4375 C 390.863281 281.4375 391.238281 281.46875 391.59375 281.53125 C 391.945312 281.585938 392.269531 281.667969 392.5625 281.78125 Z M 332.636719 277.015625 "/>
<path style=" stroke:none;fill-rule:nonzero;fill:rgb(96.862745%,44.705882%,40.784314%);fill-opacity:1;" d="M 420.988281 284 C 420.988281 288.6875 417.191406 292.484375 412.503906 292.484375 C 407.820312 292.484375 404.019531 288.6875 404.019531 284 C 404.019531 279.3125 407.820312 275.515625 412.503906 275.515625 C 417.191406 275.515625 420.988281 279.3125 420.988281 284 Z M 420.988281 284 "/>
<g clip-path="url(#clip2)" clip-rule="nonzero">
<path style="fill:none;stroke-width:2;stroke-linecap:butt;stroke-linejoin:miter;stroke:rgb(100%,4.705882%,0%);stroke-opacity:0.247059;stroke-miterlimit:10;" d="M 420.988281 284 C 420.988281 288.6875 417.191406 292.484375 412.503906 292.484375 C 407.820312 292.484375 404.019531 288.6875 404.019531 284 C 404.019531 279.3125 407.820312 275.515625 412.503906 275.515625 C 417.191406 275.515625 420.988281 279.3125 420.988281 284 Z M 420.988281 284 "/>
</g>
<path style=" stroke:none;fill-rule:nonzero;fill:rgb(0%,0%,0%);fill-opacity:1;" d="M 430.132812 280.1875 C 429.527344 280.1875 429.070312 280.492188 428.757812 281.09375 C 428.453125 281.6875 428.304688 282.589844 428.304688 283.796875 C 428.304688 284.996094 428.453125 285.898438 428.757812 286.5 C 429.070312 287.09375 429.527344 287.390625 430.132812 287.390625 C 430.746094 287.390625 431.203125 287.09375 431.507812 286.5 C 431.820312 285.898438 431.976562 284.996094 431.976562 283.796875 C 431.976562 282.589844 431.820312 281.6875 431.507812 281.09375 C 431.203125 280.492188 430.746094 280.1875 430.132812 280.1875 Z M 430.132812 279.25 C 431.109375 279.25 431.859375 279.640625 432.382812 280.421875 C 432.902344 281.195312 433.164062 282.320312 433.164062 283.796875 C 433.164062 285.265625 432.902344 286.390625 432.382812 287.171875 C 431.859375 287.945312 431.109375 288.328125 430.132812 288.328125 C 429.152344 288.328125 428.402344 287.945312 427.882812 287.171875 C 427.371094 286.390625 427.117188 285.265625 427.117188 283.796875 C 427.117188 282.320312 427.371094 281.195312 427.882812 280.421875 C 428.402344 279.640625 429.152344 279.25 430.132812 279.25 Z M 440.125 280.375 L 440.125 283.671875 L 441.609375 283.671875 C 442.160156 283.671875 442.585938 283.53125 442.890625 283.25 C 443.191406 282.960938 443.34375 282.546875 443.34375 282.015625 C 443.34375 281.496094 443.191406 281.09375 442.890625 280.8125 C 442.585938 280.523438 442.160156 280.375 441.609375 280.375 Z M 438.9375 279.40625 L 441.609375 279.40625 C 442.597656 279.40625 443.34375 279.632812 443.84375 280.078125 C 444.34375 280.515625 444.59375 281.164062 444.59375 282.015625 C 444.59375 282.882812 444.34375 283.539062 443.84375 283.984375 C 443.34375 284.421875 442.597656 284.640625 441.609375 284.640625 L 440.125 284.640625 L 440.125 288.15625 L 438.9375 288.15625 Z M 446.128906 279.03125 L 447.207031 279.03125 L 447.207031 288.15625 L 446.128906 288.15625 Z M 452.445312 284.859375 C 451.578125 284.859375 450.976562 284.960938 450.632812 285.15625 C 450.296875 285.355469 450.132812 285.695312 450.132812 286.171875 C 450.132812 286.558594 450.257812 286.867188 450.507812 287.09375 C 450.765625 287.3125 451.109375 287.421875 451.539062 287.421875 C 452.140625 287.421875 452.621094 287.214844 452.976562 286.796875 C 453.339844 286.371094 453.523438 285.804688 453.523438 285.09375 L 453.523438 284.859375 Z M 454.601562 284.40625 L 454.601562 288.15625 L 453.523438 288.15625 L 453.523438 287.15625 C 453.273438 287.554688 452.964844 287.851562 452.601562 288.046875 C 452.234375 288.234375 451.789062 288.328125 451.257812 288.328125 C 450.578125 288.328125 450.042969 288.140625 449.648438 287.765625 C 449.25 287.382812 449.054688 286.875 449.054688 286.25 C 449.054688 285.511719 449.296875 284.953125 449.789062 284.578125 C 450.289062 284.203125 451.027344 284.015625 452.007812 284.015625 L 453.523438 284.015625 L 453.523438 283.90625 C 453.523438 283.40625 453.355469 283.023438 453.023438 282.75 C 452.699219 282.480469 452.246094 282.34375 451.664062 282.34375 C 451.289062 282.34375 450.917969 282.390625 450.554688 282.484375 C 450.199219 282.578125 449.859375 282.714844 449.539062 282.890625 L 449.539062 281.890625 C 449.933594 281.734375 450.3125 281.621094 450.679688 281.546875 C 451.054688 281.476562 451.417969 281.4375 451.773438 281.4375 C 452.71875 281.4375 453.429688 281.683594 453.898438 282.171875 C 454.367188 282.664062 454.601562 283.40625 454.601562 284.40625 Z M 459.550781 288.765625 C 459.246094 289.546875 458.949219 290.054688 458.660156 290.296875 C 458.367188 290.535156 457.980469 290.65625 457.503906 290.65625 L 456.644531 290.65625 L 456.644531 289.75 L 457.269531 289.75 C 457.570312 289.75 457.800781 289.675781 457.957031 289.53125 C 458.121094 289.394531 458.304688 289.066406 458.503906 288.546875 L 458.707031 288.046875 L 456.050781 281.59375 L 457.191406 281.59375 L 459.238281 286.71875 L 461.300781 281.59375 L 462.441406 281.59375 Z M 469.542969 284.609375 L 469.542969 285.125 L 464.574219 285.125 C 464.625 285.875 464.847656 286.445312 465.246094 286.828125 C 465.652344 287.214844 466.207031 287.40625 466.917969 287.40625 C 467.332031 287.40625 467.734375 287.359375 468.121094 287.265625 C 468.515625 287.164062 468.90625 287.007812 469.292969 286.796875 L 469.292969 287.828125 C 468.894531 287.984375 468.496094 288.105469 468.089844 288.1875 C 467.683594 288.28125 467.269531 288.328125 466.855469 288.328125 C 465.8125 288.328125 464.984375 288.027344 464.371094 287.421875 C 463.753906 286.808594 463.449219 285.980469 463.449219 284.9375 C 463.449219 283.867188 463.738281 283.015625 464.324219 282.390625 C 464.90625 281.757812 465.6875 281.4375 466.667969 281.4375 C 467.550781 281.4375 468.25 281.726562 468.761719 282.296875 C 469.28125 282.859375 469.542969 283.632812 469.542969 284.609375 Z M 468.464844 284.28125 C 468.453125 283.699219 468.285156 283.230469 467.964844 282.875 C 467.640625 282.523438 467.214844 282.34375 466.683594 282.34375 C 466.078125 282.34375 465.59375 282.515625 465.230469 282.859375 C 464.875 283.203125 464.671875 283.683594 464.621094 284.296875 Z M 475.113281 282.59375 C 474.988281 282.53125 474.851562 282.484375 474.707031 282.453125 C 474.570312 282.414062 474.414062 282.390625 474.238281 282.390625 C 473.632812 282.390625 473.164062 282.589844 472.832031 282.984375 C 472.507812 283.382812 472.347656 283.953125 472.347656 284.703125 L 472.347656 288.15625 L 471.269531 288.15625 L 471.269531 281.59375 L 472.347656 281.59375 L 472.347656 282.609375 C 472.574219 282.214844 472.871094 281.921875 473.238281 281.734375 C 473.601562 281.539062 474.042969 281.4375 474.566406 281.4375 C 474.636719 281.4375 474.714844 281.445312 474.800781 281.453125 C 474.894531 281.464844 474.992188 281.480469 475.097656 281.5 Z M 480.421875 281.78125 L 480.421875 282.8125 C 480.117188 282.65625 479.800781 282.542969 479.46875 282.46875 C 479.144531 282.386719 478.804688 282.34375 478.453125 282.34375 C 477.921875 282.34375 477.519531 282.429688 477.25 282.59375 C 476.976562 282.75 476.84375 282.996094 476.84375 283.328125 C 476.84375 283.578125 476.9375 283.777344 477.125 283.921875 C 477.320312 284.058594 477.710938 284.1875 478.296875 284.3125 L 478.65625 284.40625 C 479.425781 284.5625 479.972656 284.792969 480.296875 285.09375 C 480.617188 285.398438 480.78125 285.8125 480.78125 286.34375 C 480.78125 286.960938 480.535156 287.445312 480.046875 287.796875 C 479.566406 288.152344 478.90625 288.328125 478.0625 288.328125 C 477.707031 288.328125 477.335938 288.289062 476.953125 288.21875 C 476.578125 288.15625 476.179688 288.058594 475.765625 287.921875 L 475.765625 286.796875 C 476.160156 287.007812 476.550781 287.164062 476.9375 287.265625 C 477.320312 287.371094 477.707031 287.421875 478.09375 287.421875 C 478.59375 287.421875 478.976562 287.339844 479.25 287.171875 C 479.53125 286.996094 479.671875 286.746094 479.671875 286.421875 C 479.671875 286.132812 479.570312 285.90625 479.375 285.75 C 479.175781 285.59375 478.742188 285.445312 478.078125 285.296875 L 477.703125 285.21875 C 477.035156 285.074219 476.550781 284.855469 476.25 284.5625 C 475.957031 284.273438 475.8125 283.875 475.8125 283.375 C 475.8125 282.75 476.03125 282.273438 476.46875 281.9375 C 476.90625 281.605469 477.523438 281.4375 478.328125 281.4375 C 478.722656 281.4375 479.097656 281.46875 479.453125 281.53125 C 479.804688 281.585938 480.128906 281.667969 480.421875 281.78125 Z M 422.503906 277.015625 "/>
<path style=" stroke:none;fill-rule:nonzero;fill:rgb(26.666667%,26.666667%,26.666667%);fill-opacity:1;" d="M 282.09375 14.34375 L 285.875 14.34375 L 289.75 25.109375 L 293.609375 14.34375 L 297.375 14.34375 L 291.984375 28.921875 L 287.5 28.921875 Z M 308.976562 23.421875 L 308.976562 24.421875 L 300.804688 24.421875 C 300.886719 25.246094 301.183594 25.859375 301.695312 26.265625 C 302.203125 26.671875 302.914062 26.875 303.820312 26.875 C 304.558594 26.875 305.3125 26.765625 306.085938 26.546875 C 306.855469 26.328125 307.648438 26 308.460938 25.5625 L 308.460938 28.25 C 307.636719 28.5625 306.808594 28.796875 305.976562 28.953125 C 305.152344 29.117188 304.328125 29.203125 303.507812 29.203125 C 301.527344 29.203125 299.984375 28.703125 298.882812 27.703125 C 297.789062 26.695312 297.242188 25.28125 297.242188 23.46875 C 297.242188 21.679688 297.777344 20.273438 298.851562 19.25 C 299.933594 18.230469 301.417969 17.71875 303.304688 17.71875 C 305.023438 17.71875 306.398438 18.242188 307.429688 19.28125 C 308.460938 20.3125 308.976562 21.695312 308.976562 23.421875 Z M 305.382812 22.265625 C 305.382812 21.601562 305.1875 21.0625 304.804688 20.65625 C 304.417969 20.25 303.914062 20.046875 303.289062 20.046875 C 302.609375 20.046875 302.058594 20.242188 301.632812 20.625 C 301.214844 21 300.953125 21.546875 300.851562 22.265625 Z M 311.636719 13.71875 L 315.121094 13.71875 L 315.121094 28.921875 L 311.636719 28.921875 Z M 323.695312 20.21875 C 322.914062 20.21875 322.320312 20.5 321.914062 21.0625 C 321.507812 21.617188 321.304688 22.417969 321.304688 23.46875 C 321.304688 24.511719 321.507812 25.3125 321.914062 25.875 C 322.320312 26.429688 322.914062 26.703125 323.695312 26.703125 C 324.453125 26.703125 325.03125 26.429688 325.429688 25.875 C 325.835938 25.3125 326.039062 24.511719 326.039062 23.46875 C 326.039062 22.417969 325.835938 21.617188 325.429688 21.0625 C 325.03125 20.5 324.453125 20.21875 323.695312 20.21875 Z M 323.695312 17.71875 C 325.570312 17.71875 327.03125 18.230469 328.085938 19.25 C 329.148438 20.261719 329.679688 21.667969 329.679688 23.46875 C 329.679688 25.261719 329.148438 26.667969 328.085938 27.6875 C 327.03125 28.699219 325.570312 29.203125 323.695312 29.203125 C 321.796875 29.203125 320.320312 28.699219 319.257812 27.6875 C 318.195312 26.667969 317.664062 25.261719 317.664062 23.46875 C 317.664062 21.667969 318.195312 20.261719 319.257812 19.25 C 320.320312 18.230469 321.796875 17.71875 323.695312 17.71875 Z M 341.0625 18.328125 L 341.0625 21.171875 C 340.59375 20.851562 340.117188 20.609375 339.640625 20.453125 C 339.160156 20.296875 338.660156 20.21875 338.140625 20.21875 C 337.171875 20.21875 336.410156 20.507812 335.859375 21.078125 C 335.316406 21.640625 335.046875 22.4375 335.046875 23.46875 C 335.046875 24.492188 335.316406 25.289062 335.859375 25.859375 C 336.410156 26.421875 337.171875 26.703125 338.140625 26.703125 C 338.691406 26.703125 339.210938 26.625 339.703125 26.46875 C 340.191406 26.304688 340.644531 26.058594 341.0625 25.734375 L 341.0625 28.59375 C 340.519531 28.804688 339.96875 28.953125 339.40625 29.046875 C 338.84375 29.148438 338.273438 29.203125 337.703125 29.203125 C 335.734375 29.203125 334.191406 28.699219 333.078125 27.6875 C 331.960938 26.679688 331.40625 25.273438 331.40625 23.46875 C 331.40625 21.65625 331.960938 20.246094 333.078125 19.234375 C 334.191406 18.226562 335.734375 17.71875 337.703125 17.71875 C 338.273438 17.71875 338.835938 17.773438 339.390625 17.875 C 339.953125 17.96875 340.507812 18.121094 341.0625 18.328125 Z M 344.085938 17.984375 L 347.570312 17.984375 L 347.570312 28.921875 L 344.085938 28.921875 Z M 344.085938 13.71875 L 347.570312 13.71875 L 347.570312 16.578125 L 344.085938 16.578125 Z M 354.757812 14.875 L 354.757812 17.984375 L 358.367188 17.984375 L 358.367188 20.484375 L 354.757812 20.484375 L 354.757812 25.125 C 354.757812 25.636719 354.855469 25.980469 355.054688 26.15625 C 355.261719 26.335938 355.664062 26.421875 356.257812 26.421875 L 358.054688 26.421875 L 358.054688 28.921875 L 355.054688 28.921875 C 353.679688 28.921875 352.699219 28.636719 352.117188 28.0625 C 351.542969 27.480469 351.257812 26.5 351.257812 25.125 L 351.257812 20.484375 L 349.523438 20.484375 L 349.523438 17.984375 L 351.257812 17.984375 L 351.257812 14.875 Z M 359.066406 17.984375 L 362.550781 17.984375 L 365.503906 25.40625 L 368.003906 17.984375 L 371.488281 17.984375 L 366.894531 29.953125 C 366.433594 31.171875 365.894531 32.019531 365.269531 32.5 C 364.652344 32.988281 363.847656 33.234375 362.847656 33.234375 L 360.816406 33.234375 L 360.816406 30.9375 L 361.910156 30.9375 C 362.503906 30.9375 362.933594 30.84375 363.207031 30.65625 C 363.476562 30.46875 363.683594 30.128906 363.832031 29.640625 L 363.941406 29.34375 Z M 385.257812 28.125 C 384.558594 28.480469 383.835938 28.746094 383.085938 28.921875 C 382.34375 29.109375 381.5625 29.203125 380.742188 29.203125 C 378.3125 29.203125 376.390625 28.527344 374.976562 27.171875 C 373.558594 25.808594 372.851562 23.964844 372.851562 21.640625 C 372.851562 19.320312 373.558594 17.480469 374.976562 16.125 C 376.390625 14.761719 378.3125 14.078125 380.742188 14.078125 C 381.5625 14.078125 382.34375 14.171875 383.085938 14.359375 C 383.835938 14.539062 384.558594 14.804688 385.257812 15.15625 L 385.257812 18.171875 C 384.558594 17.703125 383.871094 17.359375 383.195312 17.140625 C 382.515625 16.914062 381.804688 16.796875 381.054688 16.796875 C 379.710938 16.796875 378.652344 17.230469 377.882812 18.09375 C 377.121094 18.949219 376.742188 20.132812 376.742188 21.640625 C 376.742188 23.152344 377.121094 24.339844 377.882812 25.203125 C 378.652344 26.058594 379.710938 26.484375 381.054688 26.484375 C 381.804688 26.484375 382.515625 26.375 383.195312 26.15625 C 383.871094 25.929688 384.558594 25.578125 385.257812 25.109375 Z M 388.375 14.34375 L 392.5625 14.34375 L 397.875 24.34375 L 397.875 14.34375 L 401.4375 14.34375 L 401.4375 28.921875 L 397.234375 28.921875 L 391.9375 18.921875 L 391.9375 28.921875 L 388.375 28.921875 Z M 417.734375 26.671875 C 418.484375 26.671875 419.054688 26.402344 419.453125 25.859375 C 419.847656 25.308594 420.046875 24.511719 420.046875 23.46875 C 420.046875 22.429688 419.847656 21.636719 419.453125 21.09375 C 419.054688 20.542969 418.484375 20.265625 417.734375 20.265625 C 416.984375 20.265625 416.40625 20.542969 416 21.09375 C 415.601562 21.636719 415.40625 22.429688 415.40625 23.46875 C 415.40625 24.5 415.601562 25.292969 416 25.84375 C 416.40625 26.398438 416.984375 26.671875 417.734375 26.671875 Z M 415.40625 19.578125 C 415.894531 18.945312 416.429688 18.476562 417.015625 18.171875 C 417.597656 17.871094 418.269531 17.71875 419.03125 17.71875 C 420.382812 17.71875 421.492188 18.257812 422.359375 19.328125 C 423.222656 20.402344 423.65625 21.78125 423.65625 23.46875 C 423.65625 25.148438 423.222656 26.523438 422.359375 27.59375 C 421.492188 28.667969 420.382812 29.203125 419.03125 29.203125 C 418.269531 29.203125 417.597656 29.050781 417.015625 28.75 C 416.429688 28.449219 415.894531 27.980469 415.40625 27.34375 L 415.40625 28.921875 L 411.921875 28.921875 L 411.921875 13.71875 L 415.40625 13.71875 Z M 424.796875 17.984375 L 428.28125 17.984375 L 431.234375 25.40625 L 433.734375 17.984375 L 437.21875 17.984375 L 432.625 29.953125 C 432.164062 31.171875 431.625 32.019531 431 32.5 C 430.382812 32.988281 429.578125 33.234375 428.578125 33.234375 L 426.546875 33.234375 L 426.546875 30.9375 L 427.640625 30.9375 C 428.234375 30.9375 428.664062 30.84375 428.9375 30.65625 C 429.207031 30.46875 429.414062 30.128906 429.5625 29.640625 L 429.671875 29.34375 Z M 446.234375 13.71875 L 449.71875 13.71875 L 449.71875 22 L 453.75 17.984375 L 457.8125 17.984375 L 452.46875 23 L 458.234375 28.921875 L 453.984375 28.921875 L 449.71875 24.359375 L 449.71875 28.921875 L 446.234375 28.921875 Z M 468.070312 18.328125 L 468.070312 20.984375 C 467.328125 20.671875 466.609375 20.4375 465.914062 20.28125 C 465.214844 20.125 464.554688 20.046875 463.929688 20.046875 C 463.273438 20.046875 462.78125 20.132812 462.460938 20.296875 C 462.136719 20.464844 461.976562 20.71875 461.976562 21.0625 C 461.976562 21.34375 462.09375 21.558594 462.335938 21.703125 C 462.585938 21.851562 463.023438 21.960938 463.648438 22.03125 L 464.273438 22.125 C 466.0625 22.355469 467.265625 22.730469 467.882812 23.25 C 468.496094 23.773438 468.804688 24.589844 468.804688 25.703125 C 468.804688 26.871094 468.371094 27.746094 467.507812 28.328125 C 466.652344 28.914062 465.375 29.203125 463.679688 29.203125 C 462.949219 29.203125 462.199219 29.144531 461.429688 29.03125 C 460.65625 28.917969 459.867188 28.746094 459.054688 28.515625 L 459.054688 25.859375 C 459.75 26.203125 460.464844 26.460938 461.195312 26.625 C 461.921875 26.792969 462.667969 26.875 463.429688 26.875 C 464.117188 26.875 464.632812 26.78125 464.976562 26.59375 C 465.320312 26.40625 465.492188 26.125 465.492188 25.75 C 465.492188 25.4375 465.371094 25.210938 465.132812 25.0625 C 464.890625 24.90625 464.417969 24.789062 463.710938 24.703125 L 463.101562 24.625 C 461.539062 24.429688 460.445312 24.070312 459.820312 23.546875 C 459.195312 23.015625 458.882812 22.214844 458.882812 21.140625 C 458.882812 19.984375 459.277344 19.125 460.070312 18.5625 C 460.871094 18 462.089844 17.71875 463.726562 17.71875 C 464.371094 17.71875 465.046875 17.773438 465.757812 17.875 C 466.464844 17.96875 467.234375 18.121094 468.070312 18.328125 Z M 476.566406 20.265625 C 475.824219 20.265625 475.257812 20.542969 474.863281 21.09375 C 474.464844 21.636719 474.269531 22.429688 474.269531 23.46875 C 474.269531 24.511719 474.464844 25.308594 474.863281 25.859375 C 475.257812 26.402344 475.824219 26.671875 476.566406 26.671875 C 477.316406 26.671875 477.886719 26.402344 478.285156 25.859375 C 478.679688 25.308594 478.878906 24.511719 478.878906 23.46875 C 478.878906 22.429688 478.679688 21.636719 478.285156 21.09375 C 477.886719 20.542969 477.316406 20.265625 476.566406 20.265625 Z M 478.878906 27.34375 C 478.398438 27.992188 477.867188 28.464844 477.285156 28.765625 C 476.699219 29.054688 476.027344 29.203125 475.269531 29.203125 C 473.925781 29.203125 472.820312 28.667969 471.957031 27.59375 C 471.089844 26.523438 470.660156 25.148438 470.660156 23.46875 C 470.660156 21.78125 471.089844 20.40625 471.957031 19.34375 C 472.820312 18.273438 473.925781 17.734375 475.269531 17.734375 C 476.027344 17.734375 476.699219 17.886719 477.285156 18.1875 C 477.867188 18.492188 478.398438 18.964844 478.878906 19.609375 L 478.878906 17.984375 L 482.394531 17.984375 L 482.394531 33.078125 L 478.878906 33.078125 Z M 496.664062 23.421875 L 496.664062 24.421875 L 488.492188 24.421875 C 488.574219 25.246094 488.871094 25.859375 489.382812 26.265625 C 489.890625 26.671875 490.601562 26.875 491.507812 26.875 C 492.246094 26.875 493 26.765625 493.773438 26.546875 C 494.542969 26.328125 495.335938 26 496.148438 25.5625 L 496.148438 28.25 C 495.324219 28.5625 494.496094 28.796875 493.664062 28.953125 C 492.839844 29.117188 492.015625 29.203125 491.195312 29.203125 C 489.214844 29.203125 487.671875 28.703125 486.570312 27.703125 C 485.476562 26.695312 484.929688 25.28125 484.929688 23.46875 C 484.929688 21.679688 485.464844 20.273438 486.539062 19.25 C 487.621094 18.230469 489.105469 17.71875 490.992188 17.71875 C 492.710938 17.71875 494.085938 18.242188 495.117188 19.28125 C 496.148438 20.3125 496.664062 21.695312 496.664062 23.421875 Z M 493.070312 22.265625 C 493.070312 21.601562 492.875 21.0625 492.492188 20.65625 C 492.105469 20.25 491.601562 20.046875 490.976562 20.046875 C 490.296875 20.046875 489.746094 20.242188 489.320312 20.625 C 488.902344 21 488.640625 21.546875 488.539062 22.265625 Z M 499.320312 17.984375 L 502.804688 17.984375 L 502.804688 28.921875 L 499.320312 28.921875 Z M 499.320312 13.71875 L 502.804688 13.71875 L 502.804688 16.578125 L 499.320312 16.578125 Z M 511.992188 26.671875 C 512.742188 26.671875 513.3125 26.402344 513.710938 25.859375 C 514.105469 25.308594 514.304688 24.511719 514.304688 23.46875 C 514.304688 22.429688 514.105469 21.636719 513.710938 21.09375 C 513.3125 20.542969 512.742188 20.265625 511.992188 20.265625 C 511.242188 20.265625 510.664062 20.542969 510.257812 21.09375 C 509.859375 21.636719 509.664062 22.429688 509.664062 23.46875 C 509.664062 24.5 509.859375 25.292969 510.257812 25.84375 C 510.664062 26.398438 511.242188 26.671875 511.992188 26.671875 Z M 509.664062 19.578125 C 510.152344 18.945312 510.6875 18.476562 511.273438 18.171875 C 511.855469 17.871094 512.527344 17.71875 513.289062 17.71875 C 514.640625 17.71875 515.75 18.257812 516.617188 19.328125 C 517.480469 20.402344 517.914062 21.78125 517.914062 23.46875 C 517.914062 25.148438 517.480469 26.523438 516.617188 27.59375 C 515.75 28.667969 514.640625 29.203125 513.289062 29.203125 C 512.527344 29.203125 511.855469 29.050781 511.273438 28.75 C 510.6875 28.449219 510.152344 27.980469 509.664062 27.34375 L 509.664062 28.921875 L 506.179688 28.921875 L 506.179688 13.71875 L 509.664062 13.71875 Z M 282 10.359375 "/>
<path style="fill:none;stroke-width:1;stroke-linecap:butt;stroke-linejoin:miter;stroke:rgb(0%,0%,0%);stroke-opacity:0.0980392;stroke-miterlimit:10;" d="M 33 234.5 L 796 234.5 "/>
<path style=" stroke:none;fill-rule:nonzero;fill:rgb(40%,40%,40%);fill-opacity:1;" d="M 102.960938 248.203125 L 107.992188 248.203125 L 107.992188 249.203125 L 104.148438 249.203125 L 104.148438 251.78125 L 107.617188 251.78125 L 107.617188 252.78125 L 104.148438 252.78125 L 104.148438 256.953125 L 102.960938 256.953125 Z M 114.785156 253.40625 L 114.785156 253.921875 L 109.816406 253.921875 C 109.867188 254.671875 110.089844 255.242188 110.488281 255.625 C 110.894531 256.011719 111.449219 256.203125 112.160156 256.203125 C 112.574219 256.203125 112.976562 256.15625 113.363281 256.0625 C 113.757812 255.960938 114.148438 255.804688 114.535156 255.59375 L 114.535156 256.625 C 114.136719 256.78125 113.738281 256.902344 113.332031 256.984375 C 112.925781 257.078125 112.511719 257.125 112.097656 257.125 C 111.054688 257.125 110.226562 256.824219 109.613281 256.21875 C 108.996094 255.605469 108.691406 254.777344 108.691406 253.734375 C 108.691406 252.664062 108.980469 251.8125 109.566406 251.1875 C 110.148438 250.554688 110.929688 250.234375 111.910156 250.234375 C 112.792969 250.234375 113.492188 250.523438 114.003906 251.09375 C 114.523438 251.65625 114.785156 252.429688 114.785156 253.40625 Z M 113.707031 253.078125 C 113.695312 252.496094 113.527344 252.027344 113.207031 251.671875 C 112.882812 251.320312 112.457031 251.140625 111.925781 251.140625 C 111.320312 251.140625 110.835938 251.3125 110.472656 251.65625 C 110.117188 252 109.914062 252.480469 109.863281 253.09375 Z M 121.261719 253.671875 C 121.261719 252.882812 121.09375 252.261719 120.761719 251.8125 C 120.4375 251.367188 119.996094 251.140625 119.433594 251.140625 C 118.859375 251.140625 118.40625 251.367188 118.074219 251.8125 C 117.75 252.261719 117.589844 252.882812 117.589844 253.671875 C 117.589844 254.464844 117.75 255.089844 118.074219 255.546875 C 118.40625 255.996094 118.859375 256.21875 119.433594 256.21875 C 119.996094 256.21875 120.4375 255.996094 120.761719 255.546875 C 121.09375 255.089844 121.261719 254.464844 121.261719 253.671875 Z M 117.589844 251.390625 C 117.816406 250.996094 118.105469 250.703125 118.449219 250.515625 C 118.792969 250.328125 119.203125 250.234375 119.683594 250.234375 C 120.484375 250.234375 121.136719 250.554688 121.636719 251.1875 C 122.136719 251.8125 122.386719 252.640625 122.386719 253.671875 C 122.386719 254.703125 122.136719 255.539062 121.636719 256.171875 C 121.136719 256.808594 120.484375 257.125 119.683594 257.125 C 119.203125 257.125 118.792969 257.03125 118.449219 256.84375 C 118.105469 256.648438 117.816406 256.355469 117.589844 255.96875 L 117.589844 256.953125 L 116.511719 256.953125 L 116.511719 247.828125 L 117.589844 247.828125 Z M 129.148438 255.953125 L 133.289062 255.953125 L 133.289062 256.953125 L 127.726562 256.953125 L 127.726562 255.953125 C 128.171875 255.496094 128.78125 254.875 129.554688 254.09375 C 130.335938 253.304688 130.824219 252.792969 131.023438 252.5625 C 131.40625 252.148438 131.671875 251.792969 131.820312 251.5 C 131.976562 251.199219 132.054688 250.90625 132.054688 250.625 C 132.054688 250.15625 131.886719 249.777344 131.554688 249.484375 C 131.230469 249.195312 130.808594 249.046875 130.289062 249.046875 C 129.914062 249.046875 129.515625 249.109375 129.101562 249.234375 C 128.695312 249.359375 128.257812 249.558594 127.789062 249.828125 L 127.789062 248.625 C 128.265625 248.4375 128.710938 248.296875 129.117188 248.203125 C 129.53125 248.101562 129.914062 248.046875 130.257812 248.046875 C 131.164062 248.046875 131.886719 248.277344 132.429688 248.734375 C 132.96875 249.183594 133.242188 249.789062 133.242188 250.546875 C 133.242188 250.902344 133.171875 251.242188 133.039062 251.5625 C 132.902344 251.886719 132.65625 252.265625 132.304688 252.703125 C 132.199219 252.820312 131.886719 253.148438 131.367188 253.6875 C 130.84375 254.230469 130.105469 254.984375 129.148438 255.953125 Z M 135.96875 255.953125 L 137.90625 255.953125 L 137.90625 249.28125 L 135.796875 249.703125 L 135.796875 248.625 L 137.890625 248.203125 L 139.078125 248.203125 L 139.078125 255.953125 L 141.015625 255.953125 L 141.015625 256.953125 L 135.96875 256.953125 Z M 101.789062 245.816406 "/>
<path style=" stroke:none;fill-rule:nonzero;fill:rgb(40%,40%,40%);fill-opacity:1;" d="M 212.132812 248.203125 L 217.164062 248.203125 L 217.164062 249.203125 L 213.320312 249.203125 L 213.320312 251.78125 L 216.789062 251.78125 L 216.789062 252.78125 L 213.320312 252.78125 L 213.320312 256.953125 L 212.132812 256.953125 Z M 223.957031 253.40625 L 223.957031 253.921875 L 218.988281 253.921875 C 219.039062 254.671875 219.261719 255.242188 219.660156 255.625 C 220.066406 256.011719 220.621094 256.203125 221.332031 256.203125 C 221.746094 256.203125 222.148438 256.15625 222.535156 256.0625 C 222.929688 255.960938 223.320312 255.804688 223.707031 255.59375 L 223.707031 256.625 C 223.308594 256.78125 222.910156 256.902344 222.503906 256.984375 C 222.097656 257.078125 221.683594 257.125 221.269531 257.125 C 220.226562 257.125 219.398438 256.824219 218.785156 256.21875 C 218.167969 255.605469 217.863281 254.777344 217.863281 253.734375 C 217.863281 252.664062 218.152344 251.8125 218.738281 251.1875 C 219.320312 250.554688 220.101562 250.234375 221.082031 250.234375 C 221.964844 250.234375 222.664062 250.523438 223.175781 251.09375 C 223.695312 251.65625 223.957031 252.429688 223.957031 253.40625 Z M 222.878906 253.078125 C 222.867188 252.496094 222.699219 252.027344 222.378906 251.671875 C 222.054688 251.320312 221.628906 251.140625 221.097656 251.140625 C 220.492188 251.140625 220.007812 251.3125 219.644531 251.65625 C 219.289062 252 219.085938 252.480469 219.035156 253.09375 Z M 230.433594 253.671875 C 230.433594 252.882812 230.265625 252.261719 229.933594 251.8125 C 229.609375 251.367188 229.167969 251.140625 228.605469 251.140625 C 228.03125 251.140625 227.578125 251.367188 227.246094 251.8125 C 226.921875 252.261719 226.761719 252.882812 226.761719 253.671875 C 226.761719 254.464844 226.921875 255.089844 227.246094 255.546875 C 227.578125 255.996094 228.03125 256.21875 228.605469 256.21875 C 229.167969 256.21875 229.609375 255.996094 229.933594 255.546875 C 230.265625 255.089844 230.433594 254.464844 230.433594 253.671875 Z M 226.761719 251.390625 C 226.988281 250.996094 227.277344 250.703125 227.621094 250.515625 C 227.964844 250.328125 228.375 250.234375 228.855469 250.234375 C 229.65625 250.234375 230.308594 250.554688 230.808594 251.1875 C 231.308594 251.8125 231.558594 252.640625 231.558594 253.671875 C 231.558594 254.703125 231.308594 255.539062 230.808594 256.171875 C 230.308594 256.808594 229.65625 257.125 228.855469 257.125 C 228.375 257.125 227.964844 257.03125 227.621094 256.84375 C 227.277344 256.648438 226.988281 256.355469 226.761719 255.96875 L 226.761719 256.953125 L 225.683594 256.953125 L 225.683594 247.828125 L 226.761719 247.828125 Z M 238.320312 255.953125 L 242.460938 255.953125 L 242.460938 256.953125 L 236.898438 256.953125 L 236.898438 255.953125 C 237.34375 255.496094 237.953125 254.875 238.726562 254.09375 C 239.507812 253.304688 239.996094 252.792969 240.195312 252.5625 C 240.578125 252.148438 240.84375 251.792969 240.992188 251.5 C 241.148438 251.199219 241.226562 250.90625 241.226562 250.625 C 241.226562 250.15625 241.058594 249.777344 240.726562 249.484375 C 240.402344 249.195312 239.980469 249.046875 239.460938 249.046875 C 239.085938 249.046875 238.6875 249.109375 238.273438 249.234375 C 237.867188 249.359375 237.429688 249.558594 236.960938 249.828125 L 236.960938 248.625 C 237.4375 248.4375 237.882812 248.296875 238.289062 248.203125 C 238.703125 248.101562 239.085938 248.046875 239.429688 248.046875 C 240.335938 248.046875 241.058594 248.277344 241.601562 248.734375 C 242.140625 249.183594 242.414062 249.789062 242.414062 250.546875 C 242.414062 250.902344 242.34375 251.242188 242.210938 251.5625 C 242.074219 251.886719 241.828125 252.265625 241.476562 252.703125 C 241.371094 252.820312 241.058594 253.148438 240.539062 253.6875 C 240.015625 254.230469 239.277344 254.984375 238.320312 255.953125 Z M 245.953125 255.953125 L 250.09375 255.953125 L 250.09375 256.953125 L 244.53125 256.953125 L 244.53125 255.953125 C 244.976562 255.496094 245.585938 254.875 246.359375 254.09375 C 247.140625 253.304688 247.628906 252.792969 247.828125 252.5625 C 248.210938 252.148438 248.476562 251.792969 248.625 251.5 C 248.78125 251.199219 248.859375 250.90625 248.859375 250.625 C 248.859375 250.15625 248.691406 249.777344 248.359375 249.484375 C 248.035156 249.195312 247.613281 249.046875 247.09375 249.046875 C 246.71875 249.046875 246.320312 249.109375 245.90625 249.234375 C 245.5 249.359375 245.0625 249.558594 244.59375 249.828125 L 244.59375 248.625 C 245.070312 248.4375 245.515625 248.296875 245.921875 248.203125 C 246.335938 248.101562 246.71875 248.046875 247.0625 248.046875 C 247.96875 248.046875 248.691406 248.277344 249.234375 248.734375 C 249.773438 249.183594 250.046875 249.789062 250.046875 250.546875 C 250.046875 250.902344 249.976562 251.242188 249.84375 251.5625 C 249.707031 251.886719 249.460938 252.265625 249.109375 252.703125 C 249.003906 252.820312 248.691406 253.148438 248.171875 253.6875 C 247.648438 254.230469 246.910156 254.984375 245.953125 255.953125 Z M 210.960938 245.816406 "/>
<path style=" stroke:none;fill-rule:nonzero;fill:rgb(40%,40%,40%);fill-opacity:1;" d="M 321.308594 248.203125 L 326.339844 248.203125 L 326.339844 249.203125 L 322.496094 249.203125 L 322.496094 251.78125 L 325.964844 251.78125 L 325.964844 252.78125 L 322.496094 252.78125 L 322.496094 256.953125 L 321.308594 256.953125 Z M 333.132812 253.40625 L 333.132812 253.921875 L 328.164062 253.921875 C 328.214844 254.671875 328.4375 255.242188 328.835938 255.625 C 329.242188 256.011719 329.796875 256.203125 330.507812 256.203125 C 330.921875 256.203125 331.324219 256.15625 331.710938 256.0625 C 332.105469 255.960938 332.496094 255.804688 332.882812 255.59375 L 332.882812 256.625 C 332.484375 256.78125 332.085938 256.902344 331.679688 256.984375 C 331.273438 257.078125 330.859375 257.125 330.445312 257.125 C 329.402344 257.125 328.574219 256.824219 327.960938 256.21875 C 327.34375 255.605469 327.039062 254.777344 327.039062 253.734375 C 327.039062 252.664062 327.328125 251.8125 327.914062 251.1875 C 328.496094 250.554688 329.277344 250.234375 330.257812 250.234375 C 331.140625 250.234375 331.839844 250.523438 332.351562 251.09375 C 332.871094 251.65625 333.132812 252.429688 333.132812 253.40625 Z M 332.054688 253.078125 C 332.042969 252.496094 331.875 252.027344 331.554688 251.671875 C 331.230469 251.320312 330.804688 251.140625 330.273438 251.140625 C 329.667969 251.140625 329.183594 251.3125 328.820312 251.65625 C 328.464844 252 328.261719 252.480469 328.210938 253.09375 Z M 339.609375 253.671875 C 339.609375 252.882812 339.441406 252.261719 339.109375 251.8125 C 338.785156 251.367188 338.34375 251.140625 337.78125 251.140625 C 337.207031 251.140625 336.753906 251.367188 336.421875 251.8125 C 336.097656 252.261719 335.9375 252.882812 335.9375 253.671875 C 335.9375 254.464844 336.097656 255.089844 336.421875 255.546875 C 336.753906 255.996094 337.207031 256.21875 337.78125 256.21875 C 338.34375 256.21875 338.785156 255.996094 339.109375 255.546875 C 339.441406 255.089844 339.609375 254.464844 339.609375 253.671875 Z M 335.9375 251.390625 C 336.164062 250.996094 336.453125 250.703125 336.796875 250.515625 C 337.140625 250.328125 337.550781 250.234375 338.03125 250.234375 C 338.832031 250.234375 339.484375 250.554688 339.984375 251.1875 C 340.484375 251.8125 340.734375 252.640625 340.734375 253.671875 C 340.734375 254.703125 340.484375 255.539062 339.984375 256.171875 C 339.484375 256.808594 338.832031 257.125 338.03125 257.125 C 337.550781 257.125 337.140625 257.03125 336.796875 256.84375 C 336.453125 256.648438 336.164062 256.355469 335.9375 255.96875 L 335.9375 256.953125 L 334.859375 256.953125 L 334.859375 247.828125 L 335.9375 247.828125 Z M 347.492188 255.953125 L 351.632812 255.953125 L 351.632812 256.953125 L 346.070312 256.953125 L 346.070312 255.953125 C 346.515625 255.496094 347.125 254.875 347.898438 254.09375 C 348.679688 253.304688 349.167969 252.792969 349.367188 252.5625 C 349.75 252.148438 350.015625 251.792969 350.164062 251.5 C 350.320312 251.199219 350.398438 250.90625 350.398438 250.625 C 350.398438 250.15625 350.230469 249.777344 349.898438 249.484375 C 349.574219 249.195312 349.152344 249.046875 348.632812 249.046875 C 348.257812 249.046875 347.859375 249.109375 347.445312 249.234375 C 347.039062 249.359375 346.601562 249.558594 346.132812 249.828125 L 346.132812 248.625 C 346.609375 248.4375 347.054688 248.296875 347.460938 248.203125 C 347.875 248.101562 348.257812 248.046875 348.601562 248.046875 C 349.507812 248.046875 350.230469 248.277344 350.773438 248.734375 C 351.3125 249.183594 351.585938 249.789062 351.585938 250.546875 C 351.585938 250.902344 351.515625 251.242188 351.382812 251.5625 C 351.246094 251.886719 351 252.265625 350.648438 252.703125 C 350.542969 252.820312 350.230469 253.148438 349.710938 253.6875 C 349.1875 254.230469 348.449219 254.984375 347.492188 255.953125 Z M 357.707031 252.234375 C 358.269531 252.359375 358.707031 252.617188 359.019531 253 C 359.339844 253.375 359.503906 253.84375 359.503906 254.40625 C 359.503906 255.273438 359.207031 255.945312 358.613281 256.421875 C 358.019531 256.890625 357.175781 257.125 356.082031 257.125 C 355.714844 257.125 355.335938 257.085938 354.941406 257.015625 C 354.554688 256.945312 354.160156 256.835938 353.753906 256.6875 L 353.753906 255.546875 C 354.074219 255.734375 354.429688 255.882812 354.816406 255.984375 C 355.210938 256.078125 355.621094 256.125 356.050781 256.125 C 356.789062 256.125 357.351562 255.980469 357.738281 255.6875 C 358.132812 255.398438 358.332031 254.96875 358.332031 254.40625 C 358.332031 253.898438 358.148438 253.496094 357.785156 253.203125 C 357.417969 252.914062 356.917969 252.765625 356.285156 252.765625 L 355.253906 252.765625 L 355.253906 251.796875 L 356.332031 251.796875 C 356.902344 251.796875 357.347656 251.683594 357.660156 251.453125 C 357.972656 251.214844 358.128906 250.875 358.128906 250.4375 C 358.128906 249.992188 357.964844 249.648438 357.644531 249.40625 C 357.332031 249.167969 356.878906 249.046875 356.285156 249.046875 C 355.949219 249.046875 355.597656 249.085938 355.222656 249.15625 C 354.855469 249.21875 354.449219 249.324219 354.003906 249.46875 L 354.003906 248.421875 C 354.460938 248.296875 354.882812 248.203125 355.269531 248.140625 C 355.664062 248.078125 356.035156 248.046875 356.378906 248.046875 C 357.285156 248.046875 357.996094 248.25 358.519531 248.65625 C 359.039062 249.0625 359.300781 249.617188 359.300781 250.3125 C 359.300781 250.804688 359.160156 251.214844 358.878906 251.546875 C 358.605469 251.882812 358.214844 252.109375 357.707031 252.234375 Z M 320.136719 245.816406 "/>
<path style=" stroke:none;fill-rule:nonzero;fill:rgb(40%,40%,40%);fill-opacity:1;" d="M 430.484375 248.203125 L 435.515625 248.203125 L 435.515625 249.203125 L 431.671875 249.203125 L 431.671875 251.78125 L 435.140625 251.78125 L 435.140625 252.78125 L 431.671875 252.78125 L 431.671875 256.953125 L 430.484375 256.953125 Z M 442.308594 253.40625 L 442.308594 253.921875 L 437.339844 253.921875 C 437.390625 254.671875 437.613281 255.242188 438.011719 255.625 C 438.417969 256.011719 438.972656 256.203125 439.683594 256.203125 C 440.097656 256.203125 440.5 256.15625 440.886719 256.0625 C 441.28125 255.960938 441.671875 255.804688 442.058594 255.59375 L 442.058594 256.625 C 441.660156 256.78125 441.261719 256.902344 440.855469 256.984375 C 440.449219 257.078125 440.035156 257.125 439.621094 257.125 C 438.578125 257.125 437.75 256.824219 437.136719 256.21875 C 436.519531 255.605469 436.214844 254.777344 436.214844 253.734375 C 436.214844 252.664062 436.503906 251.8125 437.089844 251.1875 C 437.671875 250.554688 438.453125 250.234375 439.433594 250.234375 C 440.316406 250.234375 441.015625 250.523438 441.527344 251.09375 C 442.046875 251.65625 442.308594 252.429688 442.308594 253.40625 Z M 441.230469 253.078125 C 441.21875 252.496094 441.050781 252.027344 440.730469 251.671875 C 440.40625 251.320312 439.980469 251.140625 439.449219 251.140625 C 438.84375 251.140625 438.359375 251.3125 437.996094 251.65625 C 437.640625 252 437.4375 252.480469 437.386719 253.09375 Z M 448.785156 253.671875 C 448.785156 252.882812 448.617188 252.261719 448.285156 251.8125 C 447.960938 251.367188 447.519531 251.140625 446.957031 251.140625 C 446.382812 251.140625 445.929688 251.367188 445.597656 251.8125 C 445.273438 252.261719 445.113281 252.882812 445.113281 253.671875 C 445.113281 254.464844 445.273438 255.089844 445.597656 255.546875 C 445.929688 255.996094 446.382812 256.21875 446.957031 256.21875 C 447.519531 256.21875 447.960938 255.996094 448.285156 255.546875 C 448.617188 255.089844 448.785156 254.464844 448.785156 253.671875 Z M 445.113281 251.390625 C 445.339844 250.996094 445.628906 250.703125 445.972656 250.515625 C 446.316406 250.328125 446.726562 250.234375 447.207031 250.234375 C 448.007812 250.234375 448.660156 250.554688 449.160156 251.1875 C 449.660156 251.8125 449.910156 252.640625 449.910156 253.671875 C 449.910156 254.703125 449.660156 255.539062 449.160156 256.171875 C 448.660156 256.808594 448.007812 257.125 447.207031 257.125 C 446.726562 257.125 446.316406 257.03125 445.972656 256.84375 C 445.628906 256.648438 445.339844 256.355469 445.113281 255.96875 L 445.113281 256.953125 L 444.035156 256.953125 L 444.035156 247.828125 L 445.113281 247.828125 Z M 456.671875 255.953125 L 460.8125 255.953125 L 460.8125 256.953125 L 455.25 256.953125 L 455.25 255.953125 C 455.695312 255.496094 456.304688 254.875 457.078125 254.09375 C 457.859375 253.304688 458.347656 252.792969 458.546875 252.5625 C 458.929688 252.148438 459.195312 251.792969 459.34375 251.5 C 459.5 251.199219 459.578125 250.90625 459.578125 250.625 C 459.578125 250.15625 459.410156 249.777344 459.078125 249.484375 C 458.753906 249.195312 458.332031 249.046875 457.8125 249.046875 C 457.4375 249.046875 457.039062 249.109375 456.625 249.234375 C 456.21875 249.359375 455.78125 249.558594 455.3125 249.828125 L 455.3125 248.625 C 455.789062 248.4375 456.234375 248.296875 456.640625 248.203125 C 457.054688 248.101562 457.4375 248.046875 457.78125 248.046875 C 458.6875 248.046875 459.410156 248.277344 459.953125 248.734375 C 460.492188 249.183594 460.765625 249.789062 460.765625 250.546875 C 460.765625 250.902344 460.695312 251.242188 460.5625 251.5625 C 460.425781 251.886719 460.179688 252.265625 459.828125 252.703125 C 459.722656 252.820312 459.410156 253.148438 458.890625 253.6875 C 458.367188 254.230469 457.628906 254.984375 456.671875 255.953125 Z M 466.539062 249.234375 L 463.554688 253.90625 L 466.539062 253.90625 Z M 466.226562 248.203125 L 467.726562 248.203125 L 467.726562 253.90625 L 468.976562 253.90625 L 468.976562 254.890625 L 467.726562 254.890625 L 467.726562 256.953125 L 466.539062 256.953125 L 466.539062 254.890625 L 462.601562 254.890625 L 462.601562 253.75 Z M 429.3125 245.816406 "/>
<path style=" stroke:none;fill-rule:nonzero;fill:rgb(40%,40%,40%);fill-opacity:1;" d="M 539.65625 248.203125 L 544.6875 248.203125 L 544.6875 249.203125 L 540.84375 249.203125 L 540.84375 251.78125 L 544.3125 251.78125 L 544.3125 252.78125 L 540.84375 252.78125 L 540.84375 256.953125 L 539.65625 256.953125 Z M 551.480469 253.40625 L 551.480469 253.921875 L 546.511719 253.921875 C 546.5625 254.671875 546.785156 255.242188 547.183594 255.625 C 547.589844 256.011719 548.144531 256.203125 548.855469 256.203125 C 549.269531 256.203125 549.671875 256.15625 550.058594 256.0625 C 550.453125 255.960938 550.84375 255.804688 551.230469 255.59375 L 551.230469 256.625 C 550.832031 256.78125 550.433594 256.902344 550.027344 256.984375 C 549.621094 257.078125 549.207031 257.125 548.792969 257.125 C 547.75 257.125 546.921875 256.824219 546.308594 256.21875 C 545.691406 255.605469 545.386719 254.777344 545.386719 253.734375 C 545.386719 252.664062 545.675781 251.8125 546.261719 251.1875 C 546.84375 250.554688 547.625 250.234375 548.605469 250.234375 C 549.488281 250.234375 550.1875 250.523438 550.699219 251.09375 C 551.21875 251.65625 551.480469 252.429688 551.480469 253.40625 Z M 550.402344 253.078125 C 550.390625 252.496094 550.222656 252.027344 549.902344 251.671875 C 549.578125 251.320312 549.152344 251.140625 548.621094 251.140625 C 548.015625 251.140625 547.53125 251.3125 547.167969 251.65625 C 546.8125 252 546.609375 252.480469 546.558594 253.09375 Z M 557.957031 253.671875 C 557.957031 252.882812 557.789062 252.261719 557.457031 251.8125 C 557.132812 251.367188 556.691406 251.140625 556.128906 251.140625 C 555.554688 251.140625 555.101562 251.367188 554.769531 251.8125 C 554.445312 252.261719 554.285156 252.882812 554.285156 253.671875 C 554.285156 254.464844 554.445312 255.089844 554.769531 255.546875 C 555.101562 255.996094 555.554688 256.21875 556.128906 256.21875 C 556.691406 256.21875 557.132812 255.996094 557.457031 255.546875 C 557.789062 255.089844 557.957031 254.464844 557.957031 253.671875 Z M 554.285156 251.390625 C 554.511719 250.996094 554.800781 250.703125 555.144531 250.515625 C 555.488281 250.328125 555.898438 250.234375 556.378906 250.234375 C 557.179688 250.234375 557.832031 250.554688 558.332031 251.1875 C 558.832031 251.8125 559.082031 252.640625 559.082031 253.671875 C 559.082031 254.703125 558.832031 255.539062 558.332031 256.171875 C 557.832031 256.808594 557.179688 257.125 556.378906 257.125 C 555.898438 257.125 555.488281 257.03125 555.144531 256.84375 C 554.800781 256.648438 554.511719 256.355469 554.285156 255.96875 L 554.285156 256.953125 L 553.207031 256.953125 L 553.207031 247.828125 L 554.285156 247.828125 Z M 565.84375 255.953125 L 569.984375 255.953125 L 569.984375 256.953125 L 564.421875 256.953125 L 564.421875 255.953125 C 564.867188 255.496094 565.476562 254.875 566.25 254.09375 C 567.03125 253.304688 567.519531 252.792969 567.71875 252.5625 C 568.101562 252.148438 568.367188 251.792969 568.515625 251.5 C 568.671875 251.199219 568.75 250.90625 568.75 250.625 C 568.75 250.15625 568.582031 249.777344 568.25 249.484375 C 567.925781 249.195312 567.503906 249.046875 566.984375 249.046875 C 566.609375 249.046875 566.210938 249.109375 565.796875 249.234375 C 565.390625 249.359375 564.953125 249.558594 564.484375 249.828125 L 564.484375 248.625 C 564.960938 248.4375 565.40625 248.296875 565.8125 248.203125 C 566.226562 248.101562 566.609375 248.046875 566.953125 248.046875 C 567.859375 248.046875 568.582031 248.277344 569.125 248.734375 C 569.664062 249.183594 569.9375 249.789062 569.9375 250.546875 C 569.9375 250.902344 569.867188 251.242188 569.734375 251.5625 C 569.597656 251.886719 569.351562 252.265625 569 252.703125 C 568.894531 252.820312 568.582031 253.148438 568.0625 253.6875 C 567.539062 254.230469 566.800781 254.984375 565.84375 255.953125 Z M 572.476562 248.203125 L 577.117188 248.203125 L 577.117188 249.203125 L 573.554688 249.203125 L 573.554688 251.34375 C 573.730469 251.28125 573.902344 251.242188 574.070312 251.21875 C 574.246094 251.1875 574.417969 251.171875 574.585938 251.171875 C 575.5625 251.171875 576.339844 251.445312 576.914062 251.984375 C 577.484375 252.515625 577.773438 253.234375 577.773438 254.140625 C 577.773438 255.089844 577.476562 255.824219 576.882812 256.34375 C 576.296875 256.867188 575.476562 257.125 574.414062 257.125 C 574.039062 257.125 573.65625 257.09375 573.273438 257.03125 C 572.898438 256.96875 572.507812 256.875 572.101562 256.75 L 572.101562 255.5625 C 572.453125 255.75 572.820312 255.890625 573.195312 255.984375 C 573.570312 256.078125 573.964844 256.125 574.382812 256.125 C 575.058594 256.125 575.59375 255.949219 575.992188 255.59375 C 576.386719 255.242188 576.585938 254.757812 576.585938 254.140625 C 576.585938 253.539062 576.386719 253.058594 575.992188 252.703125 C 575.59375 252.351562 575.058594 252.171875 574.382812 252.171875 C 574.070312 252.171875 573.75 252.210938 573.429688 252.28125 C 573.117188 252.34375 572.796875 252.449219 572.476562 252.59375 Z M 538.484375 245.816406 "/>
<path style=" stroke:none;fill-rule:nonzero;fill:rgb(40%,40%,40%);fill-opacity:1;" d="M 648.832031 248.203125 L 653.863281 248.203125 L 653.863281 249.203125 L 650.019531 249.203125 L 650.019531 251.78125 L 653.488281 251.78125 L 653.488281 252.78125 L 650.019531 252.78125 L 650.019531 256.953125 L 648.832031 256.953125 Z M 660.65625 253.40625 L 660.65625 253.921875 L 655.6875 253.921875 C 655.738281 254.671875 655.960938 255.242188 656.359375 255.625 C 656.765625 256.011719 657.320312 256.203125 658.03125 256.203125 C 658.445312 256.203125 658.847656 256.15625 659.234375 256.0625 C 659.628906 255.960938 660.019531 255.804688 660.40625 255.59375 L 660.40625 256.625 C 660.007812 256.78125 659.609375 256.902344 659.203125 256.984375 C 658.796875 257.078125 658.382812 257.125 657.96875 257.125 C 656.925781 257.125 656.097656 256.824219 655.484375 256.21875 C 654.867188 255.605469 654.5625 254.777344 654.5625 253.734375 C 654.5625 252.664062 654.851562 251.8125 655.4375 251.1875 C 656.019531 250.554688 656.800781 250.234375 657.78125 250.234375 C 658.664062 250.234375 659.363281 250.523438 659.875 251.09375 C 660.394531 251.65625 660.65625 252.429688 660.65625 253.40625 Z M 659.578125 253.078125 C 659.566406 252.496094 659.398438 252.027344 659.078125 251.671875 C 658.753906 251.320312 658.328125 251.140625 657.796875 251.140625 C 657.191406 251.140625 656.707031 251.3125 656.34375 251.65625 C 655.988281 252 655.785156 252.480469 655.734375 253.09375 Z M 667.132812 253.671875 C 667.132812 252.882812 666.964844 252.261719 666.632812 251.8125 C 666.308594 251.367188 665.867188 251.140625 665.304688 251.140625 C 664.730469 251.140625 664.277344 251.367188 663.945312 251.8125 C 663.621094 252.261719 663.460938 252.882812 663.460938 253.671875 C 663.460938 254.464844 663.621094 255.089844 663.945312 255.546875 C 664.277344 255.996094 664.730469 256.21875 665.304688 256.21875 C 665.867188 256.21875 666.308594 255.996094 666.632812 255.546875 C 666.964844 255.089844 667.132812 254.464844 667.132812 253.671875 Z M 663.460938 251.390625 C 663.6875 250.996094 663.976562 250.703125 664.320312 250.515625 C 664.664062 250.328125 665.074219 250.234375 665.554688 250.234375 C 666.355469 250.234375 667.007812 250.554688 667.507812 251.1875 C 668.007812 251.8125 668.257812 252.640625 668.257812 253.671875 C 668.257812 254.703125 668.007812 255.539062 667.507812 256.171875 C 667.007812 256.808594 666.355469 257.125 665.554688 257.125 C 665.074219 257.125 664.664062 257.03125 664.320312 256.84375 C 663.976562 256.648438 663.6875 256.355469 663.460938 255.96875 L 663.460938 256.953125 L 662.382812 256.953125 L 662.382812 247.828125 L 663.460938 247.828125 Z M 675.015625 255.953125 L 679.15625 255.953125 L 679.15625 256.953125 L 673.59375 256.953125 L 673.59375 255.953125 C 674.039062 255.496094 674.648438 254.875 675.421875 254.09375 C 676.203125 253.304688 676.691406 252.792969 676.890625 252.5625 C 677.273438 252.148438 677.539062 251.792969 677.6875 251.5 C 677.84375 251.199219 677.921875 250.90625 677.921875 250.625 C 677.921875 250.15625 677.753906 249.777344 677.421875 249.484375 C 677.097656 249.195312 676.675781 249.046875 676.15625 249.046875 C 675.78125 249.046875 675.382812 249.109375 674.96875 249.234375 C 674.5625 249.359375 674.125 249.558594 673.65625 249.828125 L 673.65625 248.625 C 674.132812 248.4375 674.578125 248.296875 674.984375 248.203125 C 675.398438 248.101562 675.78125 248.046875 676.125 248.046875 C 677.03125 248.046875 677.753906 248.277344 678.296875 248.734375 C 678.835938 249.183594 679.109375 249.789062 679.109375 250.546875 C 679.109375 250.902344 679.039062 251.242188 678.90625 251.5625 C 678.769531 251.886719 678.523438 252.265625 678.171875 252.703125 C 678.066406 252.820312 677.753906 253.148438 677.234375 253.6875 C 676.710938 254.230469 675.972656 254.984375 675.015625 255.953125 Z M 684.324219 252.109375 C 683.792969 252.109375 683.371094 252.292969 683.058594 252.65625 C 682.746094 253.023438 682.589844 253.515625 682.589844 254.140625 C 682.589844 254.777344 682.746094 255.277344 683.058594 255.640625 C 683.371094 256.007812 683.792969 256.1875 684.324219 256.1875 C 684.855469 256.1875 685.269531 256.007812 685.574219 255.640625 C 685.886719 255.277344 686.042969 254.777344 686.042969 254.140625 C 686.042969 253.515625 685.886719 253.023438 685.574219 252.65625 C 685.269531 252.292969 684.855469 252.109375 684.324219 252.109375 Z M 686.667969 248.390625 L 686.667969 249.46875 C 686.363281 249.335938 686.0625 249.230469 685.761719 249.15625 C 685.457031 249.085938 685.160156 249.046875 684.871094 249.046875 C 684.089844 249.046875 683.488281 249.3125 683.074219 249.84375 C 682.667969 250.367188 682.433594 251.15625 682.371094 252.21875 C 682.597656 251.886719 682.886719 251.632812 683.230469 251.453125 C 683.582031 251.265625 683.96875 251.171875 684.386719 251.171875 C 685.261719 251.171875 685.953125 251.4375 686.464844 251.96875 C 686.972656 252.5 687.230469 253.226562 687.230469 254.140625 C 687.230469 255.046875 686.964844 255.773438 686.433594 256.3125 C 685.902344 256.855469 685.199219 257.125 684.324219 257.125 C 683.300781 257.125 682.527344 256.742188 681.996094 255.96875 C 681.464844 255.1875 681.199219 254.0625 681.199219 252.59375 C 681.199219 251.210938 681.527344 250.105469 682.183594 249.28125 C 682.839844 248.460938 683.71875 248.046875 684.824219 248.046875 C 685.113281 248.046875 685.410156 248.078125 685.714844 248.140625 C 686.015625 248.195312 686.332031 248.277344 686.667969 248.390625 Z M 647.660156 245.816406 "/>
<path style=" stroke:none;fill-rule:nonzero;fill:rgb(40%,40%,40%);fill-opacity:1;" d="M 758.007812 248.203125 L 763.039062 248.203125 L 763.039062 249.203125 L 759.195312 249.203125 L 759.195312 251.78125 L 762.664062 251.78125 L 762.664062 252.78125 L 759.195312 252.78125 L 759.195312 256.953125 L 758.007812 256.953125 Z M 769.832031 253.40625 L 769.832031 253.921875 L 764.863281 253.921875 C 764.914062 254.671875 765.136719 255.242188 765.535156 255.625 C 765.941406 256.011719 766.496094 256.203125 767.207031 256.203125 C 767.621094 256.203125 768.023438 256.15625 768.410156 256.0625 C 768.804688 255.960938 769.195312 255.804688 769.582031 255.59375 L 769.582031 256.625 C 769.183594 256.78125 768.785156 256.902344 768.378906 256.984375 C 767.972656 257.078125 767.558594 257.125 767.144531 257.125 C 766.101562 257.125 765.273438 256.824219 764.660156 256.21875 C 764.042969 255.605469 763.738281 254.777344 763.738281 253.734375 C 763.738281 252.664062 764.027344 251.8125 764.613281 251.1875 C 765.195312 250.554688 765.976562 250.234375 766.957031 250.234375 C 767.839844 250.234375 768.539062 250.523438 769.050781 251.09375 C 769.570312 251.65625 769.832031 252.429688 769.832031 253.40625 Z M 768.753906 253.078125 C 768.742188 252.496094 768.574219 252.027344 768.253906 251.671875 C 767.929688 251.320312 767.503906 251.140625 766.972656 251.140625 C 766.367188 251.140625 765.882812 251.3125 765.519531 251.65625 C 765.164062 252 764.960938 252.480469 764.910156 253.09375 Z M 776.308594 253.671875 C 776.308594 252.882812 776.140625 252.261719 775.808594 251.8125 C 775.484375 251.367188 775.042969 251.140625 774.480469 251.140625 C 773.90625 251.140625 773.453125 251.367188 773.121094 251.8125 C 772.796875 252.261719 772.636719 252.882812 772.636719 253.671875 C 772.636719 254.464844 772.796875 255.089844 773.121094 255.546875 C 773.453125 255.996094 773.90625 256.21875 774.480469 256.21875 C 775.042969 256.21875 775.484375 255.996094 775.808594 255.546875 C 776.140625 255.089844 776.308594 254.464844 776.308594 253.671875 Z M 772.636719 251.390625 C 772.863281 250.996094 773.152344 250.703125 773.496094 250.515625 C 773.839844 250.328125 774.25 250.234375 774.730469 250.234375 C 775.53125 250.234375 776.183594 250.554688 776.683594 251.1875 C 777.183594 251.8125 777.433594 252.640625 777.433594 253.671875 C 777.433594 254.703125 777.183594 255.539062 776.683594 256.171875 C 776.183594 256.808594 775.53125 257.125 774.730469 257.125 C 774.25 257.125 773.839844 257.03125 773.496094 256.84375 C 773.152344 256.648438 772.863281 256.355469 772.636719 255.96875 L 772.636719 256.953125 L 771.558594 256.953125 L 771.558594 247.828125 L 772.636719 247.828125 Z M 784.195312 255.953125 L 788.335938 255.953125 L 788.335938 256.953125 L 782.773438 256.953125 L 782.773438 255.953125 C 783.21875 255.496094 783.828125 254.875 784.601562 254.09375 C 785.382812 253.304688 785.871094 252.792969 786.070312 252.5625 C 786.453125 252.148438 786.71875 251.792969 786.867188 251.5 C 787.023438 251.199219 787.101562 250.90625 787.101562 250.625 C 787.101562 250.15625 786.933594 249.777344 786.601562 249.484375 C 786.277344 249.195312 785.855469 249.046875 785.335938 249.046875 C 784.960938 249.046875 784.5625 249.109375 784.148438 249.234375 C 783.742188 249.359375 783.304688 249.558594 782.835938 249.828125 L 782.835938 248.625 C 783.3125 248.4375 783.757812 248.296875 784.164062 248.203125 C 784.578125 248.101562 784.960938 248.046875 785.304688 248.046875 C 786.210938 248.046875 786.933594 248.277344 787.476562 248.734375 C 788.015625 249.183594 788.289062 249.789062 788.289062 250.546875 C 788.289062 250.902344 788.21875 251.242188 788.085938 251.5625 C 787.949219 251.886719 787.703125 252.265625 787.351562 252.703125 C 787.246094 252.820312 786.933594 253.148438 786.414062 253.6875 C 785.890625 254.230469 785.152344 254.984375 784.195312 255.953125 Z M 790.515625 248.203125 L 796.140625 248.203125 L 796.140625 248.703125 L 792.96875 256.953125 L 791.734375 256.953125 L 794.71875 249.203125 L 790.515625 249.203125 Z M 756.835938 245.816406 "/>
<path style="fill:none;stroke-width:1;stroke-linecap:butt;stroke-linejoin:miter;stroke:rgb(0%,0%,0%);stroke-opacity:0.0980392;stroke-miterlimit:10;" d="M 33.5 44 L 33.5 235 "/>
<path style=" stroke:none;fill-rule:nonzero;fill:rgb(40%,40%,40%);fill-opacity:1;" d="M 17.898438 230.789062 C 17.292969 230.789062 16.835938 231.09375 16.523438 231.695312 C 16.21875 232.289062 16.070312 233.191406 16.070312 234.398438 C 16.070312 235.597656 16.21875 236.5 16.523438 237.101562 C 16.835938 237.695312 17.292969 237.992188 17.898438 237.992188 C 18.511719 237.992188 18.96875 237.695312 19.273438 237.101562 C 19.585938 236.5 19.742188 235.597656 19.742188 234.398438 C 19.742188 233.191406 19.585938 232.289062 19.273438 231.695312 C 18.96875 231.09375 18.511719 230.789062 17.898438 230.789062 Z M 17.898438 229.851562 C 18.875 229.851562 19.625 230.242188 20.148438 231.023438 C 20.667969 231.796875 20.929688 232.921875 20.929688 234.398438 C 20.929688 235.867188 20.667969 236.992188 20.148438 237.773438 C 19.625 238.546875 18.875 238.929688 17.898438 238.929688 C 16.917969 238.929688 16.167969 238.546875 15.648438 237.773438 C 15.136719 236.992188 14.882812 235.867188 14.882812 234.398438 C 14.882812 232.921875 15.136719 231.796875 15.648438 231.023438 C 16.167969 230.242188 16.917969 229.851562 17.898438 229.851562 Z M 14.085938 227.617188 "/>
<path style=" stroke:none;fill-rule:nonzero;fill:rgb(40%,40%,40%);fill-opacity:1;" d="M 5.898438 192.664062 C 5.292969 192.664062 4.835938 192.96875 4.523438 193.570312 C 4.21875 194.164062 4.070312 195.066406 4.070312 196.273438 C 4.070312 197.472656 4.21875 198.375 4.523438 198.976562 C 4.835938 199.570312 5.292969 199.867188 5.898438 199.867188 C 6.511719 199.867188 6.96875 199.570312 7.273438 198.976562 C 7.585938 198.375 7.742188 197.472656 7.742188 196.273438 C 7.742188 195.066406 7.585938 194.164062 7.273438 193.570312 C 6.96875 192.96875 6.511719 192.664062 5.898438 192.664062 Z M 5.898438 191.726562 C 6.875 191.726562 7.625 192.117188 8.148438 192.898438 C 8.667969 193.671875 8.929688 194.796875 8.929688 196.273438 C 8.929688 197.742188 8.667969 198.867188 8.148438 199.648438 C 7.625 200.421875 6.875 200.804688 5.898438 200.804688 C 4.917969 200.804688 4.167969 200.421875 3.648438 199.648438 C 3.136719 198.867188 2.882812 197.742188 2.882812 196.273438 C 2.882812 194.796875 3.136719 193.671875 3.648438 192.898438 C 4.167969 192.117188 4.917969 191.726562 5.898438 191.726562 Z M 11 199.148438 L 12.234375 199.148438 L 12.234375 200.632812 L 11 200.632812 Z M 15.832031 199.632812 L 19.972656 199.632812 L 19.972656 200.632812 L 14.410156 200.632812 L 14.410156 199.632812 C 14.855469 199.175781 15.464844 198.554688 16.238281 197.773438 C 17.019531 196.984375 17.507812 196.472656 17.707031 196.242188 C 18.089844 195.828125 18.355469 195.472656 18.503906 195.179688 C 18.660156 194.878906 18.738281 194.585938 18.738281 194.304688 C 18.738281 193.835938 18.570312 193.457031 18.238281 193.164062 C 17.914062 192.875 17.492188 192.726562 16.972656 192.726562 C 16.597656 192.726562 16.199219 192.789062 15.785156 192.914062 C 15.378906 193.039062 14.941406 193.238281 14.472656 193.507812 L 14.472656 192.304688 C 14.949219 192.117188 15.394531 191.976562 15.800781 191.882812 C 16.214844 191.78125 16.597656 191.726562 16.941406 191.726562 C 17.847656 191.726562 18.570312 191.957031 19.113281 192.414062 C 19.652344 192.863281 19.925781 193.46875 19.925781 194.226562 C 19.925781 194.582031 19.855469 194.921875 19.722656 195.242188 C 19.585938 195.566406 19.339844 195.945312 18.988281 196.382812 C 18.882812 196.5 18.570312 196.828125 18.050781 197.367188 C 17.527344 197.910156 16.789062 198.664062 15.832031 199.632812 Z M 2.085938 189.496094 "/>
<path style=" stroke:none;fill-rule:nonzero;fill:rgb(40%,40%,40%);fill-opacity:1;" d="M 5.898438 154.546875 C 5.292969 154.546875 4.835938 154.851562 4.523438 155.453125 C 4.21875 156.046875 4.070312 156.949219 4.070312 158.15625 C 4.070312 159.355469 4.21875 160.257812 4.523438 160.859375 C 4.835938 161.453125 5.292969 161.75 5.898438 161.75 C 6.511719 161.75 6.96875 161.453125 7.273438 160.859375 C 7.585938 160.257812 7.742188 159.355469 7.742188 158.15625 C 7.742188 156.949219 7.585938 156.046875 7.273438 155.453125 C 6.96875 154.851562 6.511719 154.546875 5.898438 154.546875 Z M 5.898438 153.609375 C 6.875 153.609375 7.625 154 8.148438 154.78125 C 8.667969 155.554688 8.929688 156.679688 8.929688 158.15625 C 8.929688 159.625 8.667969 160.75 8.148438 161.53125 C 7.625 162.304688 6.875 162.6875 5.898438 162.6875 C 4.917969 162.6875 4.167969 162.304688 3.648438 161.53125 C 3.136719 160.75 2.882812 159.625 2.882812 158.15625 C 2.882812 156.679688 3.136719 155.554688 3.648438 154.78125 C 4.167969 154 4.917969 153.609375 5.898438 153.609375 Z M 11 161.03125 L 12.234375 161.03125 L 12.234375 162.515625 L 11 162.515625 Z M 18.066406 154.796875 L 15.082031 159.46875 L 18.066406 159.46875 Z M 17.753906 153.765625 L 19.253906 153.765625 L 19.253906 159.46875 L 20.503906 159.46875 L 20.503906 160.453125 L 19.253906 160.453125 L 19.253906 162.515625 L 18.066406 162.515625 L 18.066406 160.453125 L 14.128906 160.453125 L 14.128906 159.3125 Z M 2.085938 151.375 "/>
<path style=" stroke:none;fill-rule:nonzero;fill:rgb(40%,40%,40%);fill-opacity:1;" d="M 5.898438 116.421875 C 5.292969 116.421875 4.835938 116.726562 4.523438 117.328125 C 4.21875 117.921875 4.070312 118.824219 4.070312 120.03125 C 4.070312 121.230469 4.21875 122.132812 4.523438 122.734375 C 4.835938 123.328125 5.292969 123.625 5.898438 123.625 C 6.511719 123.625 6.96875 123.328125 7.273438 122.734375 C 7.585938 122.132812 7.742188 121.230469 7.742188 120.03125 C 7.742188 118.824219 7.585938 117.921875 7.273438 117.328125 C 6.96875 116.726562 6.511719 116.421875 5.898438 116.421875 Z M 5.898438 115.484375 C 6.875 115.484375 7.625 115.875 8.148438 116.65625 C 8.667969 117.429688 8.929688 118.554688 8.929688 120.03125 C 8.929688 121.5 8.667969 122.625 8.148438 123.40625 C 7.625 124.179688 6.875 124.5625 5.898438 124.5625 C 4.917969 124.5625 4.167969 124.179688 3.648438 123.40625 C 3.136719 122.625 2.882812 121.5 2.882812 120.03125 C 2.882812 118.554688 3.136719 117.429688 3.648438 116.65625 C 4.167969 115.875 4.917969 115.484375 5.898438 115.484375 Z M 11 122.90625 L 12.234375 122.90625 L 12.234375 124.390625 L 11 124.390625 Z M 17.503906 119.546875 C 16.972656 119.546875 16.550781 119.730469 16.238281 120.09375 C 15.925781 120.460938 15.769531 120.953125 15.769531 121.578125 C 15.769531 122.214844 15.925781 122.714844 16.238281 123.078125 C 16.550781 123.445312 16.972656 123.625 17.503906 123.625 C 18.035156 123.625 18.449219 123.445312 18.753906 123.078125 C 19.066406 122.714844 19.222656 122.214844 19.222656 121.578125 C 19.222656 120.953125 19.066406 120.460938 18.753906 120.09375 C 18.449219 119.730469 18.035156 119.546875 17.503906 119.546875 Z M 19.847656 115.828125 L 19.847656 116.90625 C 19.542969 116.773438 19.242188 116.667969 18.941406 116.59375 C 18.636719 116.523438 18.339844 116.484375 18.050781 116.484375 C 17.269531 116.484375 16.667969 116.75 16.253906 117.28125 C 15.847656 117.804688 15.613281 118.59375 15.550781 119.65625 C 15.777344 119.324219 16.066406 119.070312 16.410156 118.890625 C 16.761719 118.703125 17.148438 118.609375 17.566406 118.609375 C 18.441406 118.609375 19.132812 118.875 19.644531 119.40625 C 20.152344 119.9375 20.410156 120.664062 20.410156 121.578125 C 20.410156 122.484375 20.144531 123.210938 19.613281 123.75 C 19.082031 124.292969 18.378906 124.5625 17.503906 124.5625 C 16.480469 124.5625 15.707031 124.179688 15.175781 123.40625 C 14.644531 122.625 14.378906 121.5 14.378906 120.03125 C 14.378906 118.648438 14.707031 117.542969 15.363281 116.71875 C 16.019531 115.898438 16.898438 115.484375 18.003906 115.484375 C 18.292969 115.484375 18.589844 115.515625 18.894531 115.578125 C 19.195312 115.632812 19.511719 115.714844 19.847656 115.828125 Z M 2.085938 113.253906 "/>
<path style=" stroke:none;fill-rule:nonzero;fill:rgb(40%,40%,40%);fill-opacity:1;" d="M 5.898438 78.304688 C 5.292969 78.304688 4.835938 78.609375 4.523438 79.210938 C 4.21875 79.804688 4.070312 80.707031 4.070312 81.914062 C 4.070312 83.113281 4.21875 84.015625 4.523438 84.617188 C 4.835938 85.210938 5.292969 85.507812 5.898438 85.507812 C 6.511719 85.507812 6.96875 85.210938 7.273438 84.617188 C 7.585938 84.015625 7.742188 83.113281 7.742188 81.914062 C 7.742188 80.707031 7.585938 79.804688 7.273438 79.210938 C 6.96875 78.609375 6.511719 78.304688 5.898438 78.304688 Z M 5.898438 77.367188 C 6.875 77.367188 7.625 77.757812 8.148438 78.539062 C 8.667969 79.3125 8.929688 80.4375 8.929688 81.914062 C 8.929688 83.382812 8.667969 84.507812 8.148438 85.289062 C 7.625 86.0625 6.875 86.445312 5.898438 86.445312 C 4.917969 86.445312 4.167969 86.0625 3.648438 85.289062 C 3.136719 84.507812 2.882812 83.382812 2.882812 81.914062 C 2.882812 80.4375 3.136719 79.3125 3.648438 78.539062 C 4.167969 77.757812 4.917969 77.367188 5.898438 77.367188 Z M 11 84.789062 L 12.234375 84.789062 L 12.234375 86.273438 L 11 86.273438 Z M 17.347656 82.117188 C 16.785156 82.117188 16.339844 82.269531 16.019531 82.570312 C 15.695312 82.875 15.535156 83.285156 15.535156 83.804688 C 15.535156 84.335938 15.695312 84.753906 16.019531 85.054688 C 16.339844 85.359375 16.785156 85.507812 17.347656 85.507812 C 17.910156 85.507812 18.351562 85.359375 18.675781 85.054688 C 18.996094 84.753906 19.160156 84.335938 19.160156 83.804688 C 19.160156 83.285156 18.996094 82.875 18.675781 82.570312 C 18.363281 82.269531 17.917969 82.117188 17.347656 82.117188 Z M 16.160156 81.617188 C 15.660156 81.492188 15.261719 81.257812 14.972656 80.914062 C 14.691406 80.5625 14.550781 80.132812 14.550781 79.632812 C 14.550781 78.9375 14.800781 78.382812 15.300781 77.976562 C 15.800781 77.570312 16.480469 77.367188 17.347656 77.367188 C 18.222656 77.367188 18.902344 77.570312 19.394531 77.976562 C 19.894531 78.382812 20.144531 78.9375 20.144531 79.632812 C 20.144531 80.132812 20.003906 80.5625 19.722656 80.914062 C 19.441406 81.257812 19.042969 81.492188 18.535156 81.617188 C 19.105469 81.753906 19.550781 82.015625 19.863281 82.398438 C 20.183594 82.785156 20.347656 83.253906 20.347656 83.804688 C 20.347656 84.660156 20.085938 85.316406 19.566406 85.773438 C 19.054688 86.222656 18.316406 86.445312 17.347656 86.445312 C 16.386719 86.445312 15.648438 86.222656 15.128906 85.773438 C 14.605469 85.316406 14.347656 84.660156 14.347656 83.804688 C 14.347656 83.253906 14.507812 82.785156 14.832031 82.398438 C 15.152344 82.015625 15.597656 81.753906 16.160156 81.617188 Z M 15.738281 79.742188 C 15.738281 80.203125 15.878906 80.554688 16.160156 80.804688 C 16.441406 81.054688 16.835938 81.179688 17.347656 81.179688 C 17.855469 81.179688 18.253906 81.054688 18.535156 80.804688 C 18.824219 80.554688 18.972656 80.203125 18.972656 79.742188 C 18.972656 79.296875 18.824219 78.945312 18.535156 78.695312 C 18.253906 78.4375 17.855469 78.304688 17.347656 78.304688 C 16.835938 78.304688 16.441406 78.4375 16.160156 78.695312 C 15.878906 78.945312 15.738281 79.296875 15.738281 79.742188 Z M 2.085938 75.136719 "/>
<path style=" stroke:none;fill-rule:nonzero;fill:rgb(40%,40%,40%);fill-opacity:1;" d="M 15.570312 47.15625 L 17.507812 47.15625 L 17.507812 40.484375 L 15.398438 40.90625 L 15.398438 39.828125 L 17.492188 39.40625 L 18.679688 39.40625 L 18.679688 47.15625 L 20.617188 47.15625 L 20.617188 48.15625 L 15.570312 48.15625 Z M 14.085938 37.015625 "/>
<g clip-path="url(#clip3)" clip-rule="nonzero">
<path style="fill:none;stroke-width:2;stroke-linecap:butt;stroke-linejoin:miter;stroke:rgb(100%,4.705882%,0%);stroke-opacity:0.247059;stroke-miterlimit:10;" d="M 795.03125 234.601562 L 33.085938 234.601562 "/>
<path style="fill:none;stroke-width:2;stroke-linecap:butt;stroke-linejoin:miter;stroke:rgb(9.019608%,58.823529%,95.294118%);stroke-opacity:1;stroke-miterlimit:10;" d="M 795.03125 234.601562 L 33.085938 234.601562 "/>
</g>
</g>
</svg>
