<?xml version="1.0" encoding="UTF-8"?>
<svg xmlns="http://www.w3.org/2000/svg" xmlns:xlink="http://www.w3.org/1999/xlink" width="800pt" height="300pt" viewBox="0 0 800 300" version="1.1">
<defs>
<clipPath id="clip1">
  <path d="M 285 263 L 360 263 L 360 300 L 285 300 Z M 285 263 "/>
</clipPath>
<clipPath id="clip2">
  <path d="M 375 263 L 450 263 L 450 300 L 375 300 Z M 375 263 "/>
</clipPath>
<clipPath id="clip3">
  <path d="M 21.632812 139 L 800 139 L 800 234.601562 L 21.632812 234.601562 Z M 21.632812 139 "/>
</clipPath>
<clipPath id="clip4">
  <path d="M 20.632812 111 L 800 111 L 800 235.601562 L 20.632812 235.601562 Z M 20.632812 111 "/>
</clipPath>
<clipPath id="clip5">
  <path d="M 21.632812 44 L 800 44 L 800 234.601562 L 21.632812 234.601562 Z M 21.632812 44 "/>
</clipPath>
<clipPath id="clip6">
  <path d="M 20.632812 43 L 800 43 L 800 136 L 20.632812 136 Z M 20.632812 43 "/>
</clipPath>
</defs>
<g id="surface3250421">
<rect x="0" y="0" width="800" height="300" style="fill:rgb(100%,100%,100%);fill-opacity:1;stroke:none;"/>
<path style="fill:none;stroke-width:1;stroke-linecap:butt;stroke-linejoin:miter;stroke:rgb(0%,0%,0%);stroke-opacity:0.0980392;stroke-miterlimit:10;" d="M 22 234.5 L 800 234.5 "/>
<path style="fill:none;stroke-width:1;stroke-linecap:butt;stroke-linejoin:miter;stroke:rgb(0%,0%,0%);stroke-opacity:0.0980392;stroke-miterlimit:10;" d="M 13.632812 234.5 L 21 234.5 "/>
<path style="fill:none;stroke-width:1;stroke-linecap:butt;stroke-linejoin:miter;stroke:rgb(0%,0%,0%);stroke-opacity:0.0980392;stroke-miterlimit:10;" d="M 22 171.5 L 800 171.5 "/>
<path style="fill:none;stroke-width:1;stroke-linecap:butt;stroke-linejoin:miter;stroke:rgb(0%,0%,0%);stroke-opacity:0.0980392;stroke-miterlimit:10;" d="M 13.632812 171.5 L 21 171.5 "/>
<path style="fill:none;stroke-width:1;stroke-linecap:butt;stroke-linejoin:miter;stroke:rgb(0%,0%,0%);stroke-opacity:0.0980392;stroke-miterlimit:10;" d="M 22 107.5 L 800 107.5 "/>
<path style="fill:none;stroke-width:1;stroke-linecap:butt;stroke-linejoin:miter;stroke:rgb(0%,0%,0%);stroke-opacity:0.0980392;stroke-miterlimit:10;" d="M 13.632812 107.5 L 21 107.5 "/>
<path style="fill:none;stroke-width:1;stroke-linecap:butt;stroke-linejoin:miter;stroke:rgb(0%,0%,0%);stroke-opacity:0.0980392;stroke-miterlimit:10;" d="M 22 44.5 L 800 44.5 "/>
<path style="fill:none;stroke-width:1;stroke-linecap:butt;stroke-linejoin:miter;stroke:rgb(0%,0%,0%);stroke-opacity:0.0980392;stroke-miterlimit:10;" d="M 13.632812 44.5 L 21 44.5 "/>
<path style=" stroke:none;fill-rule:nonzero;fill:rgb(9.019608%,58.823529%,95.294118%);fill-opacity:0.6;" d="M 331.121094 284 C 331.121094 288.6875 327.324219 292.484375 322.636719 292.484375 C 317.953125 292.484375 314.152344 288.6875 314.152344 284 C 314.152344 279.3125 317.953125 275.515625 322.636719 275.515625 C 327.324219 275.515625 331.121094 279.3125 331.121094 284 Z M 331.121094 284 "/>
<g clip-path="url(#clip1)" clip-rule="nonzero">
<path style="fill:none;stroke-width:2;stroke-linecap:butt;stroke-linejoin:miter;stroke:rgb(9.019608%,58.823529%,95.294118%);stroke-opacity:1;stroke-miterlimit:10;" d="M 331.121094 284 C 331.121094 288.6875 327.324219 292.484375 322.636719 292.484375 C 317.953125 292.484375 314.152344 288.6875 314.152344 284 C 314.152344 279.3125 317.953125 275.515625 322.636719 275.515625 C 327.324219 275.515625 331.121094 279.3125 331.121094 284 Z M 331.121094 284 "/>
</g>
<path style=" stroke:none;fill-rule:nonzero;fill:rgb(0%,0%,0%);fill-opacity:1;" d="M 340.421875 283.3125 C 339.890625 283.3125 339.46875 283.496094 339.15625 283.859375 C 338.84375 284.226562 338.6875 284.71875 338.6875 285.34375 C 338.6875 285.980469 338.84375 286.480469 339.15625 286.84375 C 339.46875 287.210938 339.890625 287.390625 340.421875 287.390625 C 340.953125 287.390625 341.367188 287.210938 341.671875 286.84375 C 341.984375 286.480469 342.140625 285.980469 342.140625 285.34375 C 342.140625 284.71875 341.984375 284.226562 341.671875 283.859375 C 341.367188 283.496094 340.953125 283.3125 340.421875 283.3125 Z M 342.765625 279.59375 L 342.765625 280.671875 C 342.460938 280.539062 342.160156 280.433594 341.859375 280.359375 C 341.554688 280.289062 341.257812 280.25 340.96875 280.25 C 340.1875 280.25 339.585938 280.515625 339.171875 281.046875 C 338.765625 281.570312 338.53125 282.359375 338.46875 283.421875 C 338.695312 283.089844 338.984375 282.835938 339.328125 282.65625 C 339.679688 282.46875 340.066406 282.375 340.484375 282.375 C 341.359375 282.375 342.050781 282.640625 342.5625 283.171875 C 343.070312 283.703125 343.328125 284.429688 343.328125 285.34375 C 343.328125 286.25 343.0625 286.976562 342.53125 287.515625 C 342 288.058594 341.296875 288.328125 340.421875 288.328125 C 339.398438 288.328125 338.625 287.945312 338.09375 287.171875 C 337.5625 286.390625 337.296875 285.265625 337.296875 283.796875 C 337.296875 282.414062 337.625 281.308594 338.28125 280.484375 C 338.9375 279.664062 339.816406 279.25 340.921875 279.25 C 341.210938 279.25 341.507812 279.28125 341.8125 279.34375 C 342.113281 279.398438 342.429688 279.480469 342.765625 279.59375 Z M 354.320312 279.6875 L 354.320312 280.84375 C 353.871094 280.636719 353.445312 280.480469 353.039062 280.375 C 352.640625 280.261719 352.261719 280.203125 351.898438 280.203125 C 351.25 280.203125 350.75 280.328125 350.398438 280.578125 C 350.054688 280.828125 349.882812 281.1875 349.882812 281.65625 C 349.882812 282.042969 349.996094 282.335938 350.226562 282.53125 C 350.453125 282.730469 350.898438 282.886719 351.554688 283 L 352.257812 283.15625 C 353.140625 283.324219 353.792969 283.621094 354.210938 284.046875 C 354.636719 284.464844 354.851562 285.027344 354.851562 285.734375 C 354.851562 286.589844 354.5625 287.234375 353.992188 287.671875 C 353.429688 288.109375 352.59375 288.328125 351.492188 288.328125 C 351.085938 288.328125 350.648438 288.28125 350.179688 288.1875 C 349.710938 288.09375 349.226562 287.953125 348.726562 287.765625 L 348.726562 286.546875 C 349.203125 286.820312 349.671875 287.023438 350.132812 287.15625 C 350.601562 287.292969 351.054688 287.359375 351.492188 287.359375 C 352.167969 287.359375 352.6875 287.230469 353.054688 286.96875 C 353.429688 286.699219 353.617188 286.320312 353.617188 285.828125 C 353.617188 285.402344 353.480469 285.070312 353.210938 284.828125 C 352.949219 284.578125 352.515625 284.398438 351.914062 284.28125 L 351.195312 284.140625 C 350.308594 283.964844 349.667969 283.6875 349.273438 283.3125 C 348.886719 282.9375 348.695312 282.417969 348.695312 281.75 C 348.695312 280.96875 348.964844 280.359375 349.507812 279.921875 C 350.046875 279.476562 350.796875 279.25 351.757812 279.25 C 352.171875 279.25 352.589844 279.289062 353.007812 279.359375 C 353.433594 279.433594 353.871094 279.542969 354.320312 279.6875 Z M 362.265625 284.609375 L 362.265625 285.125 L 357.296875 285.125 C 357.347656 285.875 357.570312 286.445312 357.96875 286.828125 C 358.375 287.214844 358.929688 287.40625 359.640625 287.40625 C 360.054688 287.40625 360.457031 287.359375 360.84375 287.265625 C 361.238281 287.164062 361.628906 287.007812 362.015625 286.796875 L 362.015625 287.828125 C 361.617188 287.984375 361.21875 288.105469 360.8125 288.1875 C 360.40625 288.28125 359.992188 288.328125 359.578125 288.328125 C 358.535156 288.328125 357.707031 288.027344 357.09375 287.421875 C 356.476562 286.808594 356.171875 285.980469 356.171875 284.9375 C 356.171875 283.867188 356.460938 283.015625 357.046875 282.390625 C 357.628906 281.757812 358.410156 281.4375 359.390625 281.4375 C 360.273438 281.4375 360.972656 281.726562 361.484375 282.296875 C 362.003906 282.859375 362.265625 283.632812 362.265625 284.609375 Z M 361.1875 284.28125 C 361.175781 283.699219 361.007812 283.230469 360.6875 282.875 C 360.363281 282.523438 359.9375 282.34375 359.40625 282.34375 C 358.800781 282.34375 358.316406 282.515625 357.953125 282.859375 C 357.597656 283.203125 357.394531 283.683594 357.34375 284.296875 Z M 367.835938 282.59375 C 367.710938 282.53125 367.574219 282.484375 367.429688 282.453125 C 367.292969 282.414062 367.136719 282.390625 366.960938 282.390625 C 366.355469 282.390625 365.886719 282.589844 365.554688 282.984375 C 365.230469 283.382812 365.070312 283.953125 365.070312 284.703125 L 365.070312 288.15625 L 363.992188 288.15625 L 363.992188 281.59375 L 365.070312 281.59375 L 365.070312 282.609375 C 365.296875 282.214844 365.59375 281.921875 365.960938 281.734375 C 366.324219 281.539062 366.765625 281.4375 367.289062 281.4375 C 367.359375 281.4375 367.4375 281.445312 367.523438 281.453125 C 367.617188 281.464844 367.714844 281.480469 367.820312 281.5 Z M 368.195312 281.59375 L 369.335938 281.59375 L 371.382812 287.09375 L 373.445312 281.59375 L 374.585938 281.59375 L 372.117188 288.15625 L 370.648438 288.15625 Z M 381.6875 284.609375 L 381.6875 285.125 L 376.71875 285.125 C 376.769531 285.875 376.992188 286.445312 377.390625 286.828125 C 377.796875 287.214844 378.351562 287.40625 379.0625 287.40625 C 379.476562 287.40625 379.878906 287.359375 380.265625 287.265625 C 380.660156 287.164062 381.050781 287.007812 381.4375 286.796875 L 381.4375 287.828125 C 381.039062 287.984375 380.640625 288.105469 380.234375 288.1875 C 379.828125 288.28125 379.414062 288.328125 379 288.328125 C 377.957031 288.328125 377.128906 288.027344 376.515625 287.421875 C 375.898438 286.808594 375.59375 285.980469 375.59375 284.9375 C 375.59375 283.867188 375.882812 283.015625 376.46875 282.390625 C 377.050781 281.757812 377.832031 281.4375 378.8125 281.4375 C 379.695312 281.4375 380.394531 281.726562 380.90625 282.296875 C 381.425781 282.859375 381.6875 283.632812 381.6875 284.609375 Z M 380.609375 284.28125 C 380.597656 283.699219 380.429688 283.230469 380.109375 282.875 C 379.785156 282.523438 379.359375 282.34375 378.828125 282.34375 C 378.222656 282.34375 377.738281 282.515625 377.375 282.859375 C 377.019531 283.203125 376.816406 283.683594 376.765625 284.296875 Z M 387.257812 282.59375 C 387.132812 282.53125 386.996094 282.484375 386.851562 282.453125 C 386.714844 282.414062 386.558594 282.390625 386.382812 282.390625 C 385.777344 282.390625 385.308594 282.589844 384.976562 282.984375 C 384.652344 283.382812 384.492188 283.953125 384.492188 284.703125 L 384.492188 288.15625 L 383.414062 288.15625 L 383.414062 281.59375 L 384.492188 281.59375 L 384.492188 282.609375 C 384.71875 282.214844 385.015625 281.921875 385.382812 281.734375 C 385.746094 281.539062 386.1875 281.4375 386.710938 281.4375 C 386.78125 281.4375 386.859375 281.445312 386.945312 281.453125 C 387.039062 281.464844 387.136719 281.480469 387.242188 281.5 Z M 392.5625 281.78125 L 392.5625 282.8125 C 392.257812 282.65625 391.941406 282.542969 391.609375 282.46875 C 391.285156 282.386719 390.945312 282.34375 390.59375 282.34375 C 390.0625 282.34375 389.660156 282.429688 389.390625 282.59375 C 389.117188 282.75 388.984375 282.996094 388.984375 283.328125 C 388.984375 283.578125 389.078125 283.777344 389.265625 283.921875 C 389.460938 284.058594 389.851562 284.1875 390.4375 284.3125 L 390.796875 284.40625 C 391.566406 284.5625 392.113281 284.792969 392.4375 285.09375 C 392.757812 285.398438 392.921875 285.8125 392.921875 286.34375 C 392.921875 286.960938 392.675781 287.445312 392.1875 287.796875 C 391.707031 288.152344 391.046875 288.328125 390.203125 288.328125 C 389.847656 288.328125 389.476562 288.289062 389.09375 288.21875 C 388.71875 288.15625 388.320312 288.058594 387.90625 287.921875 L 387.90625 286.796875 C 388.300781 287.007812 388.691406 287.164062 389.078125 287.265625 C 389.460938 287.371094 389.847656 287.421875 390.234375 287.421875 C 390.734375 287.421875 391.117188 287.339844 391.390625 287.171875 C 391.671875 286.996094 391.8125 286.746094 391.8125 286.421875 C 391.8125 286.132812 391.710938 285.90625 391.515625 285.75 C 391.316406 285.59375 390.882812 285.445312 390.21875 285.296875 L 389.84375 285.21875 C 389.175781 285.074219 388.691406 284.855469 388.390625 284.5625 C 388.097656 284.273438 387.953125 283.875 387.953125 283.375 C 387.953125 282.75 388.171875 282.273438 388.609375 281.9375 C 389.046875 281.605469 389.664062 281.4375 390.46875 281.4375 C 390.863281 281.4375 391.238281 281.46875 391.59375 281.53125 C 391.945312 281.585938 392.269531 281.667969 392.5625 281.78125 Z M 332.636719 277.015625 "/>
<path style=" stroke:none;fill-rule:nonzero;fill:rgb(96.862745%,44.705882%,40.784314%);fill-opacity:1;" d="M 420.988281 284 C 420.988281 288.6875 417.191406 292.484375 412.503906 292.484375 C 407.820312 292.484375 404.019531 288.6875 404.019531 284 C 404.019531 279.3125 407.820312 275.515625 412.503906 275.515625 C 417.191406 275.515625 420.988281 279.3125 420.988281 284 Z M 420.988281 284 "/>
<g clip-path="url(#clip2)" clip-rule="nonzero">
<path style="fill:none;stroke-width:2;stroke-linecap:butt;stroke-linejoin:miter;stroke:rgb(100%,4.705882%,0%);stroke-opacity:0.247059;stroke-miterlimit:10;" d="M 420.988281 284 C 420.988281 288.6875 417.191406 292.484375 412.503906 292.484375 C 407.820312 292.484375 404.019531 288.6875 404.019531 284 C 404.019531 279.3125 407.820312 275.515625 412.503906 275.515625 C 417.191406 275.515625 420.988281 279.3125 420.988281 284 Z M 420.988281 284 "/>
</g>
<path style=" stroke:none;fill-rule:nonzero;fill:rgb(0%,0%,0%);fill-opacity:1;" d="M 430.132812 280.1875 C 429.527344 280.1875 429.070312 280.492188 428.757812 281.09375 C 428.453125 281.6875 428.304688 282.589844 428.304688 283.796875 C 428.304688 284.996094 428.453125 285.898438 428.757812 286.5 C 429.070312 287.09375 429.527344 287.390625 430.132812 287.390625 C 430.746094 287.390625 431.203125 287.09375 431.507812 286.5 C 431.820312 285.898438 431.976562 284.996094 431.976562 283.796875 C 431.976562 282.589844 431.820312 281.6875 431.507812 281.09375 C 431.203125 280.492188 430.746094 280.1875 430.132812 280.1875 Z M 430.132812 279.25 C 431.109375 279.25 431.859375 279.640625 432.382812 280.421875 C 432.902344 281.195312 433.164062 282.320312 433.164062 283.796875 C 433.164062 285.265625 432.902344 286.390625 432.382812 287.171875 C 431.859375 287.945312 431.109375 288.328125 430.132812 288.328125 C 429.152344 288.328125 428.402344 287.945312 427.882812 287.171875 C 427.371094 286.390625 427.117188 285.265625 427.117188 283.796875 C 427.117188 282.320312 427.371094 281.195312 427.882812 280.421875 C 428.402344 279.640625 429.152344 279.25 430.132812 279.25 Z M 440.125 280.375 L 440.125 283.671875 L 441.609375 283.671875 C 442.160156 283.671875 442.585938 283.53125 442.890625 283.25 C 443.191406 282.960938 443.34375 282.546875 443.34375 282.015625 C 443.34375 281.496094 443.191406 281.09375 442.890625 280.8125 C 442.585938 280.523438 442.160156 280.375 441.609375 280.375 Z M 438.9375 279.40625 L 441.609375 279.40625 C 442.597656 279.40625 443.34375 279.632812 443.84375 280.078125 C 444.34375 280.515625 444.59375 281.164062 444.59375 282.015625 C 444.59375 282.882812 444.34375 283.539062 443.84375 283.984375 C 443.34375 284.421875 442.597656 284.640625 441.609375 284.640625 L 440.125 284.640625 L 440.125 288.15625 L 438.9375 288.15625 Z M 446.128906 279.03125 L 447.207031 279.03125 L 447.207031 288.15625 L 446.128906 288.15625 Z M 452.445312 284.859375 C 451.578125 284.859375 450.976562 284.960938 450.632812 285.15625 C 450.296875 285.355469 450.132812 285.695312 450.132812 286.171875 C 450.132812 286.558594 450.257812 286.867188 450.507812 287.09375 C 450.765625 287.3125 451.109375 287.421875 451.539062 287.421875 C 452.140625 287.421875 452.621094 287.214844 452.976562 286.796875 C 453.339844 286.371094 453.523438 285.804688 453.523438 285.09375 L 453.523438 284.859375 Z M 454.601562 284.40625 L 454.601562 288.15625 L 453.523438 288.15625 L 453.523438 287.15625 C 453.273438 287.554688 452.964844 287.851562 452.601562 288.046875 C 452.234375 288.234375 451.789062 288.328125 451.257812 288.328125 C 450.578125 288.328125 450.042969 288.140625 449.648438 287.765625 C 449.25 287.382812 449.054688 286.875 449.054688 286.25 C 449.054688 285.511719 449.296875 284.953125 449.789062 284.578125 C 450.289062 284.203125 451.027344 284.015625 452.007812 284.015625 L 453.523438 284.015625 L 453.523438 283.90625 C 453.523438 283.40625 453.355469 283.023438 453.023438 282.75 C 452.699219 282.480469 452.246094 282.34375 451.664062 282.34375 C 451.289062 282.34375 450.917969 282.390625 450.554688 282.484375 C 450.199219 282.578125 449.859375 282.714844 449.539062 282.890625 L 449.539062 281.890625 C 449.933594 281.734375 450.3125 281.621094 450.679688 281.546875 C 451.054688 281.476562 451.417969 281.4375 451.773438 281.4375 C 452.71875 281.4375 453.429688 281.683594 453.898438 282.171875 C 454.367188 282.664062 454.601562 283.40625 454.601562 284.40625 Z M 459.550781 288.765625 C 459.246094 289.546875 458.949219 290.054688 458.660156 290.296875 C 458.367188 290.535156 457.980469 290.65625 457.503906 290.65625 L 456.644531 290.65625 L 456.644531 289.75 L 457.269531 289.75 C 457.570312 289.75 457.800781 289.675781 457.957031 289.53125 C 458.121094 289.394531 458.304688 289.066406 458.503906 288.546875 L 458.707031 288.046875 L 456.050781 281.59375 L 457.191406 281.59375 L 459.238281 286.71875 L 461.300781 281.59375 L 462.441406 281.59375 Z M 469.542969 284.609375 L 469.542969 285.125 L 464.574219 285.125 C 464.625 285.875 464.847656 286.445312 465.246094 286.828125 C 465.652344 287.214844 466.207031 287.40625 466.917969 287.40625 C 467.332031 287.40625 467.734375 287.359375 468.121094 287.265625 C 468.515625 287.164062 468.90625 287.007812 469.292969 286.796875 L 469.292969 287.828125 C 468.894531 287.984375 468.496094 288.105469 468.089844 288.1875 C 467.683594 288.28125 467.269531 288.328125 466.855469 288.328125 C 465.8125 288.328125 464.984375 288.027344 464.371094 287.421875 C 463.753906 286.808594 463.449219 285.980469 463.449219 284.9375 C 463.449219 283.867188 463.738281 283.015625 464.324219 282.390625 C 464.90625 281.757812 465.6875 281.4375 466.667969 281.4375 C 467.550781 281.4375 468.25 281.726562 468.761719 282.296875 C 469.28125 282.859375 469.542969 283.632812 469.542969 284.609375 Z M 468.464844 284.28125 C 468.453125 283.699219 468.285156 283.230469 467.964844 282.875 C 467.640625 282.523438 467.214844 282.34375 466.683594 282.34375 C 466.078125 282.34375 465.59375 282.515625 465.230469 282.859375 C 464.875 283.203125 464.671875 283.683594 464.621094 284.296875 Z M 475.113281 282.59375 C 474.988281 282.53125 474.851562 282.484375 474.707031 282.453125 C 474.570312 282.414062 474.414062 282.390625 474.238281 282.390625 C 473.632812 282.390625 473.164062 282.589844 472.832031 282.984375 C 472.507812 283.382812 472.347656 283.953125 472.347656 284.703125 L 472.347656 288.15625 L 471.269531 288.15625 L 471.269531 281.59375 L 472.347656 281.59375 L 472.347656 282.609375 C 472.574219 282.214844 472.871094 281.921875 473.238281 281.734375 C 473.601562 281.539062 474.042969 281.4375 474.566406 281.4375 C 474.636719 281.4375 474.714844 281.445312 474.800781 281.453125 C 474.894531 281.464844 474.992188 281.480469 475.097656 281.5 Z M 480.421875 281.78125 L 480.421875 282.8125 C 480.117188 282.65625 479.800781 282.542969 479.46875 282.46875 C 479.144531 282.386719 478.804688 282.34375 478.453125 282.34375 C 477.921875 282.34375 477.519531 282.429688 477.25 282.59375 C 476.976562 282.75 476.84375 282.996094 476.84375 283.328125 C 476.84375 283.578125 476.9375 283.777344 477.125 283.921875 C 477.320312 284.058594 477.710938 284.1875 478.296875 284.3125 L 478.65625 284.40625 C 479.425781 284.5625 479.972656 284.792969 480.296875 285.09375 C 480.617188 285.398438 480.78125 285.8125 480.78125 286.34375 C 480.78125 286.960938 480.535156 287.445312 480.046875 287.796875 C 479.566406 288.152344 478.90625 288.328125 478.0625 288.328125 C 477.707031 288.328125 477.335938 288.289062 476.953125 288.21875 C 476.578125 288.15625 476.179688 288.058594 475.765625 287.921875 L 475.765625 286.796875 C 476.160156 287.007812 476.550781 287.164062 476.9375 287.265625 C 477.320312 287.371094 477.707031 287.421875 478.09375 287.421875 C 478.59375 287.421875 478.976562 287.339844 479.25 287.171875 C 479.53125 286.996094 479.671875 286.746094 479.671875 286.421875 C 479.671875 286.132812 479.570312 285.90625 479.375 285.75 C 479.175781 285.59375 478.742188 285.445312 478.078125 285.296875 L 477.703125 285.21875 C 477.035156 285.074219 476.550781 284.855469 476.25 284.5625 C 475.957031 284.273438 475.8125 283.875 475.8125 283.375 C 475.8125 282.75 476.03125 282.273438 476.46875 281.9375 C 476.90625 281.605469 477.523438 281.4375 478.328125 281.4375 C 478.722656 281.4375 479.097656 281.46875 479.453125 281.53125 C 479.804688 281.585938 480.128906 281.667969 480.421875 281.78125 Z M 422.503906 277.015625 "/>
<path style=" stroke:none;fill-rule:nonzero;fill:rgb(26.666667%,26.666667%,26.666667%);fill-opacity:1;" d="M 228.796875 14.34375 L 232.921875 14.34375 L 236.234375 19.53125 L 239.5625 14.34375 L 243.671875 14.34375 L 238.125 22.78125 L 238.125 28.921875 L 234.359375 28.921875 L 234.359375 22.78125 Z M 243.28125 14.34375 L 247.40625 14.34375 L 250.71875 19.53125 L 254.046875 14.34375 L 258.15625 14.34375 L 252.609375 22.78125 L 252.609375 28.921875 L 248.84375 28.921875 L 248.84375 22.78125 Z M 269.949219 14.796875 L 269.949219 17.890625 C 269.144531 17.527344 268.363281 17.257812 267.605469 17.078125 C 266.84375 16.890625 266.125 16.796875 265.449219 16.796875 C 264.550781 16.796875 263.886719 16.921875 263.449219 17.171875 C 263.019531 17.421875 262.808594 17.808594 262.808594 18.328125 C 262.808594 18.714844 262.953125 19.015625 263.246094 19.234375 C 263.535156 19.453125 264.0625 19.640625 264.824219 19.796875 L 266.417969 20.125 C 268.042969 20.449219 269.191406 20.945312 269.871094 21.609375 C 270.558594 22.277344 270.902344 23.21875 270.902344 24.4375 C 270.902344 26.042969 270.421875 27.242188 269.464844 28.03125 C 268.515625 28.8125 267.0625 29.203125 265.105469 29.203125 C 264.175781 29.203125 263.246094 29.113281 262.308594 28.9375 C 261.378906 28.761719 260.453125 28.5 259.527344 28.15625 L 259.527344 24.984375 C 260.453125 25.484375 261.347656 25.859375 262.214844 26.109375 C 263.089844 26.359375 263.933594 26.484375 264.746094 26.484375 C 265.566406 26.484375 266.191406 26.351562 266.621094 26.078125 C 267.058594 25.796875 267.277344 25.402344 267.277344 24.890625 C 267.277344 24.445312 267.125 24.09375 266.824219 23.84375 C 266.53125 23.59375 265.941406 23.371094 265.058594 23.171875 L 263.605469 22.859375 C 262.144531 22.546875 261.078125 22.054688 260.402344 21.375 C 259.734375 20.6875 259.402344 19.761719 259.402344 18.59375 C 259.402344 17.148438 259.871094 16.03125 260.808594 15.25 C 261.746094 14.46875 263.09375 14.078125 264.855469 14.078125 C 265.65625 14.078125 266.480469 14.140625 267.324219 14.265625 C 268.167969 14.382812 269.042969 14.558594 269.949219 14.796875 Z M 291.316406 14.796875 L 291.316406 17.890625 C 290.511719 17.527344 289.730469 17.257812 288.972656 17.078125 C 288.210938 16.890625 287.492188 16.796875 286.816406 16.796875 C 285.917969 16.796875 285.253906 16.921875 284.816406 17.171875 C 284.386719 17.421875 284.175781 17.808594 284.175781 18.328125 C 284.175781 18.714844 284.320312 19.015625 284.613281 19.234375 C 284.902344 19.453125 285.429688 19.640625 286.191406 19.796875 L 287.785156 20.125 C 289.410156 20.449219 290.558594 20.945312 291.238281 21.609375 C 291.925781 22.277344 292.269531 23.21875 292.269531 24.4375 C 292.269531 26.042969 291.789062 27.242188 290.832031 28.03125 C 289.882812 28.8125 288.429688 29.203125 286.472656 29.203125 C 285.542969 29.203125 284.613281 29.113281 283.675781 28.9375 C 282.746094 28.761719 281.820312 28.5 280.894531 28.15625 L 280.894531 24.984375 C 281.820312 25.484375 282.714844 25.859375 283.582031 26.109375 C 284.457031 26.359375 285.300781 26.484375 286.113281 26.484375 C 286.933594 26.484375 287.558594 26.351562 287.988281 26.078125 C 288.425781 25.796875 288.644531 25.402344 288.644531 24.890625 C 288.644531 24.445312 288.492188 24.09375 288.191406 23.84375 C 287.898438 23.59375 287.308594 23.371094 286.425781 23.171875 L 284.972656 22.859375 C 283.511719 22.546875 282.445312 22.054688 281.769531 21.375 C 281.101562 20.6875 280.769531 19.761719 280.769531 18.59375 C 280.769531 17.148438 281.238281 16.03125 282.175781 15.25 C 283.113281 14.46875 284.460938 14.078125 286.222656 14.078125 C 287.023438 14.078125 287.847656 14.140625 288.691406 14.265625 C 289.535156 14.382812 290.410156 14.558594 291.316406 14.796875 Z M 304.25 18.328125 L 304.25 21.171875 C 303.78125 20.851562 303.304688 20.609375 302.828125 20.453125 C 302.347656 20.296875 301.847656 20.21875 301.328125 20.21875 C 300.359375 20.21875 299.597656 20.507812 299.046875 21.078125 C 298.503906 21.640625 298.234375 22.4375 298.234375 23.46875 C 298.234375 24.492188 298.503906 25.289062 299.046875 25.859375 C 299.597656 26.421875 300.359375 26.703125 301.328125 26.703125 C 301.878906 26.703125 302.398438 26.625 302.890625 26.46875 C 303.378906 26.304688 303.832031 26.058594 304.25 25.734375 L 304.25 28.59375 C 303.707031 28.804688 303.15625 28.953125 302.59375 29.046875 C 302.03125 29.148438 301.460938 29.203125 300.890625 29.203125 C 298.921875 29.203125 297.378906 28.699219 296.265625 27.6875 C 295.148438 26.679688 294.59375 25.273438 294.59375 23.46875 C 294.59375 21.65625 295.148438 20.246094 296.265625 19.234375 C 297.378906 18.226562 298.921875 17.71875 300.890625 17.71875 C 301.460938 17.71875 302.023438 17.773438 302.578125 17.875 C 303.140625 17.96875 303.695312 18.121094 304.25 18.328125 Z M 312.484375 20.21875 C 311.703125 20.21875 311.109375 20.5 310.703125 21.0625 C 310.296875 21.617188 310.09375 22.417969 310.09375 23.46875 C 310.09375 24.511719 310.296875 25.3125 310.703125 25.875 C 311.109375 26.429688 311.703125 26.703125 312.484375 26.703125 C 313.242188 26.703125 313.820312 26.429688 314.21875 25.875 C 314.625 25.3125 314.828125 24.511719 314.828125 23.46875 C 314.828125 22.417969 314.625 21.617188 314.21875 21.0625 C 313.820312 20.5 313.242188 20.21875 312.484375 20.21875 Z M 312.484375 17.71875 C 314.359375 17.71875 315.820312 18.230469 316.875 19.25 C 317.9375 20.261719 318.46875 21.667969 318.46875 23.46875 C 318.46875 25.261719 317.9375 26.667969 316.875 27.6875 C 315.820312 28.699219 314.359375 29.203125 312.484375 29.203125 C 310.585938 29.203125 309.109375 28.699219 308.046875 27.6875 C 306.984375 26.667969 306.453125 25.261719 306.453125 23.46875 C 306.453125 21.667969 306.984375 20.261719 308.046875 19.25 C 309.109375 18.230469 310.585938 17.71875 312.484375 17.71875 Z M 329.144531 20.96875 C 328.832031 20.824219 328.523438 20.71875 328.222656 20.65625 C 327.917969 20.585938 327.617188 20.546875 327.316406 20.546875 C 326.410156 20.546875 325.710938 20.835938 325.222656 21.40625 C 324.742188 21.980469 324.503906 22.804688 324.503906 23.875 L 324.503906 28.921875 L 321.019531 28.921875 L 321.019531 17.984375 L 324.503906 17.984375 L 324.503906 19.78125 C 324.949219 19.0625 325.464844 18.542969 326.050781 18.21875 C 326.632812 17.886719 327.332031 17.71875 328.144531 17.71875 C 328.269531 17.71875 328.398438 17.726562 328.535156 17.734375 C 328.667969 17.746094 328.867188 17.765625 329.128906 17.796875 Z M 341.789062 23.421875 L 341.789062 24.421875 L 333.617188 24.421875 C 333.699219 25.246094 333.996094 25.859375 334.507812 26.265625 C 335.015625 26.671875 335.726562 26.875 336.632812 26.875 C 337.371094 26.875 338.125 26.765625 338.898438 26.546875 C 339.667969 26.328125 340.460938 26 341.273438 25.5625 L 341.273438 28.25 C 340.449219 28.5625 339.621094 28.796875 338.789062 28.953125 C 337.964844 29.117188 337.140625 29.203125 336.320312 29.203125 C 334.339844 29.203125 332.796875 28.703125 331.695312 27.703125 C 330.601562 26.695312 330.054688 25.28125 330.054688 23.46875 C 330.054688 21.679688 330.589844 20.273438 331.664062 19.25 C 332.746094 18.230469 334.230469 17.71875 336.117188 17.71875 C 337.835938 17.71875 339.210938 18.242188 340.242188 19.28125 C 341.273438 20.3125 341.789062 21.695312 341.789062 23.421875 Z M 338.195312 22.265625 C 338.195312 21.601562 338 21.0625 337.617188 20.65625 C 337.230469 20.25 336.726562 20.046875 336.101562 20.046875 C 335.421875 20.046875 334.871094 20.242188 334.445312 20.625 C 334.027344 21 333.765625 21.546875 333.664062 22.265625 Z M 350.257812 26.671875 C 351.007812 26.671875 351.578125 26.402344 351.976562 25.859375 C 352.371094 25.308594 352.570312 24.511719 352.570312 23.46875 C 352.570312 22.429688 352.371094 21.636719 351.976562 21.09375 C 351.578125 20.542969 351.007812 20.265625 350.257812 20.265625 C 349.507812 20.265625 348.929688 20.542969 348.523438 21.09375 C 348.125 21.636719 347.929688 22.429688 347.929688 23.46875 C 347.929688 24.5 348.125 25.292969 348.523438 25.84375 C 348.929688 26.398438 349.507812 26.671875 350.257812 26.671875 Z M 347.929688 19.578125 C 348.417969 18.945312 348.953125 18.476562 349.539062 18.171875 C 350.121094 17.871094 350.792969 17.71875 351.554688 17.71875 C 352.90625 17.71875 354.015625 18.257812 354.882812 19.328125 C 355.746094 20.402344 356.179688 21.78125 356.179688 23.46875 C 356.179688 25.148438 355.746094 26.523438 354.882812 27.59375 C 354.015625 28.667969 352.90625 29.203125 351.554688 29.203125 C 350.792969 29.203125 350.121094 29.050781 349.539062 28.75 C 348.953125 28.449219 348.417969 27.980469 347.929688 27.34375 L 347.929688 28.921875 L 344.445312 28.921875 L 344.445312 13.71875 L 347.929688 13.71875 Z M 363.96875 20.21875 C 363.1875 20.21875 362.59375 20.5 362.1875 21.0625 C 361.78125 21.617188 361.578125 22.417969 361.578125 23.46875 C 361.578125 24.511719 361.78125 25.3125 362.1875 25.875 C 362.59375 26.429688 363.1875 26.703125 363.96875 26.703125 C 364.726562 26.703125 365.304688 26.429688 365.703125 25.875 C 366.109375 25.3125 366.3125 24.511719 366.3125 23.46875 C 366.3125 22.417969 366.109375 21.617188 365.703125 21.0625 C 365.304688 20.5 364.726562 20.21875 363.96875 20.21875 Z M 363.96875 17.71875 C 365.84375 17.71875 367.304688 18.230469 368.359375 19.25 C 369.421875 20.261719 369.953125 21.667969 369.953125 23.46875 C 369.953125 25.261719 369.421875 26.667969 368.359375 27.6875 C 367.304688 28.699219 365.84375 29.203125 363.96875 29.203125 C 362.070312 29.203125 360.59375 28.699219 359.53125 27.6875 C 358.46875 26.667969 357.9375 25.261719 357.9375 23.46875 C 357.9375 21.667969 358.46875 20.261719 359.53125 19.25 C 360.59375 18.230469 362.070312 17.71875 363.96875 17.71875 Z M 377.394531 24 C 376.664062 24 376.117188 24.125 375.753906 24.375 C 375.386719 24.617188 375.207031 24.980469 375.207031 25.46875 C 375.207031 25.90625 375.351562 26.25 375.644531 26.5 C 375.945312 26.75 376.355469 26.875 376.878906 26.875 C 377.535156 26.875 378.085938 26.640625 378.535156 26.171875 C 378.992188 25.703125 379.222656 25.117188 379.222656 24.40625 L 379.222656 24 Z M 382.738281 22.6875 L 382.738281 28.921875 L 379.222656 28.921875 L 379.222656 27.296875 C 378.753906 27.964844 378.222656 28.449219 377.628906 28.75 C 377.042969 29.050781 376.332031 29.203125 375.488281 29.203125 C 374.363281 29.203125 373.445312 28.875 372.738281 28.21875 C 372.027344 27.554688 371.675781 26.695312 371.675781 25.640625 C 371.675781 24.359375 372.113281 23.421875 372.988281 22.828125 C 373.871094 22.226562 375.261719 21.921875 377.160156 21.921875 L 379.222656 21.921875 L 379.222656 21.640625 C 379.222656 21.089844 379.003906 20.6875 378.566406 20.4375 C 378.128906 20.179688 377.445312 20.046875 376.519531 20.046875 C 375.769531 20.046875 375.070312 20.125 374.425781 20.28125 C 373.777344 20.429688 373.179688 20.648438 372.628906 20.9375 L 372.628906 18.28125 C 373.378906 18.09375 374.128906 17.953125 374.878906 17.859375 C 375.636719 17.765625 376.398438 17.71875 377.160156 17.71875 C 379.128906 17.71875 380.550781 18.109375 381.425781 18.890625 C 382.300781 19.664062 382.738281 20.929688 382.738281 22.6875 Z M 394.125 20.96875 C 393.8125 20.824219 393.503906 20.71875 393.203125 20.65625 C 392.898438 20.585938 392.597656 20.546875 392.296875 20.546875 C 391.390625 20.546875 390.691406 20.835938 390.203125 21.40625 C 389.722656 21.980469 389.484375 22.804688 389.484375 23.875 L 389.484375 28.921875 L 386 28.921875 L 386 17.984375 L 389.484375 17.984375 L 389.484375 19.78125 C 389.929688 19.0625 390.445312 18.542969 391.03125 18.21875 C 391.613281 17.886719 392.3125 17.71875 393.125 17.71875 C 393.25 17.71875 393.378906 17.726562 393.515625 17.734375 C 393.648438 17.746094 393.847656 17.765625 394.109375 17.796875 Z M 403.300781 19.578125 L 403.300781 13.71875 L 406.816406 13.71875 L 406.816406 28.921875 L 403.300781 28.921875 L 403.300781 27.34375 C 402.820312 27.992188 402.289062 28.464844 401.707031 28.765625 C 401.121094 29.054688 400.449219 29.203125 399.691406 29.203125 C 398.347656 29.203125 397.242188 28.667969 396.378906 27.59375 C 395.511719 26.523438 395.082031 25.148438 395.082031 23.46875 C 395.082031 21.78125 395.511719 20.402344 396.378906 19.328125 C 397.242188 18.257812 398.347656 17.71875 399.691406 17.71875 C 400.449219 17.71875 401.121094 17.871094 401.707031 18.171875 C 402.289062 18.476562 402.820312 18.945312 403.300781 19.578125 Z M 400.988281 26.671875 C 401.738281 26.671875 402.308594 26.402344 402.707031 25.859375 C 403.101562 25.308594 403.300781 24.511719 403.300781 23.46875 C 403.300781 22.429688 403.101562 21.636719 402.707031 21.09375 C 402.308594 20.542969 401.738281 20.265625 400.988281 20.265625 C 400.246094 20.265625 399.679688 20.542969 399.285156 21.09375 C 398.886719 21.636719 398.691406 22.429688 398.691406 23.46875 C 398.691406 24.511719 398.886719 25.308594 399.285156 25.859375 C 399.679688 26.402344 400.246094 26.671875 400.988281 26.671875 Z M 422.953125 26.671875 C 423.703125 26.671875 424.273438 26.402344 424.671875 25.859375 C 425.066406 25.308594 425.265625 24.511719 425.265625 23.46875 C 425.265625 22.429688 425.066406 21.636719 424.671875 21.09375 C 424.273438 20.542969 423.703125 20.265625 422.953125 20.265625 C 422.203125 20.265625 421.625 20.542969 421.21875 21.09375 C 420.820312 21.636719 420.625 22.429688 420.625 23.46875 C 420.625 24.5 420.820312 25.292969 421.21875 25.84375 C 421.625 26.398438 422.203125 26.671875 422.953125 26.671875 Z M 420.625 19.578125 C 421.113281 18.945312 421.648438 18.476562 422.234375 18.171875 C 422.816406 17.871094 423.488281 17.71875 424.25 17.71875 C 425.601562 17.71875 426.710938 18.257812 427.578125 19.328125 C 428.441406 20.402344 428.875 21.78125 428.875 23.46875 C 428.875 25.148438 428.441406 26.523438 427.578125 27.59375 C 426.710938 28.667969 425.601562 29.203125 424.25 29.203125 C 423.488281 29.203125 422.816406 29.050781 422.234375 28.75 C 421.648438 28.449219 421.113281 27.980469 420.625 27.34375 L 420.625 28.921875 L 417.140625 28.921875 L 417.140625 13.71875 L 420.625 13.71875 Z M 430.023438 17.984375 L 433.507812 17.984375 L 436.460938 25.40625 L 438.960938 17.984375 L 442.445312 17.984375 L 437.851562 29.953125 C 437.390625 31.171875 436.851562 32.019531 436.226562 32.5 C 435.609375 32.988281 434.804688 33.234375 433.804688 33.234375 L 431.773438 33.234375 L 431.773438 30.9375 L 432.867188 30.9375 C 433.460938 30.9375 433.890625 30.84375 434.164062 30.65625 C 434.433594 30.46875 434.640625 30.128906 434.789062 29.640625 L 434.898438 29.34375 Z M 450.023438 17.984375 L 453.507812 17.984375 L 456.460938 25.40625 L 458.960938 17.984375 L 462.445312 17.984375 L 457.851562 29.953125 C 457.390625 31.171875 456.851562 32.019531 456.226562 32.5 C 455.609375 32.988281 454.804688 33.234375 453.804688 33.234375 L 451.773438 33.234375 L 451.773438 30.9375 L 452.867188 30.9375 C 453.460938 30.9375 453.890625 30.84375 454.164062 30.65625 C 454.433594 30.46875 454.640625 30.128906 454.789062 29.640625 L 454.898438 29.34375 Z M 464.496094 17.984375 L 467.980469 17.984375 L 467.980469 28.921875 L 464.496094 28.921875 Z M 464.496094 13.71875 L 467.980469 13.71875 L 467.980469 16.578125 L 464.496094 16.578125 Z M 482.335938 22.265625 L 482.335938 28.921875 L 478.820312 28.921875 L 478.820312 23.828125 C 478.820312 22.882812 478.796875 22.230469 478.757812 21.875 C 478.714844 21.511719 478.640625 21.246094 478.539062 21.078125 C 478.402344 20.851562 478.214844 20.671875 477.976562 20.546875 C 477.746094 20.421875 477.480469 20.359375 477.179688 20.359375 C 476.449219 20.359375 475.875 20.640625 475.460938 21.203125 C 475.042969 21.765625 474.835938 22.546875 474.835938 23.546875 L 474.835938 28.921875 L 471.351562 28.921875 L 471.351562 17.984375 L 474.835938 17.984375 L 474.835938 19.578125 C 475.367188 18.945312 475.929688 18.476562 476.523438 18.171875 C 477.117188 17.871094 477.765625 17.71875 478.476562 17.71875 C 479.746094 17.71875 480.703125 18.109375 481.351562 18.890625 C 482.007812 19.664062 482.335938 20.789062 482.335938 22.265625 Z M 484.152344 17.984375 L 487.636719 17.984375 L 490.589844 25.40625 L 493.089844 17.984375 L 496.574219 17.984375 L 491.980469 29.953125 C 491.519531 31.171875 490.980469 32.019531 490.355469 32.5 C 489.738281 32.988281 488.933594 33.234375 487.933594 33.234375 L 485.902344 33.234375 L 485.902344 30.9375 L 486.996094 30.9375 C 487.589844 30.9375 488.019531 30.84375 488.292969 30.65625 C 488.5625 30.46875 488.769531 30.128906 488.917969 29.640625 L 489.027344 29.34375 Z M 503.515625 24 C 502.785156 24 502.238281 24.125 501.875 24.375 C 501.507812 24.617188 501.328125 24.980469 501.328125 25.46875 C 501.328125 25.90625 501.472656 26.25 501.765625 26.5 C 502.066406 26.75 502.476562 26.875 503 26.875 C 503.65625 26.875 504.207031 26.640625 504.65625 26.171875 C 505.113281 25.703125 505.34375 25.117188 505.34375 24.40625 L 505.34375 24 Z M 508.859375 22.6875 L 508.859375 28.921875 L 505.34375 28.921875 L 505.34375 27.296875 C 504.875 27.964844 504.34375 28.449219 503.75 28.75 C 503.164062 29.050781 502.453125 29.203125 501.609375 29.203125 C 500.484375 29.203125 499.566406 28.875 498.859375 28.21875 C 498.148438 27.554688 497.796875 26.695312 497.796875 25.640625 C 497.796875 24.359375 498.234375 23.421875 499.109375 22.828125 C 499.992188 22.226562 501.382812 21.921875 503.28125 21.921875 L 505.34375 21.921875 L 505.34375 21.640625 C 505.34375 21.089844 505.125 20.6875 504.6875 20.4375 C 504.25 20.179688 503.566406 20.046875 502.640625 20.046875 C 501.890625 20.046875 501.191406 20.125 500.546875 20.28125 C 499.898438 20.429688 499.300781 20.648438 498.75 20.9375 L 498.75 18.28125 C 499.5 18.09375 500.25 17.953125 501 17.859375 C 501.757812 17.765625 502.519531 17.71875 503.28125 17.71875 C 505.25 17.71875 506.671875 18.109375 507.546875 18.890625 C 508.421875 19.664062 508.859375 20.929688 508.859375 22.6875 Z M 523.109375 22.265625 L 523.109375 28.921875 L 519.59375 28.921875 L 519.59375 23.828125 C 519.59375 22.882812 519.570312 22.230469 519.53125 21.875 C 519.488281 21.511719 519.414062 21.246094 519.3125 21.078125 C 519.175781 20.851562 518.988281 20.671875 518.75 20.546875 C 518.519531 20.421875 518.253906 20.359375 517.953125 20.359375 C 517.222656 20.359375 516.648438 20.640625 516.234375 21.203125 C 515.816406 21.765625 515.609375 22.546875 515.609375 23.546875 L 515.609375 28.921875 L 512.125 28.921875 L 512.125 17.984375 L 515.609375 17.984375 L 515.609375 19.578125 C 516.140625 18.945312 516.703125 18.476562 517.296875 18.171875 C 517.890625 17.871094 518.539062 17.71875 519.25 17.71875 C 520.519531 17.71875 521.476562 18.109375 522.125 18.890625 C 522.78125 19.664062 523.109375 20.789062 523.109375 22.265625 Z M 533.796875 27.0625 C 533.316406 27.699219 532.785156 28.167969 532.203125 28.46875 C 531.617188 28.773438 530.945312 28.921875 530.1875 28.921875 C 528.851562 28.921875 527.75 28.398438 526.875 27.34375 C 526.007812 26.292969 525.578125 24.953125 525.578125 23.328125 C 525.578125 21.695312 526.007812 20.355469 526.875 19.3125 C 527.75 18.261719 528.851562 17.734375 530.1875 17.734375 C 530.945312 17.734375 531.617188 17.886719 532.203125 18.1875 C 532.785156 18.492188 533.316406 18.964844 533.796875 19.609375 L 533.796875 17.984375 L 537.3125 17.984375 L 537.3125 27.8125 C 537.3125 29.570312 536.753906 30.914062 535.640625 31.84375 C 534.535156 32.769531 532.925781 33.234375 530.8125 33.234375 C 530.132812 33.234375 529.472656 33.179688 528.828125 33.078125 C 528.191406 32.972656 527.550781 32.816406 526.90625 32.609375 L 526.90625 29.875 C 527.519531 30.226562 528.117188 30.488281 528.703125 30.65625 C 529.285156 30.832031 529.875 30.921875 530.46875 30.921875 C 531.613281 30.921875 532.453125 30.671875 532.984375 30.171875 C 533.523438 29.671875 533.796875 28.886719 533.796875 27.8125 Z M 531.484375 20.265625 C 530.765625 20.265625 530.203125 20.53125 529.796875 21.0625 C 529.390625 21.59375 529.1875 22.351562 529.1875 23.328125 C 529.1875 24.328125 529.378906 25.089844 529.765625 25.609375 C 530.160156 26.121094 530.734375 26.375 531.484375 26.375 C 532.210938 26.375 532.78125 26.109375 533.1875 25.578125 C 533.59375 25.046875 533.796875 24.296875 533.796875 23.328125 C 533.796875 22.351562 533.59375 21.59375 533.1875 21.0625 C 532.78125 20.53125 532.210938 20.265625 531.484375 20.265625 Z M 549.210938 18.328125 L 549.210938 20.984375 C 548.46875 20.671875 547.75 20.4375 547.054688 20.28125 C 546.355469 20.125 545.695312 20.046875 545.070312 20.046875 C 544.414062 20.046875 543.921875 20.132812 543.601562 20.296875 C 543.277344 20.464844 543.117188 20.71875 543.117188 21.0625 C 543.117188 21.34375 543.234375 21.558594 543.476562 21.703125 C 543.726562 21.851562 544.164062 21.960938 544.789062 22.03125 L 545.414062 22.125 C 547.203125 22.355469 548.40625 22.730469 549.023438 23.25 C 549.636719 23.773438 549.945312 24.589844 549.945312 25.703125 C 549.945312 26.871094 549.511719 27.746094 548.648438 28.328125 C 547.792969 28.914062 546.515625 29.203125 544.820312 29.203125 C 544.089844 29.203125 543.339844 29.144531 542.570312 29.03125 C 541.796875 28.917969 541.007812 28.746094 540.195312 28.515625 L 540.195312 25.859375 C 540.890625 26.203125 541.605469 26.460938 542.335938 26.625 C 543.0625 26.792969 543.808594 26.875 544.570312 26.875 C 545.257812 26.875 545.773438 26.78125 546.117188 26.59375 C 546.460938 26.40625 546.632812 26.125 546.632812 25.75 C 546.632812 25.4375 546.511719 25.210938 546.273438 25.0625 C 546.03125 24.90625 545.558594 24.789062 544.851562 24.703125 L 544.242188 24.625 C 542.679688 24.429688 541.585938 24.070312 540.960938 23.546875 C 540.335938 23.015625 540.023438 22.214844 540.023438 21.140625 C 540.023438 19.984375 540.417969 19.125 541.210938 18.5625 C 542.011719 18 543.230469 17.71875 544.867188 17.71875 C 545.511719 17.71875 546.1875 17.773438 546.898438 17.875 C 547.605469 17.96875 548.375 18.121094 549.210938 18.328125 Z M 563.566406 22.265625 L 563.566406 28.921875 L 560.050781 28.921875 L 560.050781 23.84375 C 560.050781 22.886719 560.027344 22.230469 559.988281 21.875 C 559.945312 21.511719 559.871094 21.246094 559.769531 21.078125 C 559.632812 20.851562 559.445312 20.671875 559.207031 20.546875 C 558.976562 20.421875 558.710938 20.359375 558.410156 20.359375 C 557.679688 20.359375 557.105469 20.640625 556.691406 21.203125 C 556.273438 21.765625 556.066406 22.546875 556.066406 23.546875 L 556.066406 28.921875 L 552.582031 28.921875 L 552.582031 13.71875 L 556.066406 13.71875 L 556.066406 19.578125 C 556.597656 18.945312 557.160156 18.476562 557.753906 18.171875 C 558.347656 17.871094 558.996094 17.71875 559.707031 17.71875 C 560.976562 17.71875 561.933594 18.109375 562.582031 18.890625 C 563.238281 19.664062 563.566406 20.789062 563.566406 22.265625 Z M 566.820312 17.984375 L 570.304688 17.984375 L 570.304688 28.921875 L 566.820312 28.921875 Z M 566.820312 13.71875 L 570.304688 13.71875 L 570.304688 16.578125 L 566.820312 16.578125 Z M 229 10.359375 "/>
<path style="fill:none;stroke-width:1;stroke-linecap:butt;stroke-linejoin:miter;stroke:rgb(0%,0%,0%);stroke-opacity:0.0980392;stroke-miterlimit:10;" d="M 21 234.5 L 801 234.5 "/>
<path style=" stroke:none;fill-rule:nonzero;fill:rgb(40%,40%,40%);fill-opacity:1;" d="M 49.277344 248.203125 L 54.308594 248.203125 L 54.308594 249.203125 L 50.464844 249.203125 L 50.464844 251.78125 L 53.933594 251.78125 L 53.933594 252.78125 L 50.464844 252.78125 L 50.464844 256.953125 L 49.277344 256.953125 Z M 61.101562 253.40625 L 61.101562 253.921875 L 56.132812 253.921875 C 56.183594 254.671875 56.40625 255.242188 56.804688 255.625 C 57.210938 256.011719 57.765625 256.203125 58.476562 256.203125 C 58.890625 256.203125 59.292969 256.15625 59.679688 256.0625 C 60.074219 255.960938 60.464844 255.804688 60.851562 255.59375 L 60.851562 256.625 C 60.453125 256.78125 60.054688 256.902344 59.648438 256.984375 C 59.242188 257.078125 58.828125 257.125 58.414062 257.125 C 57.371094 257.125 56.542969 256.824219 55.929688 256.21875 C 55.3125 255.605469 55.007812 254.777344 55.007812 253.734375 C 55.007812 252.664062 55.296875 251.8125 55.882812 251.1875 C 56.464844 250.554688 57.246094 250.234375 58.226562 250.234375 C 59.109375 250.234375 59.808594 250.523438 60.320312 251.09375 C 60.839844 251.65625 61.101562 252.429688 61.101562 253.40625 Z M 60.023438 253.078125 C 60.011719 252.496094 59.84375 252.027344 59.523438 251.671875 C 59.199219 251.320312 58.773438 251.140625 58.242188 251.140625 C 57.636719 251.140625 57.152344 251.3125 56.789062 251.65625 C 56.433594 252 56.230469 252.480469 56.179688 253.09375 Z M 67.578125 253.671875 C 67.578125 252.882812 67.410156 252.261719 67.078125 251.8125 C 66.753906 251.367188 66.3125 251.140625 65.75 251.140625 C 65.175781 251.140625 64.722656 251.367188 64.390625 251.8125 C 64.066406 252.261719 63.90625 252.882812 63.90625 253.671875 C 63.90625 254.464844 64.066406 255.089844 64.390625 255.546875 C 64.722656 255.996094 65.175781 256.21875 65.75 256.21875 C 66.3125 256.21875 66.753906 255.996094 67.078125 255.546875 C 67.410156 255.089844 67.578125 254.464844 67.578125 253.671875 Z M 63.90625 251.390625 C 64.132812 250.996094 64.421875 250.703125 64.765625 250.515625 C 65.109375 250.328125 65.519531 250.234375 66 250.234375 C 66.800781 250.234375 67.453125 250.554688 67.953125 251.1875 C 68.453125 251.8125 68.703125 252.640625 68.703125 253.671875 C 68.703125 254.703125 68.453125 255.539062 67.953125 256.171875 C 67.453125 256.808594 66.800781 257.125 66 257.125 C 65.519531 257.125 65.109375 257.03125 64.765625 256.84375 C 64.421875 256.648438 64.132812 256.355469 63.90625 255.96875 L 63.90625 256.953125 L 62.828125 256.953125 L 62.828125 247.828125 L 63.90625 247.828125 Z M 74.648438 255.953125 L 76.585938 255.953125 L 76.585938 249.28125 L 74.476562 249.703125 L 74.476562 248.625 L 76.570312 248.203125 L 77.757812 248.203125 L 77.757812 255.953125 L 79.695312 255.953125 L 79.695312 256.953125 L 74.648438 256.953125 Z M 82.113281 256.765625 L 82.113281 255.6875 C 82.414062 255.835938 82.714844 255.945312 83.019531 256.015625 C 83.320312 256.089844 83.621094 256.125 83.925781 256.125 C 84.707031 256.125 85.300781 255.867188 85.707031 255.34375 C 86.121094 254.8125 86.355469 254.011719 86.410156 252.9375 C 86.191406 253.28125 85.902344 253.542969 85.550781 253.71875 C 85.207031 253.898438 84.820312 253.984375 84.394531 253.984375 C 83.519531 253.984375 82.824219 253.726562 82.316406 253.203125 C 81.804688 252.671875 81.550781 251.945312 81.550781 251.015625 C 81.550781 250.121094 81.816406 249.402344 82.347656 248.859375 C 82.878906 248.320312 83.585938 248.046875 84.472656 248.046875 C 85.480469 248.046875 86.253906 248.4375 86.785156 249.21875 C 87.324219 249.992188 87.597656 251.117188 87.597656 252.59375 C 87.597656 253.96875 87.269531 255.070312 86.613281 255.890625 C 85.957031 256.714844 85.074219 257.125 83.972656 257.125 C 83.667969 257.125 83.367188 257.09375 83.066406 257.03125 C 82.761719 256.976562 82.445312 256.890625 82.113281 256.765625 Z M 84.472656 253.0625 C 85.003906 253.0625 85.425781 252.882812 85.738281 252.515625 C 86.050781 252.152344 86.207031 251.652344 86.207031 251.015625 C 86.207031 250.390625 86.050781 249.898438 85.738281 249.53125 C 85.425781 249.167969 85.003906 248.984375 84.472656 248.984375 C 83.941406 248.984375 83.519531 249.167969 83.207031 249.53125 C 82.902344 249.898438 82.753906 250.390625 82.753906 251.015625 C 82.753906 251.652344 82.902344 252.152344 83.207031 252.515625 C 83.519531 252.882812 83.941406 253.0625 84.472656 253.0625 Z M 48.105469 245.816406 "/>
<path style=" stroke:none;fill-rule:nonzero;fill:rgb(40%,40%,40%);fill-opacity:1;" d="M 160.804688 248.203125 L 165.835938 248.203125 L 165.835938 249.203125 L 161.992188 249.203125 L 161.992188 251.78125 L 165.460938 251.78125 L 165.460938 252.78125 L 161.992188 252.78125 L 161.992188 256.953125 L 160.804688 256.953125 Z M 172.628906 253.40625 L 172.628906 253.921875 L 167.660156 253.921875 C 167.710938 254.671875 167.933594 255.242188 168.332031 255.625 C 168.738281 256.011719 169.292969 256.203125 170.003906 256.203125 C 170.417969 256.203125 170.820312 256.15625 171.207031 256.0625 C 171.601562 255.960938 171.992188 255.804688 172.378906 255.59375 L 172.378906 256.625 C 171.980469 256.78125 171.582031 256.902344 171.175781 256.984375 C 170.769531 257.078125 170.355469 257.125 169.941406 257.125 C 168.898438 257.125 168.070312 256.824219 167.457031 256.21875 C 166.839844 255.605469 166.535156 254.777344 166.535156 253.734375 C 166.535156 252.664062 166.824219 251.8125 167.410156 251.1875 C 167.992188 250.554688 168.773438 250.234375 169.753906 250.234375 C 170.636719 250.234375 171.335938 250.523438 171.847656 251.09375 C 172.367188 251.65625 172.628906 252.429688 172.628906 253.40625 Z M 171.550781 253.078125 C 171.539062 252.496094 171.371094 252.027344 171.050781 251.671875 C 170.726562 251.320312 170.300781 251.140625 169.769531 251.140625 C 169.164062 251.140625 168.679688 251.3125 168.316406 251.65625 C 167.960938 252 167.757812 252.480469 167.707031 253.09375 Z M 179.105469 253.671875 C 179.105469 252.882812 178.9375 252.261719 178.605469 251.8125 C 178.28125 251.367188 177.839844 251.140625 177.277344 251.140625 C 176.703125 251.140625 176.25 251.367188 175.917969 251.8125 C 175.59375 252.261719 175.433594 252.882812 175.433594 253.671875 C 175.433594 254.464844 175.59375 255.089844 175.917969 255.546875 C 176.25 255.996094 176.703125 256.21875 177.277344 256.21875 C 177.839844 256.21875 178.28125 255.996094 178.605469 255.546875 C 178.9375 255.089844 179.105469 254.464844 179.105469 253.671875 Z M 175.433594 251.390625 C 175.660156 250.996094 175.949219 250.703125 176.292969 250.515625 C 176.636719 250.328125 177.046875 250.234375 177.527344 250.234375 C 178.328125 250.234375 178.980469 250.554688 179.480469 251.1875 C 179.980469 251.8125 180.230469 252.640625 180.230469 253.671875 C 180.230469 254.703125 179.980469 255.539062 179.480469 256.171875 C 178.980469 256.808594 178.328125 257.125 177.527344 257.125 C 177.046875 257.125 176.636719 257.03125 176.292969 256.84375 C 175.949219 256.648438 175.660156 256.355469 175.433594 255.96875 L 175.433594 256.953125 L 174.355469 256.953125 L 174.355469 247.828125 L 175.433594 247.828125 Z M 186.992188 255.953125 L 191.132812 255.953125 L 191.132812 256.953125 L 185.570312 256.953125 L 185.570312 255.953125 C 186.015625 255.496094 186.625 254.875 187.398438 254.09375 C 188.179688 253.304688 188.667969 252.792969 188.867188 252.5625 C 189.25 252.148438 189.515625 251.792969 189.664062 251.5 C 189.820312 251.199219 189.898438 250.90625 189.898438 250.625 C 189.898438 250.15625 189.730469 249.777344 189.398438 249.484375 C 189.074219 249.195312 188.652344 249.046875 188.132812 249.046875 C 187.757812 249.046875 187.359375 249.109375 186.945312 249.234375 C 186.539062 249.359375 186.101562 249.558594 185.632812 249.828125 L 185.632812 248.625 C 186.109375 248.4375 186.554688 248.296875 186.960938 248.203125 C 187.375 248.101562 187.757812 248.046875 188.101562 248.046875 C 189.007812 248.046875 189.730469 248.277344 190.273438 248.734375 C 190.8125 249.183594 191.085938 249.789062 191.085938 250.546875 C 191.085938 250.902344 191.015625 251.242188 190.882812 251.5625 C 190.746094 251.886719 190.5 252.265625 190.148438 252.703125 C 190.042969 252.820312 189.730469 253.148438 189.210938 253.6875 C 188.6875 254.230469 187.949219 254.984375 186.992188 255.953125 Z M 196.140625 248.984375 C 195.535156 248.984375 195.078125 249.289062 194.765625 249.890625 C 194.460938 250.484375 194.3125 251.386719 194.3125 252.59375 C 194.3125 253.792969 194.460938 254.695312 194.765625 255.296875 C 195.078125 255.890625 195.535156 256.1875 196.140625 256.1875 C 196.753906 256.1875 197.210938 255.890625 197.515625 255.296875 C 197.828125 254.695312 197.984375 253.792969 197.984375 252.59375 C 197.984375 251.386719 197.828125 250.484375 197.515625 249.890625 C 197.210938 249.289062 196.753906 248.984375 196.140625 248.984375 Z M 196.140625 248.046875 C 197.117188 248.046875 197.867188 248.4375 198.390625 249.21875 C 198.910156 249.992188 199.171875 251.117188 199.171875 252.59375 C 199.171875 254.0625 198.910156 255.1875 198.390625 255.96875 C 197.867188 256.742188 197.117188 257.125 196.140625 257.125 C 195.160156 257.125 194.410156 256.742188 193.890625 255.96875 C 193.378906 255.1875 193.125 254.0625 193.125 252.59375 C 193.125 251.117188 193.378906 249.992188 193.890625 249.21875 C 194.410156 248.4375 195.160156 248.046875 196.140625 248.046875 Z M 159.632812 245.816406 "/>
<path style=" stroke:none;fill-rule:nonzero;fill:rgb(40%,40%,40%);fill-opacity:1;" d="M 272.332031 248.203125 L 277.363281 248.203125 L 277.363281 249.203125 L 273.519531 249.203125 L 273.519531 251.78125 L 276.988281 251.78125 L 276.988281 252.78125 L 273.519531 252.78125 L 273.519531 256.953125 L 272.332031 256.953125 Z M 284.15625 253.40625 L 284.15625 253.921875 L 279.1875 253.921875 C 279.238281 254.671875 279.460938 255.242188 279.859375 255.625 C 280.265625 256.011719 280.820312 256.203125 281.53125 256.203125 C 281.945312 256.203125 282.347656 256.15625 282.734375 256.0625 C 283.128906 255.960938 283.519531 255.804688 283.90625 255.59375 L 283.90625 256.625 C 283.507812 256.78125 283.109375 256.902344 282.703125 256.984375 C 282.296875 257.078125 281.882812 257.125 281.46875 257.125 C 280.425781 257.125 279.597656 256.824219 278.984375 256.21875 C 278.367188 255.605469 278.0625 254.777344 278.0625 253.734375 C 278.0625 252.664062 278.351562 251.8125 278.9375 251.1875 C 279.519531 250.554688 280.300781 250.234375 281.28125 250.234375 C 282.164062 250.234375 282.863281 250.523438 283.375 251.09375 C 283.894531 251.65625 284.15625 252.429688 284.15625 253.40625 Z M 283.078125 253.078125 C 283.066406 252.496094 282.898438 252.027344 282.578125 251.671875 C 282.253906 251.320312 281.828125 251.140625 281.296875 251.140625 C 280.691406 251.140625 280.207031 251.3125 279.84375 251.65625 C 279.488281 252 279.285156 252.480469 279.234375 253.09375 Z M 290.632812 253.671875 C 290.632812 252.882812 290.464844 252.261719 290.132812 251.8125 C 289.808594 251.367188 289.367188 251.140625 288.804688 251.140625 C 288.230469 251.140625 287.777344 251.367188 287.445312 251.8125 C 287.121094 252.261719 286.960938 252.882812 286.960938 253.671875 C 286.960938 254.464844 287.121094 255.089844 287.445312 255.546875 C 287.777344 255.996094 288.230469 256.21875 288.804688 256.21875 C 289.367188 256.21875 289.808594 255.996094 290.132812 255.546875 C 290.464844 255.089844 290.632812 254.464844 290.632812 253.671875 Z M 286.960938 251.390625 C 287.1875 250.996094 287.476562 250.703125 287.820312 250.515625 C 288.164062 250.328125 288.574219 250.234375 289.054688 250.234375 C 289.855469 250.234375 290.507812 250.554688 291.007812 251.1875 C 291.507812 251.8125 291.757812 252.640625 291.757812 253.671875 C 291.757812 254.703125 291.507812 255.539062 291.007812 256.171875 C 290.507812 256.808594 289.855469 257.125 289.054688 257.125 C 288.574219 257.125 288.164062 257.03125 287.820312 256.84375 C 287.476562 256.648438 287.1875 256.355469 286.960938 255.96875 L 286.960938 256.953125 L 285.882812 256.953125 L 285.882812 247.828125 L 286.960938 247.828125 Z M 298.515625 255.953125 L 302.65625 255.953125 L 302.65625 256.953125 L 297.09375 256.953125 L 297.09375 255.953125 C 297.539062 255.496094 298.148438 254.875 298.921875 254.09375 C 299.703125 253.304688 300.191406 252.792969 300.390625 252.5625 C 300.773438 252.148438 301.039062 251.792969 301.1875 251.5 C 301.34375 251.199219 301.421875 250.90625 301.421875 250.625 C 301.421875 250.15625 301.253906 249.777344 300.921875 249.484375 C 300.597656 249.195312 300.175781 249.046875 299.65625 249.046875 C 299.28125 249.046875 298.882812 249.109375 298.46875 249.234375 C 298.0625 249.359375 297.625 249.558594 297.15625 249.828125 L 297.15625 248.625 C 297.632812 248.4375 298.078125 248.296875 298.484375 248.203125 C 298.898438 248.101562 299.28125 248.046875 299.625 248.046875 C 300.53125 248.046875 301.253906 248.277344 301.796875 248.734375 C 302.335938 249.183594 302.609375 249.789062 302.609375 250.546875 C 302.609375 250.902344 302.539062 251.242188 302.40625 251.5625 C 302.269531 251.886719 302.023438 252.265625 301.671875 252.703125 C 301.566406 252.820312 301.253906 253.148438 300.734375 253.6875 C 300.210938 254.230469 299.472656 254.984375 298.515625 255.953125 Z M 305.339844 255.953125 L 307.277344 255.953125 L 307.277344 249.28125 L 305.167969 249.703125 L 305.167969 248.625 L 307.261719 248.203125 L 308.449219 248.203125 L 308.449219 255.953125 L 310.386719 255.953125 L 310.386719 256.953125 L 305.339844 256.953125 Z M 271.160156 245.816406 "/>
<path style=" stroke:none;fill-rule:nonzero;fill:rgb(40%,40%,40%);fill-opacity:1;" d="M 383.855469 248.203125 L 388.886719 248.203125 L 388.886719 249.203125 L 385.042969 249.203125 L 385.042969 251.78125 L 388.511719 251.78125 L 388.511719 252.78125 L 385.042969 252.78125 L 385.042969 256.953125 L 383.855469 256.953125 Z M 395.679688 253.40625 L 395.679688 253.921875 L 390.710938 253.921875 C 390.761719 254.671875 390.984375 255.242188 391.382812 255.625 C 391.789062 256.011719 392.34375 256.203125 393.054688 256.203125 C 393.46875 256.203125 393.871094 256.15625 394.257812 256.0625 C 394.652344 255.960938 395.042969 255.804688 395.429688 255.59375 L 395.429688 256.625 C 395.03125 256.78125 394.632812 256.902344 394.226562 256.984375 C 393.820312 257.078125 393.40625 257.125 392.992188 257.125 C 391.949219 257.125 391.121094 256.824219 390.507812 256.21875 C 389.890625 255.605469 389.585938 254.777344 389.585938 253.734375 C 389.585938 252.664062 389.875 251.8125 390.460938 251.1875 C 391.042969 250.554688 391.824219 250.234375 392.804688 250.234375 C 393.6875 250.234375 394.386719 250.523438 394.898438 251.09375 C 395.417969 251.65625 395.679688 252.429688 395.679688 253.40625 Z M 394.601562 253.078125 C 394.589844 252.496094 394.421875 252.027344 394.101562 251.671875 C 393.777344 251.320312 393.351562 251.140625 392.820312 251.140625 C 392.214844 251.140625 391.730469 251.3125 391.367188 251.65625 C 391.011719 252 390.808594 252.480469 390.757812 253.09375 Z M 402.15625 253.671875 C 402.15625 252.882812 401.988281 252.261719 401.65625 251.8125 C 401.332031 251.367188 400.890625 251.140625 400.328125 251.140625 C 399.753906 251.140625 399.300781 251.367188 398.96875 251.8125 C 398.644531 252.261719 398.484375 252.882812 398.484375 253.671875 C 398.484375 254.464844 398.644531 255.089844 398.96875 255.546875 C 399.300781 255.996094 399.753906 256.21875 400.328125 256.21875 C 400.890625 256.21875 401.332031 255.996094 401.65625 255.546875 C 401.988281 255.089844 402.15625 254.464844 402.15625 253.671875 Z M 398.484375 251.390625 C 398.710938 250.996094 399 250.703125 399.34375 250.515625 C 399.6875 250.328125 400.097656 250.234375 400.578125 250.234375 C 401.378906 250.234375 402.03125 250.554688 402.53125 251.1875 C 403.03125 251.8125 403.28125 252.640625 403.28125 253.671875 C 403.28125 254.703125 403.03125 255.539062 402.53125 256.171875 C 402.03125 256.808594 401.378906 257.125 400.578125 257.125 C 400.097656 257.125 399.6875 257.03125 399.34375 256.84375 C 399 256.648438 398.710938 256.355469 398.484375 255.96875 L 398.484375 256.953125 L 397.40625 256.953125 L 397.40625 247.828125 L 398.484375 247.828125 Z M 410.039062 255.953125 L 414.179688 255.953125 L 414.179688 256.953125 L 408.617188 256.953125 L 408.617188 255.953125 C 409.0625 255.496094 409.671875 254.875 410.445312 254.09375 C 411.226562 253.304688 411.714844 252.792969 411.914062 252.5625 C 412.296875 252.148438 412.5625 251.792969 412.710938 251.5 C 412.867188 251.199219 412.945312 250.90625 412.945312 250.625 C 412.945312 250.15625 412.777344 249.777344 412.445312 249.484375 C 412.121094 249.195312 411.699219 249.046875 411.179688 249.046875 C 410.804688 249.046875 410.40625 249.109375 409.992188 249.234375 C 409.585938 249.359375 409.148438 249.558594 408.679688 249.828125 L 408.679688 248.625 C 409.15625 248.4375 409.601562 248.296875 410.007812 248.203125 C 410.421875 248.101562 410.804688 248.046875 411.148438 248.046875 C 412.054688 248.046875 412.777344 248.277344 413.320312 248.734375 C 413.859375 249.183594 414.132812 249.789062 414.132812 250.546875 C 414.132812 250.902344 414.0625 251.242188 413.929688 251.5625 C 413.792969 251.886719 413.546875 252.265625 413.195312 252.703125 C 413.089844 252.820312 412.777344 253.148438 412.257812 253.6875 C 411.734375 254.230469 410.996094 254.984375 410.039062 255.953125 Z M 417.675781 255.953125 L 421.816406 255.953125 L 421.816406 256.953125 L 416.253906 256.953125 L 416.253906 255.953125 C 416.699219 255.496094 417.308594 254.875 418.082031 254.09375 C 418.863281 253.304688 419.351562 252.792969 419.550781 252.5625 C 419.933594 252.148438 420.199219 251.792969 420.347656 251.5 C 420.503906 251.199219 420.582031 250.90625 420.582031 250.625 C 420.582031 250.15625 420.414062 249.777344 420.082031 249.484375 C 419.757812 249.195312 419.335938 249.046875 418.816406 249.046875 C 418.441406 249.046875 418.042969 249.109375 417.628906 249.234375 C 417.222656 249.359375 416.785156 249.558594 416.316406 249.828125 L 416.316406 248.625 C 416.792969 248.4375 417.238281 248.296875 417.644531 248.203125 C 418.058594 248.101562 418.441406 248.046875 418.785156 248.046875 C 419.691406 248.046875 420.414062 248.277344 420.957031 248.734375 C 421.496094 249.183594 421.769531 249.789062 421.769531 250.546875 C 421.769531 250.902344 421.699219 251.242188 421.566406 251.5625 C 421.429688 251.886719 421.183594 252.265625 420.832031 252.703125 C 420.726562 252.820312 420.414062 253.148438 419.894531 253.6875 C 419.371094 254.230469 418.632812 254.984375 417.675781 255.953125 Z M 382.683594 245.816406 "/>
<path style=" stroke:none;fill-rule:nonzero;fill:rgb(40%,40%,40%);fill-opacity:1;" d="M 495.382812 248.203125 L 500.414062 248.203125 L 500.414062 249.203125 L 496.570312 249.203125 L 496.570312 251.78125 L 500.039062 251.78125 L 500.039062 252.78125 L 496.570312 252.78125 L 496.570312 256.953125 L 495.382812 256.953125 Z M 507.207031 253.40625 L 507.207031 253.921875 L 502.238281 253.921875 C 502.289062 254.671875 502.511719 255.242188 502.910156 255.625 C 503.316406 256.011719 503.871094 256.203125 504.582031 256.203125 C 504.996094 256.203125 505.398438 256.15625 505.785156 256.0625 C 506.179688 255.960938 506.570312 255.804688 506.957031 255.59375 L 506.957031 256.625 C 506.558594 256.78125 506.160156 256.902344 505.753906 256.984375 C 505.347656 257.078125 504.933594 257.125 504.519531 257.125 C 503.476562 257.125 502.648438 256.824219 502.035156 256.21875 C 501.417969 255.605469 501.113281 254.777344 501.113281 253.734375 C 501.113281 252.664062 501.402344 251.8125 501.988281 251.1875 C 502.570312 250.554688 503.351562 250.234375 504.332031 250.234375 C 505.214844 250.234375 505.914062 250.523438 506.425781 251.09375 C 506.945312 251.65625 507.207031 252.429688 507.207031 253.40625 Z M 506.128906 253.078125 C 506.117188 252.496094 505.949219 252.027344 505.628906 251.671875 C 505.304688 251.320312 504.878906 251.140625 504.347656 251.140625 C 503.742188 251.140625 503.257812 251.3125 502.894531 251.65625 C 502.539062 252 502.335938 252.480469 502.285156 253.09375 Z M 513.683594 253.671875 C 513.683594 252.882812 513.515625 252.261719 513.183594 251.8125 C 512.859375 251.367188 512.417969 251.140625 511.855469 251.140625 C 511.28125 251.140625 510.828125 251.367188 510.496094 251.8125 C 510.171875 252.261719 510.011719 252.882812 510.011719 253.671875 C 510.011719 254.464844 510.171875 255.089844 510.496094 255.546875 C 510.828125 255.996094 511.28125 256.21875 511.855469 256.21875 C 512.417969 256.21875 512.859375 255.996094 513.183594 255.546875 C 513.515625 255.089844 513.683594 254.464844 513.683594 253.671875 Z M 510.011719 251.390625 C 510.238281 250.996094 510.527344 250.703125 510.871094 250.515625 C 511.214844 250.328125 511.625 250.234375 512.105469 250.234375 C 512.90625 250.234375 513.558594 250.554688 514.058594 251.1875 C 514.558594 251.8125 514.808594 252.640625 514.808594 253.671875 C 514.808594 254.703125 514.558594 255.539062 514.058594 256.171875 C 513.558594 256.808594 512.90625 257.125 512.105469 257.125 C 511.625 257.125 511.214844 257.03125 510.871094 256.84375 C 510.527344 256.648438 510.238281 256.355469 510.011719 255.96875 L 510.011719 256.953125 L 508.933594 256.953125 L 508.933594 247.828125 L 510.011719 247.828125 Z M 521.570312 255.953125 L 525.710938 255.953125 L 525.710938 256.953125 L 520.148438 256.953125 L 520.148438 255.953125 C 520.59375 255.496094 521.203125 254.875 521.976562 254.09375 C 522.757812 253.304688 523.246094 252.792969 523.445312 252.5625 C 523.828125 252.148438 524.09375 251.792969 524.242188 251.5 C 524.398438 251.199219 524.476562 250.90625 524.476562 250.625 C 524.476562 250.15625 524.308594 249.777344 523.976562 249.484375 C 523.652344 249.195312 523.230469 249.046875 522.710938 249.046875 C 522.335938 249.046875 521.9375 249.109375 521.523438 249.234375 C 521.117188 249.359375 520.679688 249.558594 520.210938 249.828125 L 520.210938 248.625 C 520.6875 248.4375 521.132812 248.296875 521.539062 248.203125 C 521.953125 248.101562 522.335938 248.046875 522.679688 248.046875 C 523.585938 248.046875 524.308594 248.277344 524.851562 248.734375 C 525.390625 249.183594 525.664062 249.789062 525.664062 250.546875 C 525.664062 250.902344 525.59375 251.242188 525.460938 251.5625 C 525.324219 251.886719 525.078125 252.265625 524.726562 252.703125 C 524.621094 252.820312 524.308594 253.148438 523.789062 253.6875 C 523.265625 254.230469 522.527344 254.984375 521.570312 255.953125 Z M 531.78125 252.234375 C 532.34375 252.359375 532.78125 252.617188 533.09375 253 C 533.414062 253.375 533.578125 253.84375 533.578125 254.40625 C 533.578125 255.273438 533.28125 255.945312 532.6875 256.421875 C 532.09375 256.890625 531.25 257.125 530.15625 257.125 C 529.789062 257.125 529.410156 257.085938 529.015625 257.015625 C 528.628906 256.945312 528.234375 256.835938 527.828125 256.6875 L 527.828125 255.546875 C 528.148438 255.734375 528.503906 255.882812 528.890625 255.984375 C 529.285156 256.078125 529.695312 256.125 530.125 256.125 C 530.863281 256.125 531.425781 255.980469 531.8125 255.6875 C 532.207031 255.398438 532.40625 254.96875 532.40625 254.40625 C 532.40625 253.898438 532.222656 253.496094 531.859375 253.203125 C 531.492188 252.914062 530.992188 252.765625 530.359375 252.765625 L 529.328125 252.765625 L 529.328125 251.796875 L 530.40625 251.796875 C 530.976562 251.796875 531.421875 251.683594 531.734375 251.453125 C 532.046875 251.214844 532.203125 250.875 532.203125 250.4375 C 532.203125 249.992188 532.039062 249.648438 531.71875 249.40625 C 531.40625 249.167969 530.953125 249.046875 530.359375 249.046875 C 530.023438 249.046875 529.671875 249.085938 529.296875 249.15625 C 528.929688 249.21875 528.523438 249.324219 528.078125 249.46875 L 528.078125 248.421875 C 528.535156 248.296875 528.957031 248.203125 529.34375 248.140625 C 529.738281 248.078125 530.109375 248.046875 530.453125 248.046875 C 531.359375 248.046875 532.070312 248.25 532.59375 248.65625 C 533.113281 249.0625 533.375 249.617188 533.375 250.3125 C 533.375 250.804688 533.234375 251.214844 532.953125 251.546875 C 532.679688 251.882812 532.289062 252.109375 531.78125 252.234375 Z M 494.210938 245.816406 "/>
<path style=" stroke:none;fill-rule:nonzero;fill:rgb(40%,40%,40%);fill-opacity:1;" d="M 606.910156 248.203125 L 611.941406 248.203125 L 611.941406 249.203125 L 608.097656 249.203125 L 608.097656 251.78125 L 611.566406 251.78125 L 611.566406 252.78125 L 608.097656 252.78125 L 608.097656 256.953125 L 606.910156 256.953125 Z M 618.734375 253.40625 L 618.734375 253.921875 L 613.765625 253.921875 C 613.816406 254.671875 614.039062 255.242188 614.4375 255.625 C 614.84375 256.011719 615.398438 256.203125 616.109375 256.203125 C 616.523438 256.203125 616.925781 256.15625 617.3125 256.0625 C 617.707031 255.960938 618.097656 255.804688 618.484375 255.59375 L 618.484375 256.625 C 618.085938 256.78125 617.6875 256.902344 617.28125 256.984375 C 616.875 257.078125 616.460938 257.125 616.046875 257.125 C 615.003906 257.125 614.175781 256.824219 613.5625 256.21875 C 612.945312 255.605469 612.640625 254.777344 612.640625 253.734375 C 612.640625 252.664062 612.929688 251.8125 613.515625 251.1875 C 614.097656 250.554688 614.878906 250.234375 615.859375 250.234375 C 616.742188 250.234375 617.441406 250.523438 617.953125 251.09375 C 618.472656 251.65625 618.734375 252.429688 618.734375 253.40625 Z M 617.65625 253.078125 C 617.644531 252.496094 617.476562 252.027344 617.15625 251.671875 C 616.832031 251.320312 616.40625 251.140625 615.875 251.140625 C 615.269531 251.140625 614.785156 251.3125 614.421875 251.65625 C 614.066406 252 613.863281 252.480469 613.8125 253.09375 Z M 625.210938 253.671875 C 625.210938 252.882812 625.042969 252.261719 624.710938 251.8125 C 624.386719 251.367188 623.945312 251.140625 623.382812 251.140625 C 622.808594 251.140625 622.355469 251.367188 622.023438 251.8125 C 621.699219 252.261719 621.539062 252.882812 621.539062 253.671875 C 621.539062 254.464844 621.699219 255.089844 622.023438 255.546875 C 622.355469 255.996094 622.808594 256.21875 623.382812 256.21875 C 623.945312 256.21875 624.386719 255.996094 624.710938 255.546875 C 625.042969 255.089844 625.210938 254.464844 625.210938 253.671875 Z M 621.539062 251.390625 C 621.765625 250.996094 622.054688 250.703125 622.398438 250.515625 C 622.742188 250.328125 623.152344 250.234375 623.632812 250.234375 C 624.433594 250.234375 625.085938 250.554688 625.585938 251.1875 C 626.085938 251.8125 626.335938 252.640625 626.335938 253.671875 C 626.335938 254.703125 626.085938 255.539062 625.585938 256.171875 C 625.085938 256.808594 624.433594 257.125 623.632812 257.125 C 623.152344 257.125 622.742188 257.03125 622.398438 256.84375 C 622.054688 256.648438 621.765625 256.355469 621.539062 255.96875 L 621.539062 256.953125 L 620.460938 256.953125 L 620.460938 247.828125 L 621.539062 247.828125 Z M 633.09375 255.953125 L 637.234375 255.953125 L 637.234375 256.953125 L 631.671875 256.953125 L 631.671875 255.953125 C 632.117188 255.496094 632.726562 254.875 633.5 254.09375 C 634.28125 253.304688 634.769531 252.792969 634.96875 252.5625 C 635.351562 252.148438 635.617188 251.792969 635.765625 251.5 C 635.921875 251.199219 636 250.90625 636 250.625 C 636 250.15625 635.832031 249.777344 635.5 249.484375 C 635.175781 249.195312 634.753906 249.046875 634.234375 249.046875 C 633.859375 249.046875 633.460938 249.109375 633.046875 249.234375 C 632.640625 249.359375 632.203125 249.558594 631.734375 249.828125 L 631.734375 248.625 C 632.210938 248.4375 632.65625 248.296875 633.0625 248.203125 C 633.476562 248.101562 633.859375 248.046875 634.203125 248.046875 C 635.109375 248.046875 635.832031 248.277344 636.375 248.734375 C 636.914062 249.183594 637.1875 249.789062 637.1875 250.546875 C 637.1875 250.902344 637.117188 251.242188 636.984375 251.5625 C 636.847656 251.886719 636.601562 252.265625 636.25 252.703125 C 636.144531 252.820312 635.832031 253.148438 635.3125 253.6875 C 634.789062 254.230469 634.050781 254.984375 633.09375 255.953125 Z M 642.964844 249.234375 L 639.980469 253.90625 L 642.964844 253.90625 Z M 642.652344 248.203125 L 644.152344 248.203125 L 644.152344 253.90625 L 645.402344 253.90625 L 645.402344 254.890625 L 644.152344 254.890625 L 644.152344 256.953125 L 642.964844 256.953125 L 642.964844 254.890625 L 639.027344 254.890625 L 639.027344 253.75 Z M 605.738281 245.816406 "/>
<path style=" stroke:none;fill-rule:nonzero;fill:rgb(40%,40%,40%);fill-opacity:1;" d="M 718.4375 248.203125 L 723.46875 248.203125 L 723.46875 249.203125 L 719.625 249.203125 L 719.625 251.78125 L 723.09375 251.78125 L 723.09375 252.78125 L 719.625 252.78125 L 719.625 256.953125 L 718.4375 256.953125 Z M 730.261719 253.40625 L 730.261719 253.921875 L 725.292969 253.921875 C 725.34375 254.671875 725.566406 255.242188 725.964844 255.625 C 726.371094 256.011719 726.925781 256.203125 727.636719 256.203125 C 728.050781 256.203125 728.453125 256.15625 728.839844 256.0625 C 729.234375 255.960938 729.625 255.804688 730.011719 255.59375 L 730.011719 256.625 C 729.613281 256.78125 729.214844 256.902344 728.808594 256.984375 C 728.402344 257.078125 727.988281 257.125 727.574219 257.125 C 726.53125 257.125 725.703125 256.824219 725.089844 256.21875 C 724.472656 255.605469 724.167969 254.777344 724.167969 253.734375 C 724.167969 252.664062 724.457031 251.8125 725.042969 251.1875 C 725.625 250.554688 726.40625 250.234375 727.386719 250.234375 C 728.269531 250.234375 728.96875 250.523438 729.480469 251.09375 C 730 251.65625 730.261719 252.429688 730.261719 253.40625 Z M 729.183594 253.078125 C 729.171875 252.496094 729.003906 252.027344 728.683594 251.671875 C 728.359375 251.320312 727.933594 251.140625 727.402344 251.140625 C 726.796875 251.140625 726.3125 251.3125 725.949219 251.65625 C 725.59375 252 725.390625 252.480469 725.339844 253.09375 Z M 736.738281 253.671875 C 736.738281 252.882812 736.570312 252.261719 736.238281 251.8125 C 735.914062 251.367188 735.472656 251.140625 734.910156 251.140625 C 734.335938 251.140625 733.882812 251.367188 733.550781 251.8125 C 733.226562 252.261719 733.066406 252.882812 733.066406 253.671875 C 733.066406 254.464844 733.226562 255.089844 733.550781 255.546875 C 733.882812 255.996094 734.335938 256.21875 734.910156 256.21875 C 735.472656 256.21875 735.914062 255.996094 736.238281 255.546875 C 736.570312 255.089844 736.738281 254.464844 736.738281 253.671875 Z M 733.066406 251.390625 C 733.292969 250.996094 733.582031 250.703125 733.925781 250.515625 C 734.269531 250.328125 734.679688 250.234375 735.160156 250.234375 C 735.960938 250.234375 736.613281 250.554688 737.113281 251.1875 C 737.613281 251.8125 737.863281 252.640625 737.863281 253.671875 C 737.863281 254.703125 737.613281 255.539062 737.113281 256.171875 C 736.613281 256.808594 735.960938 257.125 735.160156 257.125 C 734.679688 257.125 734.269531 257.03125 733.925781 256.84375 C 733.582031 256.648438 733.292969 256.355469 733.066406 255.96875 L 733.066406 256.953125 L 731.988281 256.953125 L 731.988281 247.828125 L 733.066406 247.828125 Z M 744.625 255.953125 L 748.765625 255.953125 L 748.765625 256.953125 L 743.203125 256.953125 L 743.203125 255.953125 C 743.648438 255.496094 744.257812 254.875 745.03125 254.09375 C 745.8125 253.304688 746.300781 252.792969 746.5 252.5625 C 746.882812 252.148438 747.148438 251.792969 747.296875 251.5 C 747.453125 251.199219 747.53125 250.90625 747.53125 250.625 C 747.53125 250.15625 747.363281 249.777344 747.03125 249.484375 C 746.707031 249.195312 746.285156 249.046875 745.765625 249.046875 C 745.390625 249.046875 744.992188 249.109375 744.578125 249.234375 C 744.171875 249.359375 743.734375 249.558594 743.265625 249.828125 L 743.265625 248.625 C 743.742188 248.4375 744.1875 248.296875 744.59375 248.203125 C 745.007812 248.101562 745.390625 248.046875 745.734375 248.046875 C 746.640625 248.046875 747.363281 248.277344 747.90625 248.734375 C 748.445312 249.183594 748.71875 249.789062 748.71875 250.546875 C 748.71875 250.902344 748.648438 251.242188 748.515625 251.5625 C 748.378906 251.886719 748.132812 252.265625 747.78125 252.703125 C 747.675781 252.820312 747.363281 253.148438 746.84375 253.6875 C 746.320312 254.230469 745.582031 254.984375 744.625 255.953125 Z M 751.257812 248.203125 L 755.898438 248.203125 L 755.898438 249.203125 L 752.335938 249.203125 L 752.335938 251.34375 C 752.511719 251.28125 752.683594 251.242188 752.851562 251.21875 C 753.027344 251.1875 753.199219 251.171875 753.367188 251.171875 C 754.34375 251.171875 755.121094 251.445312 755.695312 251.984375 C 756.265625 252.515625 756.554688 253.234375 756.554688 254.140625 C 756.554688 255.089844 756.257812 255.824219 755.664062 256.34375 C 755.078125 256.867188 754.257812 257.125 753.195312 257.125 C 752.820312 257.125 752.4375 257.09375 752.054688 257.03125 C 751.679688 256.96875 751.289062 256.875 750.882812 256.75 L 750.882812 255.5625 C 751.234375 255.75 751.601562 255.890625 751.976562 255.984375 C 752.351562 256.078125 752.746094 256.125 753.164062 256.125 C 753.839844 256.125 754.375 255.949219 754.773438 255.59375 C 755.167969 255.242188 755.367188 254.757812 755.367188 254.140625 C 755.367188 253.539062 755.167969 253.058594 754.773438 252.703125 C 754.375 252.351562 753.839844 252.171875 753.164062 252.171875 C 752.851562 252.171875 752.53125 252.210938 752.210938 252.28125 C 751.898438 252.34375 751.578125 252.449219 751.257812 252.59375 Z M 717.265625 245.816406 "/>
<path style="fill:none;stroke-width:1;stroke-linecap:butt;stroke-linejoin:miter;stroke:rgb(0%,0%,0%);stroke-opacity:0.0980392;stroke-miterlimit:10;" d="M 21.5 44 L 21.5 235 "/>
<path style=" stroke:none;fill-rule:nonzero;fill:rgb(40%,40%,40%);fill-opacity:1;" d="M 6.445312 230.789062 C 5.839844 230.789062 5.382812 231.09375 5.070312 231.695312 C 4.765625 232.289062 4.617188 233.191406 4.617188 234.398438 C 4.617188 235.597656 4.765625 236.5 5.070312 237.101562 C 5.382812 237.695312 5.839844 237.992188 6.445312 237.992188 C 7.058594 237.992188 7.515625 237.695312 7.820312 237.101562 C 8.132812 236.5 8.289062 235.597656 8.289062 234.398438 C 8.289062 233.191406 8.132812 232.289062 7.820312 231.695312 C 7.515625 231.09375 7.058594 230.789062 6.445312 230.789062 Z M 6.445312 229.851562 C 7.421875 229.851562 8.171875 230.242188 8.695312 231.023438 C 9.214844 231.796875 9.476562 232.921875 9.476562 234.398438 C 9.476562 235.867188 9.214844 236.992188 8.695312 237.773438 C 8.171875 238.546875 7.421875 238.929688 6.445312 238.929688 C 5.464844 238.929688 4.714844 238.546875 4.195312 237.773438 C 3.683594 236.992188 3.429688 235.867188 3.429688 234.398438 C 3.429688 232.921875 3.683594 231.796875 4.195312 231.023438 C 4.714844 230.242188 5.464844 229.851562 6.445312 229.851562 Z M 2.632812 227.617188 "/>
<path style=" stroke:none;fill-rule:nonzero;fill:rgb(40%,40%,40%);fill-opacity:1;" d="M 4.929688 174.21875 L 9.070312 174.21875 L 9.070312 175.21875 L 3.507812 175.21875 L 3.507812 174.21875 C 3.953125 173.761719 4.5625 173.140625 5.335938 172.359375 C 6.117188 171.570312 6.605469 171.058594 6.804688 170.828125 C 7.1875 170.414062 7.453125 170.058594 7.601562 169.765625 C 7.757812 169.464844 7.835938 169.171875 7.835938 168.890625 C 7.835938 168.421875 7.667969 168.042969 7.335938 167.75 C 7.011719 167.460938 6.589844 167.3125 6.070312 167.3125 C 5.695312 167.3125 5.296875 167.375 4.882812 167.5 C 4.476562 167.625 4.039062 167.824219 3.570312 168.09375 L 3.570312 166.890625 C 4.046875 166.703125 4.492188 166.5625 4.898438 166.46875 C 5.3125 166.367188 5.695312 166.3125 6.039062 166.3125 C 6.945312 166.3125 7.667969 166.542969 8.210938 167 C 8.75 167.449219 9.023438 168.054688 9.023438 168.8125 C 9.023438 169.167969 8.953125 169.507812 8.820312 169.828125 C 8.683594 170.152344 8.4375 170.53125 8.085938 170.96875 C 7.980469 171.085938 7.667969 171.414062 7.148438 171.953125 C 6.625 172.496094 5.886719 173.25 4.929688 174.21875 Z M 2.632812 164.082031 "/>
<path style=" stroke:none;fill-rule:nonzero;fill:rgb(40%,40%,40%);fill-opacity:1;" d="M 7.164062 103.96875 L 4.179688 108.640625 L 7.164062 108.640625 Z M 6.851562 102.9375 L 8.351562 102.9375 L 8.351562 108.640625 L 9.601562 108.640625 L 9.601562 109.625 L 8.351562 109.625 L 8.351562 111.6875 L 7.164062 111.6875 L 7.164062 109.625 L 3.226562 109.625 L 3.226562 108.484375 Z M 2.632812 100.550781 "/>
<path style=" stroke:none;fill-rule:nonzero;fill:rgb(40%,40%,40%);fill-opacity:1;" d="M 6.601562 43.3125 C 6.070312 43.3125 5.648438 43.496094 5.335938 43.859375 C 5.023438 44.226562 4.867188 44.71875 4.867188 45.34375 C 4.867188 45.980469 5.023438 46.480469 5.335938 46.84375 C 5.648438 47.210938 6.070312 47.390625 6.601562 47.390625 C 7.132812 47.390625 7.546875 47.210938 7.851562 46.84375 C 8.164062 46.480469 8.320312 45.980469 8.320312 45.34375 C 8.320312 44.71875 8.164062 44.226562 7.851562 43.859375 C 7.546875 43.496094 7.132812 43.3125 6.601562 43.3125 Z M 8.945312 39.59375 L 8.945312 40.671875 C 8.640625 40.539062 8.339844 40.433594 8.039062 40.359375 C 7.734375 40.289062 7.4375 40.25 7.148438 40.25 C 6.367188 40.25 5.765625 40.515625 5.351562 41.046875 C 4.945312 41.570312 4.710938 42.359375 4.648438 43.421875 C 4.875 43.089844 5.164062 42.835938 5.507812 42.65625 C 5.859375 42.46875 6.246094 42.375 6.664062 42.375 C 7.539062 42.375 8.230469 42.640625 8.742188 43.171875 C 9.25 43.703125 9.507812 44.429688 9.507812 45.34375 C 9.507812 46.25 9.242188 46.976562 8.710938 47.515625 C 8.179688 48.058594 7.476562 48.328125 6.601562 48.328125 C 5.578125 48.328125 4.804688 47.945312 4.273438 47.171875 C 3.742188 46.390625 3.476562 45.265625 3.476562 43.796875 C 3.476562 42.414062 3.804688 41.308594 4.460938 40.484375 C 5.117188 39.664062 5.996094 39.25 7.101562 39.25 C 7.390625 39.25 7.6875 39.28125 7.992188 39.34375 C 8.292969 39.398438 8.609375 39.480469 8.945312 39.59375 Z M 2.632812 37.015625 "/>
<g clip-path="url(#clip3)" clip-rule="nonzero">
<path style=" stroke:none;fill-rule:nonzero;fill:rgb(96.862745%,44.705882%,40.784314%);fill-opacity:1;" d="M 800 234.601562 L 772.117188 234.601562 L 769.792969 202.832031 L 767.472656 234.601562 L 765.148438 234.601562 L 762.824219 202.832031 L 758.175781 202.832031 L 755.855469 234.601562 L 746.558594 234.601562 L 744.238281 202.832031 L 741.914062 171.066406 L 739.589844 202.832031 L 737.265625 234.601562 L 704.738281 234.601562 L 702.414062 202.832031 L 686.148438 202.832031 L 683.824219 171.066406 L 681.503906 171.066406 L 679.179688 202.832031 L 672.207031 202.832031 L 669.886719 171.066406 L 667.5625 139.300781 L 662.914062 202.832031 L 646.652344 202.832031 L 644.328125 234.601562 L 642.003906 202.832031 L 639.679688 202.832031 L 637.355469 234.601562 L 593.210938 234.601562 L 590.886719 202.832031 L 588.5625 202.832031 L 586.238281 234.601562 L 551.386719 234.601562 L 549.0625 202.832031 L 546.742188 234.601562 L 542.09375 234.601562 L 539.769531 202.832031 L 537.445312 234.601562 L 528.152344 234.601562 L 525.828125 202.832031 L 521.183594 202.832031 L 518.859375 234.601562 L 495.625 234.601562 L 493.300781 202.832031 L 484.007812 202.832031 L 481.683594 234.601562 L 474.714844 234.601562 L 472.390625 202.832031 L 451.476562 202.832031 L 449.15625 234.601562 L 411.980469 234.601562 L 409.65625 202.832031 L 407.332031 234.601562 L 405.007812 202.832031 L 402.683594 202.832031 L 400.363281 234.601562 L 365.507812 234.601562 L 363.1875 202.832031 L 358.539062 202.832031 L 356.214844 234.601562 L 344.597656 234.601562 L 342.273438 202.832031 L 337.628906 202.832031 L 335.304688 234.601562 L 330.65625 234.601562 L 328.332031 171.066406 L 326.011719 202.832031 L 323.6875 171.066406 L 321.363281 234.601562 L 319.039062 234.601562 L 316.714844 202.832031 L 309.746094 202.832031 L 307.421875 234.601562 L 305.097656 202.832031 L 298.128906 202.832031 L 295.804688 234.601562 L 251.660156 234.601562 L 249.335938 202.832031 L 240.042969 202.832031 L 237.71875 234.601562 L 235.394531 202.832031 L 233.070312 234.601562 L 230.746094 234.601562 L 228.425781 202.832031 L 226.101562 171.066406 L 223.777344 171.066406 L 221.453125 202.832031 L 214.484375 202.832031 L 212.160156 171.066406 L 207.511719 171.066406 L 205.191406 202.832031 L 200.542969 139.300781 L 198.21875 202.832031 L 195.894531 202.832031 L 193.570312 171.066406 L 191.25 171.066406 L 188.925781 202.832031 L 186.601562 202.832031 L 184.277344 234.601562 L 181.953125 202.832031 L 179.632812 202.832031 L 177.308594 234.601562 L 149.425781 234.601562 L 147.101562 202.832031 L 135.484375 202.832031 L 133.160156 234.601562 L 130.839844 202.832031 L 121.542969 202.832031 L 119.222656 234.601562 L 116.898438 202.832031 L 114.574219 202.832031 L 112.25 234.601562 L 109.925781 234.601562 L 107.601562 202.832031 L 100.632812 202.832031 L 98.308594 234.601562 L 95.984375 234.601562 L 93.664062 171.066406 L 91.339844 202.832031 L 89.015625 171.066406 L 86.691406 171.066406 L 84.367188 202.832031 L 82.046875 171.066406 L 79.722656 202.832031 L 77.398438 171.066406 L 75.074219 171.066406 L 72.75 139.300781 L 70.429688 139.300781 L 68.105469 202.832031 L 65.78125 202.832031 L 63.457031 234.601562 L 35.574219 234.601562 L 33.253906 202.832031 L 28.605469 202.832031 L 26.28125 171.066406 L 23.957031 202.832031 L 21.632812 202.832031 L 21.632812 234.601562 Z M 800 234.601562 "/>
</g>
<g clip-path="url(#clip4)" clip-rule="nonzero">
<path style="fill:none;stroke-width:2;stroke-linecap:butt;stroke-linejoin:miter;stroke:rgb(100%,4.705882%,0%);stroke-opacity:0.247059;stroke-miterlimit:10;" d="M 800 234.601562 L 772.117188 234.601562 L 769.792969 202.832031 L 767.472656 234.601562 L 765.148438 234.601562 L 762.824219 202.832031 L 758.175781 202.832031 L 755.855469 234.601562 L 746.558594 234.601562 L 744.238281 202.832031 L 741.914062 171.066406 L 739.589844 202.832031 L 737.265625 234.601562 L 704.738281 234.601562 L 702.414062 202.832031 L 686.148438 202.832031 L 683.824219 171.066406 L 681.503906 171.066406 L 679.179688 202.832031 L 672.207031 202.832031 L 669.886719 171.066406 L 667.5625 139.300781 L 662.914062 202.832031 L 646.652344 202.832031 L 644.328125 234.601562 L 642.003906 202.832031 L 639.679688 202.832031 L 637.355469 234.601562 L 593.210938 234.601562 L 590.886719 202.832031 L 588.5625 202.832031 L 586.238281 234.601562 L 551.386719 234.601562 L 549.0625 202.832031 L 546.742188 234.601562 L 542.09375 234.601562 L 539.769531 202.832031 L 537.445312 234.601562 L 528.152344 234.601562 L 525.828125 202.832031 L 521.183594 202.832031 L 518.859375 234.601562 L 495.625 234.601562 L 493.300781 202.832031 L 484.007812 202.832031 L 481.683594 234.601562 L 474.714844 234.601562 L 472.390625 202.832031 L 451.476562 202.832031 L 449.15625 234.601562 L 411.980469 234.601562 L 409.65625 202.832031 L 407.332031 234.601562 L 405.007812 202.832031 L 402.683594 202.832031 L 400.363281 234.601562 L 365.507812 234.601562 L 363.1875 202.832031 L 358.539062 202.832031 L 356.214844 234.601562 L 344.597656 234.601562 L 342.273438 202.832031 L 337.628906 202.832031 L 335.304688 234.601562 L 330.65625 234.601562 L 328.332031 171.066406 L 326.011719 202.832031 L 323.6875 171.066406 L 321.363281 234.601562 L 319.039062 234.601562 L 316.714844 202.832031 L 309.746094 202.832031 L 307.421875 234.601562 L 305.097656 202.832031 L 298.128906 202.832031 L 295.804688 234.601562 L 251.660156 234.601562 L 249.335938 202.832031 L 240.042969 202.832031 L 237.71875 234.601562 L 235.394531 202.832031 L 233.070312 234.601562 L 230.746094 234.601562 L 228.425781 202.832031 L 226.101562 171.066406 L 223.777344 171.066406 L 221.453125 202.832031 L 214.484375 202.832031 L 212.160156 171.066406 L 207.511719 171.066406 L 205.191406 202.832031 L 200.542969 139.300781 L 198.21875 202.832031 L 195.894531 202.832031 L 193.570312 171.066406 L 191.25 171.066406 L 188.925781 202.832031 L 186.601562 202.832031 L 184.277344 234.601562 L 181.953125 202.832031 L 179.632812 202.832031 L 177.308594 234.601562 L 149.425781 234.601562 L 147.101562 202.832031 L 135.484375 202.832031 L 133.160156 234.601562 L 130.839844 202.832031 L 121.542969 202.832031 L 119.222656 234.601562 L 116.898438 202.832031 L 114.574219 202.832031 L 112.25 234.601562 L 109.925781 234.601562 L 107.601562 202.832031 L 100.632812 202.832031 L 98.308594 234.601562 L 95.984375 234.601562 L 93.664062 171.066406 L 91.339844 202.832031 L 89.015625 171.066406 L 86.691406 171.066406 L 84.367188 202.832031 L 82.046875 171.066406 L 79.722656 202.832031 L 77.398438 171.066406 L 75.074219 171.066406 L 72.75 139.300781 L 70.429688 139.300781 L 68.105469 202.832031 L 65.78125 202.832031 L 63.457031 234.601562 L 35.574219 234.601562 L 33.253906 202.832031 L 28.605469 202.832031 L 26.28125 171.066406 L 23.957031 202.832031 L 21.632812 202.832031 "/>
</g>
<g clip-path="url(#clip5)" clip-rule="nonzero">
<path style=" stroke:none;fill-rule:nonzero;fill:rgb(9.019608%,58.823529%,95.294118%);fill-opacity:0.6;" d="M 800 44 L 797.675781 75.765625 L 795.351562 44 L 793.03125 75.765625 L 788.382812 75.765625 L 786.058594 44 L 783.734375 75.765625 L 781.414062 44 L 779.089844 75.765625 L 776.765625 44 L 774.441406 75.765625 L 772.117188 44 L 769.792969 75.765625 L 765.148438 75.765625 L 762.824219 44 L 760.5 44 L 758.175781 75.765625 L 755.855469 44 L 753.53125 75.765625 L 746.558594 75.765625 L 744.238281 44 L 741.914062 75.765625 L 739.589844 75.765625 L 737.265625 44 L 734.941406 44 L 732.617188 75.765625 L 723.324219 75.765625 L 721 44 L 718.679688 44 L 716.355469 75.765625 L 714.03125 75.765625 L 711.707031 44 L 709.382812 44 L 707.0625 75.765625 L 704.738281 44 L 697.765625 44 L 695.445312 75.765625 L 693.121094 75.765625 L 690.796875 44 L 688.472656 75.765625 L 686.148438 44 L 681.503906 44 L 679.179688 75.765625 L 676.855469 44 L 667.5625 44 L 665.238281 75.765625 L 648.972656 75.765625 L 646.652344 44 L 644.328125 44 L 642.003906 75.765625 L 632.710938 75.765625 L 630.386719 44 L 628.0625 75.765625 L 625.738281 44 L 623.414062 75.765625 L 611.796875 75.765625 L 609.476562 44 L 607.152344 75.765625 L 590.886719 75.765625 L 588.5625 44 L 583.917969 44 L 581.59375 75.765625 L 576.945312 75.765625 L 574.621094 44 L 572.300781 44 L 569.976562 75.765625 L 567.652344 75.765625 L 565.328125 44 L 563.003906 75.765625 L 556.035156 75.765625 L 553.710938 44 L 551.386719 44 L 549.0625 75.765625 L 546.742188 75.765625 L 544.417969 44 L 542.09375 44 L 539.769531 75.765625 L 532.800781 75.765625 L 530.476562 44 L 528.152344 75.765625 L 514.210938 75.765625 L 511.890625 44 L 509.566406 75.765625 L 502.59375 75.765625 L 500.269531 44 L 497.949219 75.765625 L 472.390625 75.765625 L 470.066406 44 L 467.742188 75.765625 L 465.417969 44 L 463.09375 75.765625 L 451.476562 75.765625 L 449.15625 44 L 446.832031 75.765625 L 444.507812 44 L 442.183594 75.765625 L 439.859375 44 L 437.539062 75.765625 L 425.921875 75.765625 L 423.597656 44 L 416.625 44 L 414.300781 75.765625 L 407.332031 75.765625 L 405.007812 44 L 402.683594 75.765625 L 400.363281 44 L 398.039062 75.765625 L 395.714844 75.765625 L 393.390625 44 L 388.746094 44 L 386.421875 75.765625 L 356.214844 75.765625 L 353.890625 44 L 351.570312 75.765625 L 309.746094 75.765625 L 307.421875 44 L 305.097656 75.765625 L 291.160156 75.765625 L 288.835938 44 L 286.511719 44 L 284.1875 75.765625 L 274.894531 75.765625 L 272.570312 44 L 270.246094 75.765625 L 267.921875 44 L 265.601562 75.765625 L 260.953125 75.765625 L 258.628906 44 L 256.304688 75.765625 L 228.425781 75.765625 L 226.101562 44 L 223.777344 44 L 221.453125 75.765625 L 216.808594 75.765625 L 214.484375 44 L 212.160156 44 L 209.835938 75.765625 L 177.308594 75.765625 L 174.984375 44 L 172.660156 75.765625 L 170.335938 75.765625 L 168.015625 44 L 165.691406 75.765625 L 163.367188 75.765625 L 161.042969 44 L 158.71875 75.765625 L 147.101562 75.765625 L 144.777344 44 L 142.457031 75.765625 L 133.160156 75.765625 L 130.839844 44 L 126.191406 44 L 123.867188 75.765625 L 109.925781 75.765625 L 107.601562 44 L 102.957031 44 L 100.632812 75.765625 L 98.308594 44 L 95.984375 75.765625 L 93.664062 75.765625 L 91.339844 44 L 89.015625 75.765625 L 79.722656 75.765625 L 77.398438 44 L 75.074219 75.765625 L 72.75 44 L 70.429688 75.765625 L 68.105469 75.765625 L 65.78125 107.535156 L 54.164062 107.535156 L 51.839844 75.765625 L 49.515625 107.535156 L 44.871094 107.535156 L 42.546875 75.765625 L 37.898438 75.765625 L 35.574219 44 L 33.253906 75.765625 L 21.632812 75.765625 L 21.632812 234.601562 L 800 234.601562 Z M 800 44 "/>
</g>
<g clip-path="url(#clip6)" clip-rule="nonzero">
<path style="fill:none;stroke-width:2;stroke-linecap:butt;stroke-linejoin:miter;stroke:rgb(9.019608%,58.823529%,95.294118%);stroke-opacity:1;stroke-miterlimit:10;" d="M 800 44 L 797.675781 75.765625 L 795.351562 44 L 793.03125 75.765625 L 788.382812 75.765625 L 786.058594 44 L 783.734375 75.765625 L 781.414062 44 L 779.089844 75.765625 L 776.765625 44 L 774.441406 75.765625 L 772.117188 44 L 769.792969 75.765625 L 765.148438 75.765625 L 762.824219 44 L 760.5 44 L 758.175781 75.765625 L 755.855469 44 L 753.53125 75.765625 L 746.558594 75.765625 L 744.238281 44 L 741.914062 75.765625 L 739.589844 75.765625 L 737.265625 44 L 734.941406 44 L 732.617188 75.765625 L 723.324219 75.765625 L 721 44 L 718.679688 44 L 716.355469 75.765625 L 714.03125 75.765625 L 711.707031 44 L 709.382812 44 L 707.0625 75.765625 L 704.738281 44 L 697.765625 44 L 695.445312 75.765625 L 693.121094 75.765625 L 690.796875 44 L 688.472656 75.765625 L 686.148438 44 L 681.503906 44 L 679.179688 75.765625 L 676.855469 44 L 667.5625 44 L 665.238281 75.765625 L 648.972656 75.765625 L 646.652344 44 L 644.328125 44 L 642.003906 75.765625 L 632.710938 75.765625 L 630.386719 44 L 628.0625 75.765625 L 625.738281 44 L 623.414062 75.765625 L 611.796875 75.765625 L 609.476562 44 L 607.152344 75.765625 L 590.886719 75.765625 L 588.5625 44 L 583.917969 44 L 581.59375 75.765625 L 576.945312 75.765625 L 574.621094 44 L 572.300781 44 L 569.976562 75.765625 L 567.652344 75.765625 L 565.328125 44 L 563.003906 75.765625 L 556.035156 75.765625 L 553.710938 44 L 551.386719 44 L 549.0625 75.765625 L 546.742188 75.765625 L 544.417969 44 L 542.09375 44 L 539.769531 75.765625 L 532.800781 75.765625 L 530.476562 44 L 528.152344 75.765625 L 514.210938 75.765625 L 511.890625 44 L 509.566406 75.765625 L 502.59375 75.765625 L 500.269531 44 L 497.949219 75.765625 L 472.390625 75.765625 L 470.066406 44 L 467.742188 75.765625 L 465.417969 44 L 463.09375 75.765625 L 451.476562 75.765625 L 449.15625 44 L 446.832031 75.765625 L 444.507812 44 L 442.183594 75.765625 L 439.859375 44 L 437.539062 75.765625 L 425.921875 75.765625 L 423.597656 44 L 416.625 44 L 414.300781 75.765625 L 407.332031 75.765625 L 405.007812 44 L 402.683594 75.765625 L 400.363281 44 L 398.039062 75.765625 L 395.714844 75.765625 L 393.390625 44 L 388.746094 44 L 386.421875 75.765625 L 356.214844 75.765625 L 353.890625 44 L 351.570312 75.765625 L 309.746094 75.765625 L 307.421875 44 L 305.097656 75.765625 L 291.160156 75.765625 L 288.835938 44 L 286.511719 44 L 284.1875 75.765625 L 274.894531 75.765625 L 272.570312 44 L 270.246094 75.765625 L 267.921875 44 L 265.601562 75.765625 L 260.953125 75.765625 L 258.628906 44 L 256.304688 75.765625 L 228.425781 75.765625 L 226.101562 44 L 223.777344 44 L 221.453125 75.765625 L 216.808594 75.765625 L 214.484375 44 L 212.160156 44 L 209.835938 75.765625 L 177.308594 75.765625 L 174.984375 44 L 172.660156 75.765625 L 170.335938 75.765625 L 168.015625 44 L 165.691406 75.765625 L 163.367188 75.765625 L 161.042969 44 L 158.71875 75.765625 L 147.101562 75.765625 L 144.777344 44 L 142.457031 75.765625 L 133.160156 75.765625 L 130.839844 44 L 126.191406 44 L 123.867188 75.765625 L 109.925781 75.765625 L 107.601562 44 L 102.957031 44 L 100.632812 75.765625 L 98.308594 44 L 95.984375 75.765625 L 93.664062 75.765625 L 91.339844 44 L 89.015625 75.765625 L 79.722656 75.765625 L 77.398438 44 L 75.074219 75.765625 L 72.75 44 L 70.429688 75.765625 L 68.105469 75.765625 L 65.78125 107.535156 L 54.164062 107.535156 L 51.839844 75.765625 L 49.515625 107.535156 L 44.871094 107.535156 L 42.546875 75.765625 L 37.898438 75.765625 L 35.574219 44 L 33.253906 75.765625 L 21.632812 75.765625 "/>
</g>
</g>
</svg>
